<?xml version="1.0" encoding="UTF-8" standalone="no"?>
<!DOCTYPE svg PUBLIC "-//W3C//DTD SVG 1.1//EN" "http://www.w3.org/Graphics/SVG/1.1/DTD/svg11.dtd">
<!-- Created with Vectornator (http://vectornator.io/) -->
<svg height="100%" stroke-miterlimit="10" style="fill-rule:nonzero;clip-rule:evenodd;stroke-linecap:round;stroke-linejoin:round;" version="1.1" viewBox="0 0 2048 512" width="100%" xml:space="preserve" xmlns="http://www.w3.org/2000/svg" xmlns:vectornator="http://vectornator.io" xmlns:xlink="http://www.w3.org/1999/xlink">
<defs/>
<clipPath id="ArtboardFrame">
<rect height="512" width="2048" x="0" y="0"/>
</clipPath>
<g clip-path="url(#ArtboardFrame)" id="Layer_1" vectornator:layerName="Layer_1">
<path d="M-2.27374e-13-0.703125L-2.27374e-13 247.078L70 304.297L70 512L1967.53 512.656L1966.72 512L2047.62 411.516L2048 411.828L2048-0.703125L-2.27374e-13-0.703125ZM284.469 142.422L486.062 142.422C498.327 142.422 506.901 144.549 511.781 148.828L402.75 257.078C399.923 259.905 397.262 261.962 394.75 263.266C392.238 264.569 389.643 265.234 386.969 265.234C384.309 265.234 381.702 264.569 379.156 263.266C376.611 261.962 373.961 259.905 371.187 257.078L261.687 148.422C266.061 144.415 273.656 142.422 284.469 142.422ZM249.844 163.203L339.594 251.766L249.687 340.859C247.436 336.924 246.312 330.405 246.312 321.266L246.312 183.109C246.312 173.891 247.484 167.259 249.844 163.203ZM523.844 163.516C526.135 167.438 527.281 173.96 527.281 183.109L527.281 321.266C527.281 330.268 526.167 336.762 523.969 340.766L434.281 251.766L523.844 163.516ZM707.937 173.547L737.625 173.547C750.084 173.547 759.815 177.01 766.812 183.922C773.81 190.834 777.312 200.605 777.312 213.234L777.312 225.516C777.312 228.588 775.791 230.141 772.719 230.141L756.594 230.141C753.693 230.141 752.219 228.588 752.219 225.516L752.219 214.266C752.219 201.636 746.1 195.297 733.812 195.297L711.531 195.297C699.243 195.297 693.094 201.636 693.094 214.266L693.094 297.453C693.094 310.082 699.243 316.391 711.531 316.391L733.812 316.391C746.1 316.391 752.219 310.082 752.219 297.453L752.219 286.203C752.219 283.131 753.692 281.578 756.594 281.578L772.719 281.578C775.791 281.578 777.312 283.131 777.312 286.203L777.312 298.484C777.312 310.943 773.81 320.675 766.812 327.672C759.815 334.669 750.084 338.172 737.625 338.172L707.937 338.172C695.308 338.172 685.537 334.669 678.625 327.672C671.713 320.675 668.25 310.943 668.25 298.484L668.25 213.234C668.25 200.605 671.713 190.834 678.625 183.922C685.537 177.01 695.308 173.547 707.937 173.547ZM846.187 173.547L875.875 173.547C888.504 173.547 898.315 177.01 905.312 183.922C912.31 190.834 915.813 200.605 915.812 213.234L915.812 298.484C915.812 310.943 912.31 320.675 905.312 327.672C898.315 334.669 888.505 338.172 875.875 338.172L846.187 338.172C833.558 338.172 823.787 334.669 816.875 327.672C809.963 320.675 806.5 310.943 806.5 298.484L806.5 213.234C806.5 200.605 809.963 190.834 816.875 183.922C823.787 177.01 833.558 173.547 846.187 173.547ZM954.719 173.547L969.062 173.547C971.793 173.547 973.664 174.482 974.687 176.359L1036.66 287.734L1037.66 287.734L1037.66 177.891C1037.66 174.989 1039.13 173.547 1042.03 173.547L1057.91 173.547C1060.81 173.547 1062.25 174.989 1062.25 177.891L1062.25 333.797C1062.25 336.698 1060.81 338.172 1057.91 338.172L1044.06 338.172C1041.33 338.172 1039.11 336.809 1037.41 334.078L975.969 223.984L974.937 223.984L974.937 333.797C974.937 336.698 973.495 338.172 970.594 338.172L954.719 338.172C951.818 338.172 950.375 336.698 950.375 333.797L950.375 177.891C950.375 174.989 951.818 173.547 954.719 173.547ZM1089.12 173.547L1184.09 173.547C1187.17 173.547 1188.72 174.989 1188.72 177.891L1188.72 190.953C1188.72 193.854 1187.17 195.297 1184.09 195.297L1151.84 195.297C1149.97 195.297 1149.03 196.153 1149.03 197.859L1149.03 333.797C1149.03 336.698 1147.59 338.172 1144.69 338.172L1128.56 338.172C1125.49 338.172 1123.94 336.698 1123.94 333.797L1123.94 197.859C1123.94 196.153 1123.08 195.297 1121.37 195.297L1089.12 195.297C1086.05 195.297 1084.53 193.854 1084.53 190.953L1084.53 177.891C1084.53 174.989 1086.05 173.547 1089.12 173.547ZM1249.37 173.547L1274.97 173.547C1278.38 173.547 1280.44 174.989 1281.12 177.891L1325.66 333.797C1326.34 336.698 1325.4 338.172 1322.84 338.172L1304.69 338.172C1303.15 338.172 1302.07 337.863 1301.47 337.266C1300.87 336.668 1300.4 335.504 1300.06 333.797L1290.34 300.516L1234.03 300.516L1224.28 333.797C1223.6 336.698 1222.08 338.172 1219.69 338.172L1201.25 338.172C1198.86 338.172 1198 336.698 1198.69 333.797L1243.25 177.891C1244.1 174.989 1246.13 173.547 1249.37 173.547ZM1388.12 173.547L1417.84 173.547C1430.3 173.547 1440 177.01 1447 183.922C1454 190.834 1457.5 200.605 1457.5 213.234L1457.5 225.516C1457.5 228.588 1455.98 230.141 1452.91 230.141L1436.78 230.141C1433.88 230.141 1432.44 228.588 1432.44 225.516L1432.44 214.266C1432.44 201.636 1426.29 195.297 1414 195.297L1391.72 195.297C1379.43 195.297 1373.28 201.636 1373.28 214.266L1373.28 297.453C1373.28 310.082 1379.43 316.391 1391.72 316.391L1414 316.391C1426.29 316.391 1432.44 310.082 1432.44 297.453L1432.44 286.203C1432.44 283.131 1433.88 281.578 1436.78 281.578L1452.91 281.578C1455.98 281.578 1457.5 283.131 1457.5 286.203L1457.5 298.484C1457.5 310.943 1454 320.675 1447 327.672C1440 334.669 1430.3 338.172 1417.84 338.172L1388.12 338.172C1375.5 338.172 1365.72 334.669 1358.81 327.672C1351.9 320.675 1348.47 310.943 1348.47 298.484L1348.47 213.234C1348.47 200.605 1351.9 190.834 1358.81 183.922C1365.72 177.01 1375.5 173.547 1388.12 173.547ZM1478.75 173.547L1573.75 173.547C1576.82 173.547 1578.34 174.989 1578.34 177.891L1578.34 190.953C1578.34 193.854 1576.82 195.297 1573.75 195.297L1541.47 195.297C1539.59 195.297 1538.66 196.153 1538.66 197.859L1538.66 333.797C1538.66 336.698 1537.21 338.172 1534.31 338.172L1518.19 338.172C1515.12 338.172 1513.56 336.698 1513.56 333.797L1513.56 197.859C1513.56 196.153 1512.71 195.297 1511 195.297L1478.75 195.297C1475.68 195.297 1474.16 193.854 1474.16 190.953L1474.16 177.891C1474.16 174.989 1475.68 173.547 1478.75 173.547ZM420.812 264.859L512.469 355.766C507.844 359.979 500.046 362.109 489.094 362.109L287.531 362.109C275.355 362.109 266.695 359.954 261.594 355.672L353 264.891L360.75 272.578C369.221 280.76 377.952 284.859 386.969 284.859C395.902 284.859 404.648 280.76 413.187 272.578L420.812 264.859ZM849.781 195.297C837.493 195.297 831.344 201.636 831.344 214.266L831.344 297.453C831.344 310.082 837.493 316.391 849.781 316.391L872.031 316.391C884.49 316.391 890.719 310.082 890.719 297.453L890.719 214.266C890.719 201.636 884.49 195.297 872.031 195.297L849.781 195.297ZM1261.66 198.141L1239.16 280.047L1285.47 280.047L1262.69 198.141L1261.66 198.141Z" fill="#ffffff" fill-rule="nonzero" opacity="1" stroke="none"/>
</g>
</svg>
