<?xml version="1.0" encoding="utf-8"?>
<!-- Generator: Adobe Adobe Illustrator 24.2.0, SVG Export Plug-In . SVG Version: 6.00 Build 0)  -->
<svg version="1.1" xmlns="http://www.w3.org/2000/svg" xmlns:xlink="http://www.w3.org/1999/xlink" x="0px" y="0px"
	 viewBox="0 0 2400 1080" style="enable-background:new 0 0 2400 1080;" xml:space="preserve">
<style type="text/css">
	.st0{display:none;}
	.st1{display:inline;}
	.st2{fill:#FFFFFF;}
</style>
<g id="Layer_2" class="st0">
	<rect class="st1" width="2400" height="1080"/>
</g>
<g id="Layer_1">
	<g>
		<g>
			<g>
				<polygon class="st2" points="2207.55,689.19 2275.4,718.94 2344.62,688.96 2344.4,646.55 2275.18,676.53 2206.8,646.55 
					2207.02,688.96 				"/>
				<polygon class="st2" points="1529.93,463.04 1500.01,571.84 1561.55,571.84 1531.29,463.04 				"/>
				<polygon class="st2" points="2207.55,754.16 2275.4,783.91 2344.62,753.93 2344.4,711.52 2275.18,741.51 2206.8,711.52 
					2207.02,753.93 				"/>
				<path class="st2" d="M1012.46,459.3h-29.58c-16.32,0-24.48,8.39-24.48,25.16v110.5c0,16.78,8.16,25.16,24.48,25.16h29.58
					c16.54,0,24.82-8.38,24.82-25.16v-110.5C1037.28,467.68,1029,459.3,1012.46,459.3z"/>
				<path class="st2" d="M0,235v247.79L70,540v306.4l2330-1.4V235H0z M592.66,752.5h-425v-425h425V752.5z M886.66,499.42
					c0,4.08-2.04,6.12-6.12,6.12h-21.42c-3.86,0-5.78-2.04-5.78-6.12v-14.96c0-16.77-8.16-25.16-24.48-25.16h-29.58
					c-16.32,0-24.48,8.39-24.48,25.16v110.5c0,16.78,8.16,25.16,24.48,25.16h29.58c16.32,0,24.48-8.38,24.48-25.16V580
					c0-4.08,1.92-6.12,5.78-6.12h21.42c4.08,0,6.12,2.04,6.12,6.12v16.32c0,16.55-4.65,29.47-13.94,38.76
					c-9.3,9.3-22.22,13.94-38.76,13.94h-39.44c-16.78,0-29.75-4.64-38.93-13.94c-9.18-9.29-13.77-22.21-13.77-38.76V483.1
					c0-16.77,4.59-29.75,13.77-38.93c9.18-9.18,22.15-13.77,38.93-13.77h39.44c16.54,0,29.46,4.59,38.76,13.77
					c9.29,9.18,13.94,22.16,13.94,38.93V499.42z M1070.6,596.32c0,16.55-4.65,29.47-13.94,38.76c-9.3,9.3-22.33,13.94-39.1,13.94
					h-39.44c-16.78,0-29.75-4.64-38.93-13.94c-9.18-9.29-13.77-22.21-13.77-38.76V483.1c0-16.77,4.59-29.75,13.77-38.93
					c9.18-9.18,22.15-13.77,38.93-13.77h39.44c16.77,0,29.8,4.59,39.1,13.77c9.29,9.18,13.94,22.16,13.94,38.93V596.32z
					 M1265.07,643.24c0,3.86-1.93,5.78-5.78,5.78h-18.36c-3.63,0-6.58-1.81-8.84-5.44l-81.6-146.2h-1.36v145.86
					c0,3.86-1.93,5.78-5.78,5.78h-21.08c-3.86,0-5.78-1.92-5.78-5.78V436.18c0-3.85,1.92-5.78,5.78-5.78h19.04
					c3.62,0,6.12,1.25,7.48,3.74l82.28,147.9h1.36V436.18c0-3.85,1.92-5.78,5.78-5.78h21.08c3.85,0,5.78,1.93,5.78,5.78V643.24z
					 M1433.03,453.52c0,3.86-2.04,5.78-6.12,5.78h-42.84c-2.5,0-3.74,1.14-3.74,3.4v180.54c0,3.86-1.93,5.78-5.78,5.78h-21.42
					c-4.08,0-6.12-1.92-6.12-5.78V462.7c0-2.26-1.14-3.4-3.4-3.4h-42.84c-4.08,0-6.12-1.92-6.12-5.78v-17.34
					c0-3.85,2.04-5.78,6.12-5.78h126.14c4.08,0,6.12,1.93,6.12,5.78V453.52z M1611.19,649.02h-24.14c-2.04,0-3.46-0.39-4.25-1.19
					c-0.8-0.79-1.42-2.32-1.87-4.59l-12.92-44.2h-74.8l-12.92,44.2c-0.91,3.86-2.95,5.78-6.12,5.78h-24.48
					c-3.18,0-4.31-1.92-3.4-5.78l59.16-207.06c1.13-3.85,3.85-5.78,8.16-5.78h34c4.53,0,7.25,1.93,8.16,5.78l59.16,207.06
					C1615.83,647.09,1614.59,649.02,1611.19,649.02z M1790.02,499.42c0,4.08-2.04,6.12-6.12,6.12h-21.42
					c-3.86,0-5.78-2.04-5.78-6.12v-14.96c0-16.77-8.16-25.16-24.48-25.16h-29.58c-16.32,0-24.48,8.39-24.48,25.16v110.5
					c0,16.78,8.16,25.16,24.48,25.16h29.58c16.32,0,24.48-8.38,24.48-25.16V580c0-4.08,1.92-6.12,5.78-6.12h21.42
					c4.08,0,6.12,2.04,6.12,6.12v16.32c0,16.55-4.65,29.47-13.94,38.76c-9.3,9.3-22.22,13.94-38.76,13.94h-39.44
					c-16.78,0-29.75-4.64-38.93-13.94c-9.18-9.29-13.77-22.21-13.77-38.76V483.1c0-16.77,4.59-29.75,13.77-38.93
					c9.18-9.18,22.15-13.77,38.93-13.77h39.44c16.54,0,29.46,4.59,38.76,13.77c9.29,9.18,13.94,22.16,13.94,38.93V499.42z
					 M1950.5,453.52c0,3.86-2.04,5.78-6.12,5.78h-42.84c-2.5,0-3.74,1.14-3.74,3.4v180.54c0,3.86-1.93,5.78-5.78,5.78h-21.42
					c-4.08,0-6.12-1.92-6.12-5.78V462.7c0-2.26-1.14-3.4-3.4-3.4h-42.84c-4.08,0-6.12-1.92-6.12-5.78v-17.34
					c0-3.85,2.04-5.78,6.12-5.78h126.14c4.08,0,6.12,1.93,6.12,5.78V453.52z M2363.37,805.23h-180v-180h180V805.23z"/>
			</g>
		</g>
	</g>
	<g>
		<g>
			<path class="st2" d="M378.71,382.5c-86.98,0-157.5,70.52-157.5,157.5s70.52,157.5,157.5,157.5s157.5-70.52,157.5-157.5
				S465.69,382.5,378.71,382.5z M393.26,640.2c0,2-0.35,3.35-1.05,4.05c-0.7,0.7-1.95,1.05-3.75,1.05h-19.2c-3.4,0-5.1-1.7-5.1-5.1
				V497.4c0-3.4,1.6-5.1,4.8-5.1h19.2c3.4,0,5.1,1.7,5.1,5.1V640.2z M393.26,466.8c0,3.4-1.6,5.1-4.8,5.1h-19.5
				c-3.2,0-4.8-1.7-4.8-5.1v-27.3c0-3.2,1.6-4.8,4.8-4.8h19.5c3.2,0,4.8,1.6,4.8,4.8V466.8z"/>
		</g>
	</g>
</g>
</svg>
