<?xml version="1.0" encoding="utf-8"?>
<!-- Generator: Adobe Adobe Illustrator 24.2.0, SVG Export Plug-In . SVG Version: 6.00 Build 0)  -->
<svg version="1.1" xmlns="http://www.w3.org/2000/svg" xmlns:xlink="http://www.w3.org/1999/xlink" x="0px" y="0px"
	 viewBox="0 0 2400 730" style="enable-background:new 0 0 2400 730;" xml:space="preserve">
<style type="text/css">
	.st0{fill:#FFFFFF;}
	.st1{fill:#8CC63F;}
	.st2{fill:#29ABE2;}
</style>
<g id="Layer_3">
</g>
<g id="Layer_16">
</g>
<g id="Layer_2">
</g>
<g id="Layer_2_copy">
</g>
<g id="Layer_2_copy_2">
</g>
<g id="Layer_2_copy_3">
</g>
<g id="Layer_2_copy_4">
</g>
<g id="Layer_2_copy_5">
</g>
<g id="Layer_2_copy_6">
</g>
<g id="Layer_2_copy_7">
</g>
<g id="Layer_2_copy_8">
</g>
<g id="Layer_2_copy_9">
</g>
<g id="Layer_2_copy_10">
</g>
<g id="Layer_2_copy_11">
</g>
<g id="Layer_2_copy_12">
</g>
<g id="Layer_2_copy_13">
</g>
<g id="Layer_2_copy_14">
	<g>
		<g>
			<path class="st0" d="M2388.1,72v442.05L2214.23,658H102.1V72H2388.1 M2400.1,60H90.1V670h2128.45l181.55-150.31V60L2400.1,60z"/>
		</g>
	</g>
	<polygon class="st0" points="-0.1,670 -0.1,558.55 25.57,558.55 25.57,418.42 -0.1,418.42 -0.1,60 71.9,60 71.9,670 	"/>
	<g>
		<path class="st0" d="M767.46,316.07v-2.81c0-1.22,0.61-1.84,1.84-1.84h6.91c1.22,0,1.84,0.61,1.84,1.84v1.94
			c0,3.02,0.66,5.2,2,6.53c1.33,1.33,3.55,2,6.64,2h7.45c3.09,0,5.33-0.7,6.7-2.11c1.37-1.4,2.05-3.69,2.05-6.86v-2.48
			c0-2.3-0.88-4.12-2.65-5.45c-1.77-1.33-3.94-2.2-6.53-2.59c-2.59-0.39-5.44-0.95-8.53-1.67c-3.1-0.72-5.94-1.55-8.53-2.48
			c-2.59-0.94-4.77-2.7-6.53-5.29c-1.76-2.59-2.65-5.9-2.65-9.94v-4.54c0-5.25,1.49-9.38,4.48-12.37c2.99-2.99,7.11-4.48,12.37-4.48
			h11.45c5.33,0,9.49,1.5,12.47,4.48c2.99,2.99,4.48,7.11,4.48,12.37v2.38c0,1.23-0.61,1.84-1.84,1.84h-6.91
			c-1.23,0-1.84-0.61-1.84-1.84v-1.4c0-3.1-0.67-5.31-2-6.64c-1.33-1.33-3.55-2-6.64-2h-6.8c-3.1,0-5.31,0.7-6.64,2.11
			c-1.33,1.4-2,3.8-2,7.18v3.35c0,3.24,2.34,5.44,7.02,6.59c2.09,0.5,4.37,0.94,6.86,1.3c2.48,0.36,4.98,0.9,7.51,1.62
			c2.52,0.72,4.82,1.67,6.91,2.86c2.09,1.19,3.78,2.99,5.08,5.4c1.3,2.41,1.94,5.35,1.94,8.8v4.21c0,5.26-1.5,9.38-4.48,12.37
			c-2.99,2.99-7.11,4.48-12.37,4.48h-12.1c-5.26,0-9.4-1.49-12.42-4.48C768.97,325.45,767.46,321.33,767.46,316.07z"/>
		<path class="st0" d="M836.58,332.92h-6.8c-1.23,0-1.84-0.61-1.84-1.84v-65.77c0-1.22,0.61-1.84,1.84-1.84h25.7
			c5.25,0,9.36,1.46,12.31,4.37c2.95,2.92,4.43,7.04,4.43,12.37v11.23c0,5.26-1.48,9.36-4.43,12.31c-2.95,2.95-7.06,4.43-12.31,4.43
			h-15.77c-0.86,0-1.3,0.36-1.3,1.08v21.82C838.41,332.31,837.8,332.92,836.58,332.92z M839.6,298.9h14.36
			c5.11,0,7.67-2.66,7.67-7.99v-10.26c0-5.33-2.56-7.99-7.67-7.99H839.6c-0.79,0-1.19,0.36-1.19,1.08v24.08
			C838.41,298.54,838.81,298.9,839.6,298.9z"/>
		<path class="st0" d="M921.36,332.92H886.8c-1.23,0-1.84-0.61-1.84-1.84v-65.77c0-1.22,0.61-1.84,1.84-1.84h34.56
			c1.15,0,1.73,0.61,1.73,1.84v5.51c0,1.23-0.58,1.84-1.73,1.84h-24.62c-0.86,0-1.3,0.36-1.3,1.08v18.25c0,0.72,0.43,1.08,1.3,1.08
			h20.84c1.3,0,1.94,0.61,1.94,1.84v5.51c0,1.23-0.65,1.84-1.94,1.84h-20.84c-0.86,0-1.3,0.36-1.3,1.08v19.22
			c0,0.79,0.43,1.19,1.3,1.19h24.62c1.15,0,1.73,0.61,1.73,1.84v5.51C923.09,332.31,922.51,332.92,921.36,332.92z"/>
		<path class="st0" d="M945.33,332.92h-6.7c-1.23,0-1.84-0.61-1.84-1.84v-65.77c0-1.22,0.61-1.84,1.84-1.84h6.05
			c1.15,0,1.94,0.4,2.38,1.19l26.14,46.98h0.43v-46.33c0-1.22,0.61-1.84,1.84-1.84h6.7c1.22,0,1.84,0.61,1.84,1.84v65.77
			c0,1.23-0.61,1.84-1.84,1.84h-5.83c-1.15,0-2.09-0.58-2.81-1.73l-25.92-46.44h-0.43v46.33
			C947.17,332.31,946.56,332.92,945.33,332.92z"/>
		<path class="st0" d="M1027.95,332.92h-12.53c-5.33,0-9.45-1.48-12.37-4.43c-2.92-2.95-4.37-7.06-4.37-12.31v-35.96
			c0-5.33,1.46-9.45,4.37-12.37s7.04-4.37,12.37-4.37h12.53c5.25,0,9.36,1.46,12.31,4.37c2.95,2.92,4.43,7.04,4.43,12.37v5.18
			c0,1.3-0.65,1.94-1.94,1.94h-6.8c-1.23,0-1.84-0.65-1.84-1.94v-4.75c0-5.33-2.59-7.99-7.78-7.99h-9.4c-5.18,0-7.78,2.66-7.78,7.99
			v35.1c0,5.33,2.59,7.99,7.78,7.99h9.4c5.18,0,7.78-2.66,7.78-7.99V311c0-1.3,0.61-1.94,1.84-1.94h6.8c1.3,0,1.94,0.65,1.94,1.94
			v5.18c0,5.26-1.48,9.36-4.43,12.31C1037.31,331.45,1033.21,332.92,1027.95,332.92z"/>
		<path class="st0" d="M1094.48,332.92h-34.56c-1.23,0-1.84-0.61-1.84-1.84v-65.77c0-1.22,0.61-1.84,1.84-1.84h34.56
			c1.15,0,1.73,0.61,1.73,1.84v5.51c0,1.23-0.58,1.84-1.73,1.84h-24.62c-0.86,0-1.3,0.36-1.3,1.08v18.25c0,0.72,0.43,1.08,1.3,1.08
			h20.84c1.3,0,1.94,0.61,1.94,1.84v5.51c0,1.23-0.65,1.84-1.94,1.84h-20.84c-0.86,0-1.3,0.36-1.3,1.08v19.22
			c0,0.79,0.43,1.19,1.3,1.19h24.62c1.15,0,1.73,0.61,1.73,1.84v5.51C1096.21,332.31,1095.63,332.92,1094.48,332.92z"/>
		<path class="st0" d="M1118.56,332.92h-6.8c-1.23,0-1.84-0.61-1.84-1.84v-65.77c0-1.22,0.61-1.84,1.84-1.84h25.27
			c5.25,0,9.38,1.5,12.37,4.48c2.99,2.99,4.48,7.11,4.48,12.37v9.07c0,8.28-3.42,13.5-10.26,15.66v0.43l11.99,25.27
			c0.79,1.44,0.32,2.16-1.4,2.16h-6.7c-1.73,0-2.85-0.61-3.35-1.84l-11.56-24.84h-10.91c-0.86,0-1.3,0.36-1.3,1.08v23.76
			C1120.4,332.31,1119.79,332.92,1118.56,332.92z M1121.59,297.61h13.72c5.33,0,7.99-2.63,7.99-7.88v-9.07
			c0-5.33-2.66-7.99-7.99-7.99h-13.72c-0.79,0-1.19,0.36-1.19,1.08v22.79C1120.4,297.25,1120.79,297.61,1121.59,297.61z"/>
		<path class="st0" d="M1177.1,332.92h-6.8c-1.23,0-1.84-0.61-1.84-1.84v-65.77c0-1.22,0.61-1.84,1.84-1.84h6.8
			c1.22,0,1.84,0.61,1.84,1.84v27c0,0.72,0.43,1.08,1.3,1.08h22.79c0.72,0,1.08-0.36,1.08-1.08v-27c0-1.22,0.61-1.84,1.84-1.84h6.91
			c1.22,0,1.84,0.61,1.84,1.84v65.77c0,1.23-0.61,1.84-1.84,1.84h-6.91c-1.23,0-1.84-0.61-1.84-1.84v-27.32
			c0-0.72-0.36-1.08-1.08-1.08h-22.79c-0.86,0-1.3,0.36-1.3,1.08v27.32C1178.94,332.31,1178.32,332.92,1177.1,332.92z"/>
		<path class="st0" d="M1234.23,332.92h-7.78c-1.01,0-1.37-0.61-1.08-1.84l18.79-65.77c0.36-1.22,1.22-1.84,2.59-1.84h10.8
			c1.44,0,2.3,0.61,2.59,1.84l18.79,65.77c0.29,1.23-0.11,1.84-1.19,1.84h-7.67c-0.65,0-1.1-0.12-1.35-0.38
			c-0.25-0.25-0.45-0.74-0.59-1.46l-4.1-14.04h-23.76l-4.1,14.04C1235.89,332.31,1235.24,332.92,1234.23,332.92z M1251.94,273.85
			l-9.5,34.56h19.55l-9.61-34.56H1251.94z"/>
		<path class="st0" d="M1298.27,332.92h-6.8c-1.23,0-1.84-0.61-1.84-1.84v-65.77c0-1.22,0.61-1.84,1.84-1.84h25.27
			c5.25,0,9.38,1.5,12.37,4.48c2.99,2.99,4.48,7.11,4.48,12.37v9.07c0,8.28-3.42,13.5-10.26,15.66v0.43l11.99,25.27
			c0.79,1.44,0.32,2.16-1.4,2.16h-6.7c-1.73,0-2.85-0.61-3.35-1.84l-11.56-24.84h-10.91c-0.86,0-1.3,0.36-1.3,1.08v23.76
			C1300.11,332.31,1299.5,332.92,1298.27,332.92z M1301.3,297.61h13.72c5.33,0,7.99-2.63,7.99-7.88v-9.07
			c0-5.33-2.66-7.99-7.99-7.99h-13.72c-0.79,0-1.19,0.36-1.19,1.08v22.79C1300.11,297.25,1300.5,297.61,1301.3,297.61z"/>
		<path class="st0" d="M1367.18,332.92h-6.8c-1.3,0-1.94-0.61-1.94-1.84v-57.35c0-0.72-0.36-1.08-1.08-1.08h-13.61
			c-1.3,0-1.94-0.61-1.94-1.84v-5.51c0-1.22,0.65-1.84,1.94-1.84h40.07c1.3,0,1.94,0.61,1.94,1.84v5.51c0,1.23-0.65,1.84-1.94,1.84
			h-13.61c-0.79,0-1.19,0.36-1.19,1.08v57.35C1369.01,332.31,1368.4,332.92,1367.18,332.92z"/>
		<path class="st0" d="M1431.87,332.92h-34.99c-1.23,0-1.84-0.61-1.84-1.84v-65.77c0-1.22,0.61-1.84,1.84-1.84h6.8
			c1.22,0,1.84,0.61,1.84,1.84v57.13c0,0.72,0.43,1.08,1.3,1.08h25.06c1.22,0,1.84,0.65,1.84,1.94v5.62
			C1433.7,332.31,1433.09,332.92,1431.87,332.92z"/>
		<path class="st0" d="M1447.42,332.92h-7.78c-1.01,0-1.37-0.61-1.08-1.84l18.79-65.77c0.36-1.22,1.22-1.84,2.59-1.84h10.8
			c1.44,0,2.3,0.61,2.59,1.84l18.79,65.77c0.29,1.23-0.11,1.84-1.19,1.84h-7.67c-0.65,0-1.1-0.12-1.35-0.38
			c-0.25-0.25-0.45-0.74-0.59-1.46l-4.1-14.04h-23.76l-4.1,14.04C1449.07,332.31,1448.43,332.92,1447.42,332.92z M1465.13,273.85
			l-9.5,34.56h19.55l-9.61-34.56H1465.13z"/>
		<path class="st0" d="M1511.35,332.92h-6.7c-1.23,0-1.84-0.61-1.84-1.84v-65.77c0-1.22,0.61-1.84,1.84-1.84h6.05
			c1.15,0,1.94,0.4,2.38,1.19l26.14,46.98h0.43v-46.33c0-1.22,0.61-1.84,1.84-1.84h6.7c1.22,0,1.84,0.61,1.84,1.84v65.77
			c0,1.23-0.61,1.84-1.84,1.84h-5.83c-1.15,0-2.09-0.58-2.81-1.73l-25.92-46.44h-0.43v46.33
			C1513.19,332.31,1512.58,332.92,1511.35,332.92z"/>
		<path class="st0" d="M1565.78,331.09v-65.77c0-1.22,0.61-1.84,1.84-1.84h26.57c5.25,0,9.38,1.46,12.37,4.37
			c2.99,2.92,4.48,7.04,4.48,12.37v35.96c0,5.26-1.5,9.36-4.48,12.31c-2.99,2.95-7.11,4.43-12.37,4.43h-26.57
			C1566.4,332.92,1565.78,332.31,1565.78,331.09z M1577.45,323.74h15.23c5.18,0,7.78-2.66,7.78-7.99v-35.1
			c0-5.33-2.59-7.99-7.78-7.99h-15.23c-0.79,0-1.19,0.36-1.19,1.08v48.82C1576.26,323.35,1576.66,323.74,1577.45,323.74z"/>
		<path class="st0" d="M1671.84,339.19h-19.44c-7.71,0-14.19-2.38-19.44-7.13c-5.26-4.75-7.88-11.09-7.88-19.01v-18.68
			c0-7.7,2.5-14.06,7.51-19.06c5-5,11.18-7.51,18.52-7.51h21.71c5.69,0,10.33,1.69,13.93,5.08c3.6,3.39,5.4,7.74,5.4,13.07v23.65
			c0,4.25-1.35,7.71-4.05,10.37c-2.7,2.66-6.17,4-10.42,4h-5.08c-1.66,0-3.06-0.41-4.21-1.24c-1.15-0.83-1.73-2-1.73-3.51v-1.19
			h-0.43c-1.73,3.89-5.4,5.83-11.02,5.83c-4.39,0-7.94-1.4-10.64-4.21s-4.05-6.77-4.05-11.88v-7.78c0-5.25,1.4-9.36,4.21-12.31
			c2.81-2.95,6.55-4.43,11.23-4.43h17.5c1.22,0,1.84,0.61,1.84,1.84v31.21c0,0.79,0.61,1.19,1.84,1.19h0.11
			c5.62,0,8.42-2.88,8.42-8.64v-22.36c0-3.89-1.26-6.91-3.78-9.07c-2.52-2.16-5.76-3.24-9.72-3.24h-20.52
			c-6.05,0-10.93,1.85-14.63,5.56c-3.71,3.71-5.56,8.77-5.56,15.17v17.17c0,6.41,1.94,11.47,5.83,15.17
			c3.89,3.71,8.89,5.56,15.01,5.56h19.55c1.22,0,1.84,0.61,1.84,1.84v2.7C1673.68,338.57,1673.06,339.19,1671.84,339.19z
			 M1666.66,306.79v-14.26c0-0.79-0.4-1.19-1.19-1.19h-7.88c-5.18,0-7.78,2.66-7.78,7.99v8.64c0,5.26,2.59,7.88,7.78,7.88h0.22
			C1663.7,315.86,1666.66,312.84,1666.66,306.79z"/>
		<path class="st0" d="M1717.63,265.32v65.77c0,1.23-0.61,1.84-1.84,1.84h-6.8c-1.23,0-1.84-0.61-1.84-1.84v-65.77
			c0-1.22,0.61-1.84,1.84-1.84h6.8C1717.02,263.48,1717.63,264.09,1717.63,265.32z"/>
		<path class="st0" d="M1762.13,332.92h-12.53c-5.33,0-9.45-1.48-12.37-4.43c-2.92-2.95-4.37-7.06-4.37-12.31v-35.96
			c0-5.33,1.46-9.45,4.37-12.37s7.04-4.37,12.37-4.37h12.53c5.25,0,9.36,1.46,12.31,4.37c2.95,2.92,4.43,7.04,4.43,12.37v5.18
			c0,1.3-0.65,1.94-1.94,1.94h-6.8c-1.23,0-1.84-0.65-1.84-1.94v-4.75c0-5.33-2.59-7.99-7.78-7.99h-9.4c-5.18,0-7.78,2.66-7.78,7.99
			v35.1c0,5.33,2.59,7.99,7.78,7.99h9.4c5.18,0,7.78-2.66,7.78-7.99V311c0-1.3,0.61-1.94,1.84-1.94h6.8c1.3,0,1.94,0.65,1.94,1.94
			v5.18c0,5.26-1.48,9.36-4.43,12.31C1771.48,331.45,1767.38,332.92,1762.13,332.92z"/>
		<path class="st0" d="M1829.09,332.92h-34.99c-1.23,0-1.84-0.61-1.84-1.84v-65.77c0-1.22,0.61-1.84,1.84-1.84h6.8
			c1.22,0,1.84,0.61,1.84,1.84v57.13c0,0.72,0.43,1.08,1.3,1.08h25.06c1.22,0,1.84,0.65,1.84,1.94v5.62
			C1830.92,332.31,1830.31,332.92,1829.09,332.92z"/>
		<path class="st0" d="M1869.04,332.92h-12.53c-5.33,0-9.45-1.48-12.37-4.43c-2.92-2.95-4.37-7.06-4.37-12.31v-35.96
			c0-5.33,1.46-9.45,4.37-12.37s7.04-4.37,12.37-4.37h12.53c5.33,0,9.47,1.46,12.42,4.37c2.95,2.92,4.43,7.04,4.43,12.37v35.96
			c0,5.26-1.48,9.36-4.43,12.31C1878.51,331.45,1874.37,332.92,1869.04,332.92z M1858.03,323.74h9.4c5.25,0,7.88-2.66,7.88-7.99
			v-35.1c0-5.33-2.63-7.99-7.88-7.99h-9.4c-5.18,0-7.78,2.66-7.78,7.99v35.1C1850.25,321.08,1852.84,323.74,1858.03,323.74z"/>
		<path class="st0" d="M1936.76,263.48h6.8c1.3,0,1.94,0.58,1.94,1.73v50.98c0,5.26-1.5,9.36-4.48,12.31
			c-2.99,2.95-7.11,4.43-12.37,4.43h-11.99c-5.26,0-9.36-1.48-12.31-4.43c-2.95-2.95-4.43-7.06-4.43-12.31v-50.87
			c0-1.22,0.61-1.84,1.84-1.84h6.8c1.22,0,1.84,0.61,1.84,1.84v50.44c0,5.33,2.59,7.99,7.78,7.99h8.86c5.25,0,7.88-2.66,7.88-7.99
			v-50.44C1934.92,264.09,1935.53,263.48,1936.76,263.48z"/>
		<path class="st0" d="M1960.63,331.09v-65.77c0-1.22,0.61-1.84,1.84-1.84h26.57c5.25,0,9.38,1.46,12.37,4.37
			c2.99,2.92,4.48,7.04,4.48,12.37v35.96c0,5.26-1.5,9.36-4.48,12.31c-2.99,2.95-7.11,4.43-12.37,4.43h-26.57
			C1961.24,332.92,1960.63,332.31,1960.63,331.09z M1972.29,323.74h15.23c5.18,0,7.78-2.66,7.78-7.99v-35.1
			c0-5.33-2.59-7.99-7.78-7.99h-15.23c-0.79,0-1.19,0.36-1.19,1.08v48.82C1971.1,323.35,1971.5,323.74,1972.29,323.74z"/>
		<path class="st0" d="M2028.88,317.91v13.18c0,1.23-0.58,1.84-1.73,1.84h-7.34c-1.23,0-1.84-0.61-1.84-1.84v-13.18
			c0-1.15,0.61-1.73,1.84-1.73h7.34C2028.3,316.18,2028.88,316.76,2028.88,317.91z"/>
		<path class="st0" d="M2070.24,332.92h-12.53c-5.33,0-9.45-1.48-12.37-4.43c-2.92-2.95-4.37-7.06-4.37-12.31v-35.96
			c0-5.33,1.46-9.45,4.37-12.37s7.04-4.37,12.37-4.37h12.53c5.25,0,9.36,1.46,12.31,4.37c2.95,2.92,4.43,7.04,4.43,12.37v5.18
			c0,1.3-0.65,1.94-1.94,1.94h-6.8c-1.23,0-1.84-0.65-1.84-1.94v-4.75c0-5.33-2.59-7.99-7.78-7.99h-9.4c-5.18,0-7.78,2.66-7.78,7.99
			v35.1c0,5.33,2.59,7.99,7.78,7.99h9.4c5.18,0,7.78-2.66,7.78-7.99V311c0-1.3,0.61-1.94,1.84-1.94h6.8c1.3,0,1.94,0.65,1.94,1.94
			v5.18c0,5.26-1.48,9.36-4.43,12.31C2079.6,331.45,2075.5,332.92,2070.24,332.92z"/>
		<path class="st0" d="M2128.56,332.92h-12.53c-5.33,0-9.45-1.48-12.37-4.43c-2.92-2.95-4.37-7.06-4.37-12.31v-35.96
			c0-5.33,1.46-9.45,4.37-12.37s7.04-4.37,12.37-4.37h12.53c5.33,0,9.47,1.46,12.42,4.37c2.95,2.92,4.43,7.04,4.43,12.37v35.96
			c0,5.26-1.48,9.36-4.43,12.31C2138.03,331.45,2133.89,332.92,2128.56,332.92z M2117.55,323.74h9.4c5.25,0,7.88-2.66,7.88-7.99
			v-35.1c0-5.33-2.63-7.99-7.88-7.99h-9.4c-5.18,0-7.78,2.66-7.78,7.99v35.1C2109.77,321.08,2112.36,323.74,2117.55,323.74z"/>
		<path class="st0" d="M2207.51,263.48h12.1c1.22,0,1.84,0.61,1.84,1.84v65.77c0,1.23-0.61,1.84-1.84,1.84h-6.7
			c-1.23,0-1.84-0.61-1.84-1.84v-54.54h-0.43l-14.04,39.53c-0.43,1.15-1.23,1.73-2.38,1.73h-6.91c-1.08,0-1.84-0.58-2.27-1.73
			l-14.36-39.64h-0.43v54.65c0,0.72-0.13,1.21-0.38,1.46c-0.25,0.25-0.74,0.38-1.46,0.38h-6.59c-1.23,0-1.84-0.61-1.84-1.84v-65.77
			c0-1.22,0.61-1.84,1.84-1.84h12.1c0.79,0,1.37,0.4,1.73,1.19l14.8,41.69h0.54l14.9-41.69
			C2206.03,263.88,2206.57,263.48,2207.51,263.48z"/>
		<path class="st0" d="M769.62,447.19v-3.89c0-0.79,0.39-1.19,1.19-1.19h3.13c0.79,0,1.19,0.4,1.19,1.19v3.56
			c0,7.2,3.49,10.8,10.48,10.8h11.23c6.98,0,10.48-3.63,10.48-10.91v-4.54c0-3.17-1.3-5.65-3.89-7.45c-2.59-1.8-5.72-3.09-9.4-3.89
			c-3.67-0.79-7.36-1.62-11.07-2.48c-3.71-0.86-6.86-2.45-9.45-4.75c-2.59-2.3-3.89-5.4-3.89-9.29v-5.94c0-4.75,1.37-8.5,4.1-11.23
			c2.74-2.74,6.44-4.1,11.12-4.1h12.53c4.68,0,8.39,1.37,11.12,4.1c2.74,2.74,4.1,6.48,4.1,11.23v3.02c0,0.79-0.4,1.19-1.19,1.19
			h-3.13c-0.79,0-1.19-0.4-1.19-1.19v-2.7c0-7.2-3.49-10.8-10.48-10.8H785.5c-6.91,0-10.37,3.67-10.37,11.02v5.4
			c0,4.97,4.43,8.32,13.28,10.04c3.67,0.72,7.36,1.55,11.07,2.48c3.71,0.94,6.86,2.63,9.45,5.08c2.59,2.45,3.89,5.76,3.89,9.94v5.29
			c0,4.75-1.37,8.5-4.1,11.23c-2.74,2.74-6.44,4.1-11.12,4.1h-12.74c-4.68,0-8.39-1.37-11.12-4.1
			C770.99,455.68,769.62,451.94,769.62,447.19z"/>
		<path class="st0" d="M834.96,462.52h-3.13c-0.72,0-1.08-0.43-1.08-1.3v-66.85c0-0.86,0.36-1.3,1.08-1.3h24.84
			c4.68,0,8.39,1.37,11.12,4.1c2.74,2.74,4.1,6.48,4.1,11.23v12.64c0,4.75-1.37,8.5-4.1,11.23c-2.74,2.74-6.44,4.1-11.12,4.1h-19.44
			c-0.72,0-1.08,0.29-1.08,0.86v23.98C836.15,462.09,835.75,462.52,834.96,462.52z M837.23,431.42h19.01c3.31,0,5.83-0.92,7.56-2.75
			c1.73-1.84,2.59-4.45,2.59-7.83v-12.2c0-3.46-0.86-6.1-2.59-7.94s-4.25-2.75-7.56-2.75h-19.01c-0.72,0-1.08,0.32-1.08,0.97v31.64
			C836.15,431.13,836.51,431.42,837.23,431.42z"/>
		<path class="st0" d="M921.79,462.52h-33.37c-0.72,0-1.08-0.43-1.08-1.3v-66.85c0-0.86,0.36-1.3,1.08-1.3h33.37
			c0.86,0,1.3,0.4,1.3,1.19v2.48c0,0.79-0.43,1.19-1.3,1.19h-27.97c-0.72,0-1.08,0.32-1.08,0.97v24.84c0,0.65,0.36,0.97,1.08,0.97
			h24.95c0.79,0,1.19,0.4,1.19,1.19v2.48c0,0.79-0.4,1.19-1.19,1.19h-24.95c-0.72,0-1.08,0.32-1.08,0.97v26.14
			c0,0.65,0.36,0.97,1.08,0.97h27.97c0.86,0,1.3,0.4,1.3,1.19v2.48C923.09,462.13,922.65,462.52,921.79,462.52z"/>
		<path class="st0" d="M943.5,462.52h-3.13c-0.72,0-1.08-0.43-1.08-1.3v-66.85c0-0.86,0.36-1.3,1.08-1.3h2.92
			c0.65,0,1.08,0.22,1.3,0.65l33.16,57.02h0.43v-56.38c0-0.86,0.39-1.3,1.19-1.3h3.02c0.79,0,1.19,0.43,1.19,1.3v66.85
			c0,0.86-0.4,1.3-1.19,1.3h-2.48c-0.65,0-1.23-0.4-1.73-1.19l-33.05-56.59h-0.43v56.48C944.68,462.09,944.29,462.52,943.5,462.52z"
			/>
		<path class="st0" d="M1029.46,462.52h-13.61c-4.68,0-8.37-1.37-11.07-4.1c-2.7-2.74-4.05-6.48-4.05-11.23v-38.77
			c0-4.75,1.35-8.5,4.05-11.23c2.7-2.74,6.39-4.1,11.07-4.1h13.61c4.68,0,8.37,1.37,11.07,4.1c2.7,2.74,4.05,6.48,4.05,11.23v5.29
			c0,0.86-0.4,1.3-1.19,1.3h-3.02c-0.79,0-1.19-0.43-1.19-1.3v-5.08c0-3.46-0.88-6.1-2.65-7.94c-1.77-1.84-4.3-2.75-7.61-2.75
			h-12.64c-3.31,0-5.83,0.94-7.56,2.81c-1.73,1.87-2.59,4.5-2.59,7.88v38.34c0,3.39,0.86,6.01,2.59,7.88
			c1.73,1.87,4.25,2.81,7.56,2.81h12.64c3.31,0,5.85-0.92,7.61-2.75c1.76-1.84,2.65-4.48,2.65-7.94v-5.08c0-0.86,0.39-1.3,1.19-1.3
			h3.02c0.79,0,1.19,0.43,1.19,1.3v5.29c0,4.75-1.35,8.5-4.05,11.23C1037.83,461.16,1034.14,462.52,1029.46,462.52z"/>
		<path class="st0" d="M1094.8,462.52h-33.37c-0.72,0-1.08-0.43-1.08-1.3v-66.85c0-0.86,0.36-1.3,1.08-1.3h33.37
			c0.86,0,1.3,0.4,1.3,1.19v2.48c0,0.79-0.43,1.19-1.3,1.19h-27.97c-0.72,0-1.08,0.32-1.08,0.97v24.84c0,0.65,0.36,0.97,1.08,0.97
			h24.95c0.79,0,1.19,0.4,1.19,1.19v2.48c0,0.79-0.4,1.19-1.19,1.19h-24.95c-0.72,0-1.08,0.32-1.08,0.97v26.14
			c0,0.65,0.36,0.97,1.08,0.97h27.97c0.86,0,1.3,0.4,1.3,1.19v2.48C1096.1,462.13,1095.67,462.52,1094.8,462.52z"/>
		<path class="st0" d="M1116.51,462.52h-3.13c-0.72,0-1.08-0.43-1.08-1.3v-66.85c0-0.86,0.36-1.3,1.08-1.3H1138
			c4.68,0,8.39,1.37,11.12,4.1c2.74,2.74,4.1,6.48,4.1,11.23v10.26c0,4.03-1.03,7.34-3.08,9.94c-2.05,2.59-4.84,4.25-8.37,4.97v0.43
			l12.85,27.22c0.43,0.86,0.18,1.3-0.76,1.3h-3.35c-0.94,0-1.58-0.43-1.94-1.3l-12.74-27.22h-17.06c-0.72,0-1.08,0.32-1.08,0.97
			v26.24C1117.7,462.09,1117.3,462.52,1116.51,462.52z M1118.78,429.37h18.68c3.31,0,5.87-0.92,7.67-2.75
			c1.8-1.84,2.7-4.44,2.7-7.83v-10.15c0-3.38-0.9-6.01-2.7-7.88c-1.8-1.87-4.36-2.81-7.67-2.81h-18.68c-0.72,0-1.08,0.32-1.08,0.97
			v29.48C1117.7,429.04,1118.06,429.37,1118.78,429.37z"/>
		<path class="st0" d="M1174.18,462.52h-3.13c-0.72,0-1.08-0.43-1.08-1.3v-66.85c0-0.86,0.36-1.3,1.08-1.3h3.13
			c0.79,0,1.19,0.43,1.19,1.3v29.48c0,0.65,0.36,0.97,1.08,0.97h30.24c0.72,0,1.08-0.32,1.08-0.97v-29.48c0-0.86,0.36-1.3,1.08-1.3
			h3.13c0.79,0,1.19,0.43,1.19,1.3v66.85c0,0.86-0.4,1.3-1.19,1.3h-3.13c-0.72,0-1.08-0.43-1.08-1.3v-30.56
			c0-0.65-0.36-0.97-1.08-0.97h-30.24c-0.72,0-1.08,0.32-1.08,0.97v30.56C1175.37,462.09,1174.97,462.52,1174.18,462.52z"/>
		<path class="st0" d="M1229.69,462.52h-3.35c-0.79,0-1.04-0.43-0.76-1.3l21.49-66.85c0.22-0.86,0.72-1.3,1.51-1.3h5.08
			c0.72,0,1.22,0.43,1.51,1.3l21.49,66.85c0.22,0.86-0.04,1.3-0.76,1.3h-3.46c-0.72,0-1.19-0.43-1.4-1.3l-5.83-17.28h-28.3
			l-5.83,17.28C1230.81,462.09,1230.34,462.52,1229.69,462.52z M1250.86,399.02l-12.42,40.07h25.38l-12.53-40.07H1250.86z"/>
		<path class="st0" d="M1293.3,462.52h-3.13c-0.72,0-1.08-0.43-1.08-1.3v-66.85c0-0.86,0.36-1.3,1.08-1.3h24.62
			c4.68,0,8.39,1.37,11.12,4.1c2.74,2.74,4.1,6.48,4.1,11.23v10.26c0,4.03-1.03,7.34-3.08,9.94c-2.05,2.59-4.84,4.25-8.37,4.97v0.43
			l12.85,27.22c0.43,0.86,0.18,1.3-0.76,1.3h-3.35c-0.94,0-1.58-0.43-1.94-1.3l-12.74-27.22h-17.06c-0.72,0-1.08,0.32-1.08,0.97
			v26.24C1294.49,462.09,1294.09,462.52,1293.3,462.52z M1295.57,429.37h18.68c3.31,0,5.87-0.92,7.67-2.75
			c1.8-1.84,2.7-4.44,2.7-7.83v-10.15c0-3.38-0.9-6.01-2.7-7.88c-1.8-1.87-4.36-2.81-7.67-2.81h-18.68c-0.72,0-1.08,0.32-1.08,0.97
			v29.48C1294.49,429.04,1294.85,429.37,1295.57,429.37z"/>
		<path class="st0" d="M1361.88,462.52h-3.13c-0.79,0-1.19-0.43-1.19-1.3v-62.32c0-0.65-0.36-0.97-1.08-0.97h-15.66
			c-0.86,0-1.3-0.4-1.3-1.19v-2.48c0-0.79,0.43-1.19,1.3-1.19h38.88c0.86,0,1.3,0.4,1.3,1.19v2.48c0,0.79-0.43,1.19-1.3,1.19h-15.66
			c-0.72,0-1.08,0.32-1.08,0.97v62.32C1362.96,462.09,1362.6,462.52,1361.88,462.52z"/>
		<path class="st0" d="M1427.55,462.52h-34.34c-0.72,0-1.08-0.43-1.08-1.3v-66.85c0-0.86,0.36-1.3,1.08-1.3h3.13
			c0.79,0,1.19,0.43,1.19,1.3v62.1c0,0.65,0.36,0.97,1.08,0.97h28.94c0.86,0,1.3,0.4,1.3,1.19v2.7
			C1428.84,462.13,1428.41,462.52,1427.55,462.52z"/>
		<path class="st0" d="M1438.99,462.52h-3.35c-0.79,0-1.04-0.43-0.76-1.3l21.49-66.85c0.22-0.86,0.72-1.3,1.51-1.3h5.08
			c0.72,0,1.22,0.43,1.51,1.3l21.49,66.85c0.22,0.86-0.04,1.3-0.76,1.3h-3.46c-0.72,0-1.19-0.43-1.4-1.3l-5.83-17.28h-28.3
			l-5.83,17.28C1440.11,462.09,1439.64,462.52,1438.99,462.52z M1460.16,399.02l-12.42,40.07h25.38l-12.53-40.07H1460.16z"/>
		<path class="st0" d="M1502.6,462.52h-3.13c-0.72,0-1.08-0.43-1.08-1.3v-66.85c0-0.86,0.36-1.3,1.08-1.3h2.92
			c0.65,0,1.08,0.22,1.3,0.65l33.16,57.02h0.43v-56.38c0-0.86,0.4-1.3,1.19-1.3h3.02c0.79,0,1.19,0.43,1.19,1.3v66.85
			c0,0.86-0.4,1.3-1.19,1.3H1539c-0.65,0-1.23-0.4-1.73-1.19l-33.05-56.59h-0.43v56.48C1503.79,462.09,1503.4,462.52,1502.6,462.52z
			"/>
		<path class="st0" d="M1560.92,461.23v-66.85c0-0.86,0.36-1.3,1.08-1.3h26.68c4.68,0,8.37,1.37,11.07,4.1
			c2.7,2.74,4.05,6.48,4.05,11.23v38.77c0,4.75-1.35,8.5-4.05,11.23c-2.7,2.74-6.39,4.1-11.07,4.1H1562
			C1561.28,462.52,1560.92,462.09,1560.92,461.23z M1567.4,457.66h20.74c3.31,0,5.85-0.92,7.61-2.75c1.76-1.84,2.65-4.48,2.65-7.94
			v-38.34c0-3.46-0.88-6.1-2.65-7.94c-1.76-1.84-4.3-2.75-7.61-2.75h-20.74c-0.72,0-1.08,0.32-1.08,0.97v57.78
			C1566.32,457.34,1566.68,457.66,1567.4,457.66z"/>
		<path class="st0" d="M1667.52,468.79h-19.66c-7.27,0-13.59-2.43-18.95-7.29c-5.36-4.86-8.05-11.47-8.05-19.82v-17.06
			c0-8.28,2.65-14.89,7.94-19.82c5.29-4.93,11.54-7.4,18.74-7.4h20.95c4.82,0,8.69,1.44,11.61,4.32c2.92,2.88,4.37,6.7,4.37,11.45
			v25.81c0,4.39-1.33,7.92-4,10.58c-2.66,2.66-6.16,4-10.48,4h-3.24c-1.08,0-2-0.34-2.75-1.03c-0.76-0.68-1.13-1.57-1.13-2.65v-2.16
			h-0.43c-1.94,3.74-5.8,5.62-11.56,5.62c-4.39,0-7.9-1.35-10.53-4.05c-2.63-2.7-3.94-6.39-3.94-11.07v-10.04
			c0-4.75,1.33-8.49,4-11.23c2.66-2.74,6.26-4.1,10.8-4.1h15.34c0.79,0,1.19,0.43,1.19,1.3v34.34c0,0.65,0.4,0.97,1.19,0.97h0.97
			c3.31,0,5.87-0.93,7.67-2.81c1.8-1.87,2.7-4.54,2.7-7.99v-25.27c0-3.74-1.06-6.68-3.19-8.8c-2.12-2.12-5.02-3.19-8.69-3.19h-20.84
			c-6.19,0-11.49,2.14-15.88,6.43c-4.39,4.28-6.59,9.92-6.59,16.9v16.74c0,6.98,2.21,12.62,6.64,16.9
			c4.43,4.28,9.77,6.43,16.04,6.43h19.76c0.79,0,1.19,0.36,1.19,1.08v1.73C1668.71,468.39,1668.31,468.79,1667.52,468.79z
			 M1662.87,438.22v-19.87c0-0.65-0.36-0.97-1.08-0.97h-10.15c-3.31,0-5.83,0.92-7.56,2.75s-2.59,4.48-2.59,7.94v10.15
			c0,3.46,0.86,6.1,2.59,7.94c1.73,1.84,4.25,2.75,7.56,2.75h0.11c3.46,0,6.17-0.94,8.15-2.81
			C1661.88,444.24,1662.87,441.61,1662.87,438.22z"/>
		<path class="st0" d="M1700.57,462.52h-3.35c-0.79,0-1.04-0.43-0.76-1.3l21.49-66.85c0.22-0.86,0.72-1.3,1.51-1.3h5.08
			c0.72,0,1.22,0.43,1.51,1.3l21.49,66.85c0.22,0.86-0.04,1.3-0.76,1.3h-3.46c-0.72,0-1.19-0.43-1.4-1.3l-5.83-17.28h-28.3
			l-5.83,17.28C1701.68,462.09,1701.21,462.52,1700.57,462.52z M1721.73,399.02l-12.42,40.07h25.38l-12.53-40.07H1721.73z"/>
		<path class="st0" d="M1764.18,462.52h-3.13c-0.72,0-1.08-0.43-1.08-1.3v-66.85c0-0.86,0.36-1.3,1.08-1.3h24.84
			c4.68,0,8.39,1.37,11.12,4.1c2.74,2.74,4.1,6.48,4.1,11.23v12.64c0,4.75-1.37,8.5-4.1,11.23c-2.74,2.74-6.44,4.1-11.12,4.1h-19.44
			c-0.72,0-1.08,0.29-1.08,0.86v23.98C1765.36,462.09,1764.97,462.52,1764.18,462.52z M1766.45,431.42h19.01
			c3.31,0,5.83-0.92,7.56-2.75c1.73-1.84,2.59-4.45,2.59-7.83v-12.2c0-3.46-0.86-6.1-2.59-7.94s-4.25-2.75-7.56-2.75h-19.01
			c-0.72,0-1.08,0.32-1.08,0.97v31.64C1765.36,431.13,1765.72,431.42,1766.45,431.42z"/>
		<path class="st0" d="M1820.77,462.52h-3.13c-0.72,0-1.08-0.43-1.08-1.3v-66.85c0-0.86,0.36-1.3,1.08-1.3h24.84
			c4.68,0,8.39,1.37,11.12,4.1c2.74,2.74,4.1,6.48,4.1,11.23v12.64c0,4.75-1.37,8.5-4.1,11.23c-2.74,2.74-6.44,4.1-11.12,4.1h-19.44
			c-0.72,0-1.08,0.29-1.08,0.86v23.98C1821.96,462.09,1821.56,462.52,1820.77,462.52z M1823.04,431.42h19.01
			c3.31,0,5.83-0.92,7.56-2.75c1.73-1.84,2.59-4.45,2.59-7.83v-12.2c0-3.46-0.86-6.1-2.59-7.94s-4.25-2.75-7.56-2.75h-19.01
			c-0.72,0-1.08,0.32-1.08,0.97v31.64C1821.96,431.13,1822.31,431.42,1823.04,431.42z"/>
		<path class="st0" d="M1908.57,462.52h-34.34c-0.72,0-1.08-0.43-1.08-1.3v-66.85c0-0.86,0.36-1.3,1.08-1.3h3.13
			c0.79,0,1.19,0.43,1.19,1.3v62.1c0,0.65,0.36,0.97,1.08,0.97h28.94c0.86,0,1.3,0.4,1.3,1.19v2.7
			C1909.87,462.13,1909.43,462.52,1908.57,462.52z"/>
		<path class="st0" d="M1956.3,462.52h-33.37c-0.72,0-1.08-0.43-1.08-1.3v-66.85c0-0.86,0.36-1.3,1.08-1.3h33.37
			c0.86,0,1.3,0.4,1.3,1.19v2.48c0,0.79-0.43,1.19-1.3,1.19h-27.97c-0.72,0-1.08,0.32-1.08,0.97v24.84c0,0.65,0.36,0.97,1.08,0.97
			h24.95c0.79,0,1.19,0.4,1.19,1.19v2.48c0,0.79-0.4,1.19-1.19,1.19h-24.95c-0.72,0-1.08,0.32-1.08,0.97v26.14
			c0,0.65,0.36,0.97,1.08,0.97h27.97c0.86,0,1.3,0.4,1.3,1.19v2.48C1957.6,462.13,1957.17,462.52,1956.3,462.52z"/>
		<path class="st0" d="M1977.9,448.38v12.85c0,0.86-0.36,1.3-1.08,1.3h-3.78c-0.79,0-1.19-0.43-1.19-1.3v-12.85
			c0-0.79,0.4-1.19,1.19-1.19h3.78C1977.54,447.19,1977.9,447.58,1977.9,448.38z"/>
		<path class="st0" d="M2022.08,462.52h-13.61c-4.68,0-8.37-1.37-11.07-4.1c-2.7-2.74-4.05-6.48-4.05-11.23v-38.77
			c0-4.75,1.35-8.5,4.05-11.23c2.7-2.74,6.39-4.1,11.07-4.1h13.61c4.68,0,8.37,1.37,11.07,4.1c2.7,2.74,4.05,6.48,4.05,11.23v5.29
			c0,0.86-0.4,1.3-1.19,1.3h-3.02c-0.79,0-1.19-0.43-1.19-1.3v-5.08c0-3.46-0.88-6.1-2.65-7.94c-1.77-1.84-4.3-2.75-7.61-2.75
			h-12.64c-3.31,0-5.83,0.94-7.56,2.81c-1.73,1.87-2.59,4.5-2.59,7.88v38.34c0,3.39,0.86,6.01,2.59,7.88
			c1.73,1.87,4.25,2.81,7.56,2.81h12.64c3.31,0,5.85-0.92,7.61-2.75c1.76-1.84,2.65-4.48,2.65-7.94v-5.08c0-0.86,0.4-1.3,1.19-1.3
			h3.02c0.79,0,1.19,0.43,1.19,1.3v5.29c0,4.75-1.35,8.5-4.05,11.23C2030.45,461.16,2026.75,462.52,2022.08,462.52z"/>
		<path class="st0" d="M2080.29,462.52H2067c-4.68,0-8.37-1.37-11.07-4.1c-2.7-2.74-4.05-6.48-4.05-11.23v-38.77
			c0-4.75,1.35-8.5,4.05-11.23c2.7-2.74,6.39-4.1,11.07-4.1h13.28c4.68,0,8.37,1.37,11.07,4.1c2.7,2.74,4.05,6.48,4.05,11.23v38.77
			c0,4.75-1.35,8.5-4.05,11.23C2088.66,461.16,2084.97,462.52,2080.29,462.52z M2067.43,457.66h12.31c3.31,0,5.85-0.92,7.61-2.75
			c1.76-1.84,2.65-4.48,2.65-7.94v-38.34c0-3.46-0.88-6.1-2.65-7.94c-1.77-1.84-4.3-2.75-7.61-2.75h-12.31
			c-3.31,0-5.83,0.94-7.56,2.81c-1.73,1.87-2.59,4.5-2.59,7.88v38.34c0,3.39,0.86,6.01,2.59,7.88
			C2061.6,456.73,2064.12,457.66,2067.43,457.66z"/>
		<path class="st0" d="M2162.58,393.08h5.83c0.72,0,1.08,0.43,1.08,1.3v66.85c0,0.86-0.36,1.3-1.08,1.3h-3.13
			c-0.79,0-1.19-0.43-1.19-1.3V401.4h-0.43l-19.12,44.82c-0.43,0.79-0.97,1.19-1.62,1.19h-3.56c-0.72,0-1.23-0.4-1.51-1.19
			l-19.44-44.93h-0.43v59.94c0,0.86-0.36,1.3-1.08,1.3h-3.13c-0.72,0-1.08-0.43-1.08-1.3v-66.85c0-0.86,0.36-1.3,1.08-1.3h5.83
			c0.5,0,0.83,0.22,0.97,0.65l20.3,47.41h0.43l20.3-47.41C2161.75,393.3,2162.08,393.08,2162.58,393.08z"/>
	</g>
	<g>
		<g>
			<path class="st0" d="M125.26,94.58v540.84H666.1V94.58H125.26z M550.58,255.69l-154.9,97.3l-154.9-97.3H550.58z M578.21,485
				H213.15V273.05L395.68,387.7l182.53-114.65V485z"/>
		</g>
	</g>
</g>
</svg>
