<?xml version="1.0" encoding="utf-8"?>
<!-- Generator: Adobe Adobe Illustrator 24.2.0, SVG Export Plug-In . SVG Version: 6.00 Build 0)  -->
<svg version="1.1" xmlns="http://www.w3.org/2000/svg" xmlns:xlink="http://www.w3.org/1999/xlink" x="0px" y="0px"
	 viewBox="0 0 2400 730" style="enable-background:new 0 0 2400 730;" xml:space="preserve">
<style type="text/css">
	.st0{fill:#FFFFFF;}
	.st1{fill:#8CC63F;}
	.st2{fill:#29ABE2;}
</style>
<g id="Layer_3">
</g>
<g id="Layer_16">
</g>
<g id="Layer_2">
</g>
<g id="Layer_2_copy">
</g>
<g id="Layer_2_copy_2">
</g>
<g id="Layer_2_copy_3">
</g>
<g id="Layer_2_copy_4">
</g>
<g id="Layer_2_copy_5">
</g>
<g id="Layer_2_copy_6">
</g>
<g id="Layer_2_copy_7">
</g>
<g id="Layer_2_copy_8">
</g>
<g id="Layer_2_copy_9">
</g>
<g id="Layer_2_copy_10">
</g>
<g id="Layer_2_copy_11">
</g>
<g id="Layer_2_copy_12">
</g>
<g id="Layer_2_copy_13">
	<g>
		<g>
			<path class="st0" d="M2388.1,80.53v442.05l-173.87,143.95H102.1V80.53H2388.1 M2400.1,68.53H90.1v610.01h2128.45l181.55-150.31
				V68.53L2400.1,68.53z"/>
		</g>
	</g>
	<polygon class="st0" points="-0.1,678.53 -0.1,567.08 25.57,567.08 25.57,426.95 -0.1,426.95 -0.1,68.53 71.9,68.53 71.9,678.53 	
		"/>
	<g>
		<path class="st0" d="M461.41,230.38h13.36c2.54,0,3.82,1.13,3.82,3.39v100.06c0,10.32-2.93,18.37-8.8,24.17
			c-5.87,5.8-13.96,8.69-24.27,8.69h-23.53c-10.32,0-18.37-2.9-24.17-8.69c-5.8-5.79-8.69-13.85-8.69-24.17v-99.85
			c0-2.4,1.2-3.6,3.6-3.6h13.36c2.4,0,3.6,1.2,3.6,3.6v99c0,10.46,5.09,15.69,15.26,15.69h17.38c10.32,0,15.48-5.23,15.48-15.69v-99
			C457.81,231.58,459.01,230.38,461.41,230.38z"/>
		<path class="st0" d="M563.6,366.7H539c-10.46,0-18.55-2.9-24.27-8.69c-5.72-5.79-8.59-13.85-8.59-24.17v-70.6
			c0-10.46,2.86-18.55,8.59-24.27c5.72-5.72,13.81-8.59,24.27-8.59h24.59c10.31,0,18.37,2.86,24.17,8.59
			c5.79,5.72,8.69,13.82,8.69,24.27v10.18c0,2.54-1.27,3.82-3.82,3.82h-13.36c-2.41,0-3.6-1.27-3.6-3.82v-9.33
			c0-10.46-5.09-15.69-15.26-15.69h-18.44c-10.18,0-15.26,5.23-15.26,15.69v68.9c0,10.46,5.09,15.69,15.26,15.69h18.44
			c10.18,0,15.26-5.23,15.26-15.69v-9.33c0-2.54,1.2-3.82,3.6-3.82h13.36c2.54,0,3.82,1.27,3.82,3.82v10.18
			c0,10.32-2.9,18.37-8.69,24.17C581.97,363.8,573.91,366.7,563.6,366.7z"/>
		<path class="st0" d="M670.65,333.62v-5.51c0-2.4,1.2-3.6,3.6-3.6h13.57c2.4,0,3.6,1.2,3.6,3.6v3.82c0,5.94,1.31,10.21,3.92,12.83
			c2.61,2.62,6.96,3.92,13.04,3.92h14.63c6.08,0,10.46-1.38,13.14-4.13c2.68-2.76,4.03-7.24,4.03-13.46v-4.88
			c0-4.52-1.73-8.09-5.19-10.71c-3.46-2.61-7.74-4.31-12.83-5.09c-5.09-0.78-10.67-1.87-16.75-3.29
			c-6.08-1.41-11.66-3.04-16.75-4.88c-5.09-1.84-9.36-5.3-12.83-10.39c-3.46-5.09-5.19-11.59-5.19-19.5v-8.9
			c0-10.32,2.93-18.41,8.8-24.27c5.86-5.86,13.96-8.8,24.27-8.8h22.47c10.46,0,18.62,2.93,24.49,8.8c5.86,5.87,8.8,13.96,8.8,24.27
			v4.66c0,2.41-1.2,3.6-3.6,3.6h-13.57c-2.4,0-3.6-1.2-3.6-3.6v-2.76c0-6.08-1.31-10.42-3.92-13.04c-2.62-2.61-6.96-3.92-13.04-3.92
			h-13.36c-6.08,0-10.42,1.38-13.04,4.13c-2.62,2.76-3.92,7.46-3.92,14.1v6.57c0,6.36,4.59,10.67,13.78,12.93
			c4.1,0.99,8.59,1.84,13.46,2.54c4.88,0.71,9.79,1.77,14.73,3.18c4.95,1.41,9.47,3.29,13.57,5.62c4.1,2.33,7.42,5.87,9.96,10.6
			c2.54,4.74,3.82,10.49,3.82,17.28v8.27c0,10.32-2.93,18.41-8.8,24.27c-5.87,5.87-13.96,8.8-24.27,8.8h-23.74
			c-10.32,0-18.44-2.93-24.38-8.8C673.62,352.03,670.65,343.94,670.65,333.62z"/>
		<path class="st0" d="M796.79,366.7h-15.26c-1.98,0-2.69-1.2-2.12-3.6l36.89-129.11c0.71-2.4,2.4-3.6,5.09-3.6h21.2
			c2.83,0,4.52,1.2,5.09,3.6l36.89,129.11c0.56,2.4-0.21,3.6-2.33,3.6h-15.05c-1.27,0-2.16-0.25-2.65-0.74
			c-0.5-0.49-0.88-1.45-1.17-2.86l-8.06-27.56h-46.64l-8.06,27.56C800.04,365.5,798.77,366.7,796.79,366.7z M831.56,250.73
			l-18.66,67.84h38.37l-18.87-67.84H831.56z"/>
		<path class="st0" d="M922.29,366.7h-13.14c-2.41,0-3.6-1.2-3.6-3.6V233.98c0-2.4,1.2-3.6,3.6-3.6h11.87
			c2.26,0,3.82,0.78,4.66,2.33l51.3,92.22h0.85v-90.95c0-2.4,1.2-3.6,3.6-3.6h13.14c2.4,0,3.6,1.2,3.6,3.6v129.11
			c0,2.4-1.2,3.6-3.6,3.6h-11.45c-2.26,0-4.1-1.13-5.51-3.39l-50.88-91.16h-0.85v90.95C925.9,365.5,924.69,366.7,922.29,366.7z"/>
		<path class="st0" d="M1079.59,363.09V233.98c0-2.4,1.2-3.6,3.6-3.6h52.15c10.31,0,18.41,2.86,24.27,8.59
			c5.86,5.72,8.8,13.82,8.8,24.27v70.6c0,10.32-2.94,18.37-8.8,24.17c-5.87,5.8-13.96,8.69-24.27,8.69h-52.15
			C1080.79,366.7,1079.59,365.5,1079.59,363.09z M1102.49,348.68h29.89c10.18,0,15.26-5.23,15.26-15.69v-68.9
			c0-10.46-5.09-15.69-15.26-15.69h-29.89c-1.56,0-2.33,0.71-2.33,2.12v95.82C1100.16,347.9,1100.93,348.68,1102.49,348.68z"/>
		<path class="st0" d="M1218.88,233.98v129.11c0,2.4-1.2,3.6-3.6,3.6h-13.36c-2.4,0-3.6-1.2-3.6-3.6V233.98c0-2.4,1.2-3.6,3.6-3.6
			h13.36C1217.67,230.38,1218.88,231.58,1218.88,233.98z"/>
		<path class="st0" d="M1322.33,366.7h-67.84c-2.41,0-3.6-1.2-3.6-3.6V233.98c0-2.4,1.2-3.6,3.6-3.6h67.84c2.26,0,3.39,1.2,3.39,3.6
			v10.81c0,2.4-1.13,3.6-3.39,3.6h-48.34c-1.7,0-2.54,0.71-2.54,2.12v35.83c0,1.41,0.85,2.12,2.54,2.12h40.92
			c2.54,0,3.82,1.2,3.82,3.6v10.81c0,2.4-1.27,3.6-3.82,3.6h-40.92c-1.7,0-2.54,0.71-2.54,2.12v37.74c0,1.56,0.85,2.33,2.54,2.33
			h48.34c2.26,0,3.39,1.2,3.39,3.6v10.81C1325.72,365.5,1324.59,366.7,1322.33,366.7z"/>
		<path class="st0" d="M1406.07,366.7h-22.68c-10.46,0-18.55-2.9-24.27-8.69c-5.72-5.79-8.59-13.85-8.59-24.17v-70.6
			c0-10.46,2.86-18.55,8.59-24.27c5.72-5.72,13.81-8.59,24.27-8.59h22.68c10.46,0,18.55,2.86,24.27,8.59
			c5.72,5.72,8.59,13.82,8.59,24.27v7.63c0,2.54-1.2,3.82-3.6,3.82h-13.36c-2.4,0-3.6-1.27-3.6-3.82v-6.78
			c0-10.46-5.09-15.69-15.26-15.69h-16.75c-10.18,0-15.26,5.23-15.26,15.69v68.9c0,10.46,5.09,15.69,15.26,15.69h16.75
			c10.18,0,15.26-5.23,15.26-15.69v-19.08c0-1.41-0.78-2.12-2.33-2.12h-17.17c-2.41,0-3.6-1.2-3.6-3.6v-10.81c0-2.4,1.2-3.6,3.6-3.6
			h35.62c2.97,0,4.45,1.48,4.45,4.45v35.62c0,10.32-2.9,18.37-8.69,24.17C1424.44,363.8,1416.38,366.7,1406.07,366.7z"/>
		<path class="st0" d="M1523.09,366.7h-24.59c-10.46,0-18.55-2.9-24.27-8.69c-5.72-5.79-8.59-13.85-8.59-24.17v-70.6
			c0-10.46,2.86-18.55,8.59-24.27c5.72-5.72,13.81-8.59,24.27-8.59h24.59c10.46,0,18.58,2.86,24.38,8.59
			c5.79,5.72,8.69,13.82,8.69,24.27v70.6c0,10.32-2.9,18.37-8.69,24.17C1541.68,363.8,1533.55,366.7,1523.09,366.7z M1501.47,348.68
			h18.44c10.32,0,15.48-5.23,15.48-15.69v-68.9c0-10.46-5.16-15.69-15.48-15.69h-18.44c-10.18,0-15.26,5.23-15.26,15.69v68.9
			C1486.2,343.45,1491.29,348.68,1501.47,348.68z"/>
	</g>
	<g>
		<path class="st0" d="M418.35,505.32h-16.13c-5.55,0-9.92-1.62-13.12-4.86c-3.2-3.24-4.8-7.68-4.8-13.31v-45.95
			c0-5.63,1.6-10.07,4.8-13.31c3.2-3.24,7.57-4.86,13.12-4.86h16.13c5.55,0,9.92,1.62,13.12,4.86c3.2,3.24,4.8,7.68,4.8,13.31v6.27
			c0,1.02-0.47,1.54-1.41,1.54h-3.58c-0.94,0-1.41-0.51-1.41-1.54v-6.02c0-4.1-1.05-7.23-3.14-9.41c-2.09-2.18-5.1-3.26-9.02-3.26
			h-14.98c-3.93,0-6.91,1.11-8.96,3.33c-2.05,2.22-3.07,5.33-3.07,9.34v45.44c0,4.01,1.02,7.13,3.07,9.34
			c2.05,2.22,5.03,3.33,8.96,3.33h14.98c3.92,0,6.93-1.09,9.02-3.26c2.09-2.18,3.14-5.31,3.14-9.41v-6.02
			c0-1.02,0.47-1.54,1.41-1.54h3.58c0.94,0,1.41,0.51,1.41,1.54v6.27c0,5.63-1.6,10.07-4.8,13.31
			C428.27,503.7,423.9,505.32,418.35,505.32z"/>
		<path class="st0" d="M487.35,505.32H471.6c-5.55,0-9.92-1.62-13.12-4.86c-3.2-3.24-4.8-7.68-4.8-13.31v-45.95
			c0-5.63,1.6-10.07,4.8-13.31c3.2-3.24,7.57-4.86,13.12-4.86h15.74c5.55,0,9.92,1.62,13.12,4.86c3.2,3.24,4.8,7.68,4.8,13.31v45.95
			c0,5.63-1.6,10.07-4.8,13.31C497.27,503.7,492.89,505.32,487.35,505.32z M472.11,499.56h14.59c3.92,0,6.93-1.09,9.02-3.26
			c2.09-2.18,3.14-5.31,3.14-9.41v-45.44c0-4.1-1.05-7.23-3.14-9.41c-2.09-2.18-5.1-3.26-9.02-3.26h-14.59
			c-3.93,0-6.91,1.11-8.96,3.33c-2.05,2.22-3.07,5.33-3.07,9.34v45.44c0,4.01,1.02,7.13,3.07,9.34
			C465.2,498.45,468.19,499.56,472.11,499.56z"/>
		<path class="st0" d="M584.88,423.02h6.91c0.85,0,1.28,0.51,1.28,1.54v79.23c0,1.02-0.43,1.54-1.28,1.54h-3.71
			c-0.94,0-1.41-0.51-1.41-1.54v-70.91h-0.51l-22.66,53.12c-0.51,0.94-1.15,1.41-1.92,1.41h-4.22c-0.85,0-1.45-0.47-1.79-1.41
			l-23.04-53.25h-0.51v71.04c0,1.02-0.43,1.54-1.28,1.54h-3.71c-0.85,0-1.28-0.51-1.28-1.54v-79.23c0-1.02,0.43-1.54,1.28-1.54h6.91
			c0.6,0,0.98,0.26,1.15,0.77l24.06,56.19h0.51l24.06-56.19C583.9,423.27,584.28,423.02,584.88,423.02z"/>
		<path class="st0" d="M619.82,505.32h-3.71c-0.85,0-1.28-0.51-1.28-1.54v-79.23c0-1.02,0.43-1.54,1.28-1.54h29.44
			c5.55,0,9.94,1.62,13.18,4.86c3.24,3.24,4.86,7.68,4.86,13.31v14.98c0,5.63-1.62,10.07-4.86,13.31
			c-3.24,3.24-7.64,4.86-13.18,4.86h-23.04c-0.85,0-1.28,0.34-1.28,1.02v28.42C621.23,504.81,620.76,505.32,619.82,505.32z
			 M622.51,468.46h22.53c3.92,0,6.91-1.09,8.96-3.26c2.05-2.18,3.07-5.27,3.07-9.28v-14.46c0-4.1-1.02-7.23-3.07-9.41
			c-2.05-2.18-5.04-3.26-8.96-3.26h-22.53c-0.85,0-1.28,0.38-1.28,1.15v37.5C621.23,468.12,621.66,468.46,622.51,468.46z"/>
		<path class="st0" d="M726.45,423.02h3.58c0.94,0,1.41,0.47,1.41,1.41v62.72c0,5.63-1.6,10.07-4.8,13.31
			c-3.2,3.24-7.57,4.86-13.12,4.86h-14.34c-5.55,0-9.92-1.62-13.12-4.86c-3.2-3.24-4.8-7.68-4.8-13.31v-62.59
			c0-1.02,0.43-1.54,1.28-1.54h3.71c0.94,0,1.41,0.51,1.41,1.54v62.34c0,4.01,1.02,7.13,3.07,9.34c2.05,2.22,5.03,3.33,8.96,3.33
			h13.18c3.92,0,6.93-1.09,9.02-3.26c2.09-2.18,3.14-5.31,3.14-9.41v-62.34C725.04,423.53,725.51,423.02,726.45,423.02z"/>
		<path class="st0" d="M770.48,505.32h-3.71c-0.94,0-1.41-0.51-1.41-1.54v-73.86c0-0.77-0.43-1.15-1.28-1.15h-18.56
			c-1.02,0-1.54-0.47-1.54-1.41v-2.94c0-0.94,0.51-1.41,1.54-1.41h46.08c1.02,0,1.54,0.47,1.54,1.41v2.94
			c0,0.94-0.51,1.41-1.54,1.41h-18.56c-0.85,0-1.28,0.38-1.28,1.15v73.86C771.76,504.81,771.33,505.32,770.48,505.32z"/>
		<path class="st0" d="M847.15,505.32H807.6c-0.85,0-1.28-0.51-1.28-1.54v-79.23c0-1.02,0.43-1.54,1.28-1.54h39.55
			c1.02,0,1.54,0.47,1.54,1.41v2.94c0,0.94-0.51,1.41-1.54,1.41H814c-0.85,0-1.28,0.38-1.28,1.15v29.44c0,0.77,0.43,1.15,1.28,1.15
			h29.57c0.94,0,1.41,0.47,1.41,1.41v2.94c0,0.94-0.47,1.41-1.41,1.41H814c-0.85,0-1.28,0.38-1.28,1.15v30.98
			c0,0.77,0.43,1.15,1.28,1.15h33.15c1.02,0,1.54,0.47,1.54,1.41v2.94C848.68,504.85,848.17,505.32,847.15,505.32z"/>
		<path class="st0" d="M872.88,505.32h-3.71c-0.85,0-1.28-0.51-1.28-1.54v-79.23c0-1.02,0.43-1.54,1.28-1.54h29.18
			c5.55,0,9.94,1.62,13.18,4.86c3.24,3.24,4.86,7.68,4.86,13.31v12.16c0,4.78-1.22,8.7-3.65,11.78c-2.43,3.07-5.74,5.04-9.92,5.89
			v0.51l15.23,32.26c0.51,1.02,0.21,1.54-0.9,1.54h-3.97c-1.11,0-1.88-0.51-2.3-1.54l-15.1-32.26h-20.22
			c-0.85,0-1.28,0.38-1.28,1.15v31.1C874.28,504.81,873.81,505.32,872.88,505.32z M875.56,466.02h22.14c3.92,0,6.95-1.09,9.09-3.26
			c2.13-2.18,3.2-5.27,3.2-9.28v-12.03c0-4.01-1.07-7.12-3.2-9.34c-2.13-2.22-5.16-3.33-9.09-3.33h-22.14
			c-0.85,0-1.28,0.38-1.28,1.15v34.94C874.28,465.64,874.71,466.02,875.56,466.02z"/>
		<path class="st0" d="M969.9,487.14v-4.61c0-0.94,0.47-1.41,1.41-1.41h3.71c0.94,0,1.41,0.47,1.41,1.41v4.22
			c0,8.53,4.14,12.8,12.42,12.8h13.31c8.28,0,12.42-4.31,12.42-12.93v-5.38c0-3.75-1.54-6.7-4.61-8.83
			c-3.07-2.13-6.78-3.67-11.14-4.61c-4.35-0.94-8.73-1.92-13.12-2.94c-4.4-1.02-8.13-2.9-11.2-5.63c-3.07-2.73-4.61-6.4-4.61-11.01
			v-7.04c0-5.63,1.62-10.07,4.86-13.31c3.24-3.24,7.64-4.86,13.18-4.86h14.85c5.55,0,9.94,1.62,13.18,4.86
			c3.24,3.24,4.86,7.68,4.86,13.31v3.58c0,0.94-0.47,1.41-1.41,1.41h-3.71c-0.94,0-1.41-0.47-1.41-1.41v-3.2
			c0-8.53-4.14-12.8-12.42-12.8h-13.18c-8.19,0-12.29,4.35-12.29,13.06v6.4c0,5.89,5.25,9.86,15.74,11.9
			c4.35,0.85,8.72,1.84,13.12,2.94c4.39,1.11,8.13,3.12,11.2,6.02c3.07,2.9,4.61,6.83,4.61,11.78v6.27c0,5.63-1.62,10.07-4.86,13.31
			c-3.24,3.24-7.64,4.86-13.18,4.86h-15.1c-5.55,0-9.94-1.62-13.18-4.86C971.52,497.21,969.9,492.78,969.9,487.14z"/>
		<path class="st0" d="M1075.11,505.32h-16.13c-5.55,0-9.92-1.62-13.12-4.86c-3.2-3.24-4.8-7.68-4.8-13.31v-45.95
			c0-5.63,1.6-10.07,4.8-13.31c3.2-3.24,7.57-4.86,13.12-4.86h16.13c5.55,0,9.92,1.62,13.12,4.86c3.2,3.24,4.8,7.68,4.8,13.31v6.27
			c0,1.02-0.47,1.54-1.41,1.54h-3.58c-0.94,0-1.41-0.51-1.41-1.54v-6.02c0-4.1-1.05-7.23-3.14-9.41c-2.09-2.18-5.1-3.26-9.02-3.26
			h-14.98c-3.93,0-6.91,1.11-8.96,3.33c-2.05,2.22-3.07,5.33-3.07,9.34v45.44c0,4.01,1.02,7.13,3.07,9.34
			c2.05,2.22,5.03,3.33,8.96,3.33h14.98c3.92,0,6.93-1.09,9.02-3.26c2.09-2.18,3.14-5.31,3.14-9.41v-6.02
			c0-1.02,0.47-1.54,1.41-1.54h3.58c0.94,0,1.41,0.51,1.41,1.54v6.27c0,5.63-1.6,10.07-4.8,13.31
			C1085.03,503.7,1080.66,505.32,1075.11,505.32z"/>
		<path class="st0" d="M1118.76,424.55v79.23c0,1.02-0.47,1.54-1.41,1.54h-3.71c-0.85,0-1.28-0.51-1.28-1.54v-79.23
			c0-1.02,0.43-1.54,1.28-1.54h3.71C1118.29,423.02,1118.76,423.53,1118.76,424.55z"/>
		<path class="st0" d="M1181.99,505.32h-39.55c-0.85,0-1.28-0.51-1.28-1.54v-79.23c0-1.02,0.43-1.54,1.28-1.54h39.55
			c1.02,0,1.54,0.47,1.54,1.41v2.94c0,0.94-0.51,1.41-1.54,1.41h-33.15c-0.85,0-1.28,0.38-1.28,1.15v29.44
			c0,0.77,0.43,1.15,1.28,1.15h29.57c0.94,0,1.41,0.47,1.41,1.41v2.94c0,0.94-0.47,1.41-1.41,1.41h-29.57
			c-0.85,0-1.28,0.38-1.28,1.15v30.98c0,0.77,0.43,1.15,1.28,1.15h33.15c1.02,0,1.54,0.47,1.54,1.41v2.94
			C1183.53,504.85,1183.02,505.32,1181.99,505.32z"/>
		<path class="st0" d="M1207.72,505.32h-3.71c-0.85,0-1.28-0.51-1.28-1.54v-79.23c0-1.02,0.43-1.54,1.28-1.54h3.46
			c0.77,0,1.28,0.26,1.54,0.77l39.3,67.58h0.51v-66.82c0-1.02,0.47-1.54,1.41-1.54h3.58c0.94,0,1.41,0.51,1.41,1.54v79.23
			c0,1.02-0.47,1.54-1.41,1.54h-2.94c-0.77,0-1.45-0.47-2.05-1.41l-39.17-67.07h-0.51v66.94
			C1209.13,504.81,1208.66,505.32,1207.72,505.32z"/>
		<path class="st0" d="M1309.61,505.32h-16.13c-5.55,0-9.92-1.62-13.12-4.86c-3.2-3.24-4.8-7.68-4.8-13.31v-45.95
			c0-5.63,1.6-10.07,4.8-13.31c3.2-3.24,7.57-4.86,13.12-4.86h16.13c5.55,0,9.92,1.62,13.12,4.86c3.2,3.24,4.8,7.68,4.8,13.31v6.27
			c0,1.02-0.47,1.54-1.41,1.54h-3.58c-0.94,0-1.41-0.51-1.41-1.54v-6.02c0-4.1-1.05-7.23-3.14-9.41c-2.09-2.18-5.1-3.26-9.02-3.26
			h-14.98c-3.93,0-6.91,1.11-8.96,3.33c-2.05,2.22-3.07,5.33-3.07,9.34v45.44c0,4.01,1.02,7.13,3.07,9.34
			c2.05,2.22,5.03,3.33,8.96,3.33h14.98c3.92,0,6.93-1.09,9.02-3.26c2.09-2.18,3.14-5.31,3.14-9.41v-6.02
			c0-1.02,0.47-1.54,1.41-1.54h3.58c0.94,0,1.41,0.51,1.41,1.54v6.27c0,5.63-1.6,10.07-4.8,13.31
			C1319.53,503.7,1315.15,505.32,1309.61,505.32z"/>
		<path class="st0" d="M1387.05,505.32h-39.55c-0.85,0-1.28-0.51-1.28-1.54v-79.23c0-1.02,0.43-1.54,1.28-1.54h39.55
			c1.02,0,1.54,0.47,1.54,1.41v2.94c0,0.94-0.51,1.41-1.54,1.41h-33.15c-0.85,0-1.28,0.38-1.28,1.15v29.44
			c0,0.77,0.43,1.15,1.28,1.15h29.57c0.94,0,1.41,0.47,1.41,1.41v2.94c0,0.94-0.47,1.41-1.41,1.41h-29.57
			c-0.85,0-1.28,0.38-1.28,1.15v30.98c0,0.77,0.43,1.15,1.28,1.15h33.15c1.02,0,1.54,0.47,1.54,1.41v2.94
			C1388.58,504.85,1388.07,505.32,1387.05,505.32z"/>
	</g>
</g>
<g id="Layer_2_copy_14">
</g>
</svg>
