<?xml version="1.0" encoding="utf-8"?>
<!-- Generator: Adobe Adobe Illustrator 24.2.0, SVG Export Plug-In . SVG Version: 6.00 Build 0)  -->
<svg version="1.1" xmlns="http://www.w3.org/2000/svg" xmlns:xlink="http://www.w3.org/1999/xlink" x="0px" y="0px"
	 viewBox="0 0 2400 1080" style="enable-background:new 0 0 2400 1080;" xml:space="preserve">
<style type="text/css">
	.st0{display:none;}
	.st1{display:inline;}
	.st2{fill:#FFFFFF;}
</style>
<g id="Layer_2" class="st0">
	<rect class="st1" width="2400" height="1080"/>
</g>
<g id="Layer_1">
	<g>
		<g>
			<g>
				<g>
					<path class="st2" d="M465.5,520.71v-5.28c-4.39,1.01-8.75,1.93-13.06,2.77L465.5,520.71z"/>
					<path class="st2" d="M380.65,573.33c-0.31,0.08-0.64,0.08-0.95,0l-88.55-22.61v30.06c0,0,76.5,30.98,174.34,1.79v-31.46
						L380.65,573.33z"/>
					<path class="st2" d="M302.29,518.91c-7.19-1.4-11.13-2.47-11.13-2.47V521L302.29,518.91z"/>
				</g>
			</g>
		</g>
		<g>
			<g>
				<g>
					<path class="st2" d="M509.77,590.41c1.44,0,2.8,0.36,4,0.99v-53.56l-8,2.08v51.48C506.97,590.77,508.32,590.41,509.77,590.41z"
						/>
					<path class="st2" d="M509.77,607.68c-1.55,0-3-0.42-4.26-1.13l-3.61,11.12h15.75l-3.61-11.12
						C512.77,607.26,511.32,607.68,509.77,607.68z"/>
				</g>
			</g>
		</g>
		<circle class="st2" cx="509.77" cy="599.05" r="5.42"/>
		<path class="st2" d="M232.32,525.7l147.39,37.63c0.31,0.08,0.64,0.08,0.95,0l143.7-37.63c1.94-0.51,1.85-3.3-0.12-3.68
			l-143.7-27.65c-0.23-0.04-0.47-0.05-0.7,0l-147.39,27.65C230.45,522.39,230.36,525.2,232.32,525.7z"/>
	</g>
	<g>
		<g>
			<g>
				<path class="st2" d="M0,235v247.79L70,540v306.4l2330-1.4V235H0z M592.66,752.5h-425v-425h425V752.5z M839.42,466.85
					c0,3.26-1.54,4.89-4.6,4.89h-65.59c-2.3,0-3.45,0.96-3.45,2.88v48.62c0,1.92,1.15,2.88,3.45,2.88h55.52
					c3.45,0,5.18,1.63,5.18,4.89v14.67c0,3.26-1.73,4.89-5.18,4.89h-55.52c-2.3,0-3.45,0.96-3.45,2.88v51.21
					c0,2.11,1.15,3.16,3.45,3.16h65.59c3.07,0,4.6,1.63,4.6,4.89v14.67c0,3.26-1.54,4.89-4.6,4.89h-92.05
					c-3.26,0-4.89-1.63-4.89-4.89V452.18c0-3.26,1.63-4.89,4.89-4.89h92.05c3.07,0,4.6,1.63,4.6,4.89V466.85z M996.49,587.67
					c0,14-3.98,24.93-11.94,32.79c-7.96,7.87-18.94,11.79-32.94,11.79h-70.77c-3.26,0-4.89-1.63-4.89-4.89V452.18
					c0-3.26,1.63-4.89,4.89-4.89h70.77c14,0,24.98,3.88,32.94,11.65c7.96,7.77,11.94,18.75,11.94,32.94V587.67z M1155.57,587.67
					c0,14-3.98,24.93-11.94,32.79c-7.96,7.87-18.94,11.79-32.94,11.79h-31.93c-14,0-24.93-3.93-32.79-11.79
					c-7.87-7.86-11.79-18.79-11.79-32.79V452.18c0-3.26,1.63-4.89,4.89-4.89h18.12c3.26,0,4.89,1.63,4.89,4.89v134.34
					c0,14.19,6.9,21.29,20.71,21.29h23.59c14,0,21-7.09,21-21.29V452.18c0-3.26,1.63-4.89,4.89-4.89h18.12
					c3.45,0,5.18,1.54,5.18,4.6V587.67z M1315.51,505.69c0,3.45-1.73,5.18-5.18,5.18h-18.12c-3.26,0-4.89-1.73-4.89-5.18v-12.66
					c0-14.19-6.9-21.29-20.71-21.29h-25.03c-13.81,0-20.71,7.1-20.71,21.29v93.49c0,14.19,6.9,21.29,20.71,21.29h25.03
					c13.81,0,20.71-7.09,20.71-21.29v-12.66c0-3.45,1.63-5.18,4.89-5.18h18.12c3.45,0,5.18,1.73,5.18,5.18v13.81
					c0,14-3.93,24.93-11.79,32.79c-7.87,7.87-18.8,11.79-32.79,11.79h-33.37c-14.19,0-25.17-3.93-32.94-11.79
					c-7.77-7.86-11.65-18.79-11.65-32.79v-95.79c0-14.19,3.88-25.17,11.65-32.94c7.77-7.77,18.74-11.65,32.94-11.65h33.37
					c14,0,24.93,3.88,32.79,11.65c7.86,7.77,11.79,18.75,11.79,32.94V505.69z M1477.18,632.26h-20.42c-1.73,0-2.93-0.33-3.6-1.01
					c-0.67-0.67-1.2-1.96-1.58-3.88l-10.93-37.4h-63.29l-10.93,37.4c-0.77,3.26-2.49,4.89-5.18,4.89h-20.71
					c-2.69,0-3.65-1.63-2.88-4.89l50.05-175.19c0.96-3.26,3.26-4.89,6.9-4.89h28.77c3.83,0,6.14,1.63,6.9,4.89l50.05,175.19
					C1481.11,630.64,1480.06,632.26,1477.18,632.26z M1608.93,466.85c0,3.26-1.73,4.89-5.18,4.89h-36.25
					c-2.11,0-3.16,0.96-3.16,2.88v152.75c0,3.26-1.63,4.89-4.89,4.89h-18.12c-3.45,0-5.18-1.63-5.18-4.89V474.62
					c0-1.92-0.96-2.88-2.88-2.88h-36.25c-3.45,0-5.18-1.63-5.18-4.89v-14.67c0-3.26,1.73-4.89,5.18-4.89h106.73
					c3.45,0,5.18,1.63,5.18,4.89V466.85z M1663.01,627.37c0,3.26-1.63,4.89-4.89,4.89H1640c-3.26,0-4.89-1.63-4.89-4.89V452.18
					c0-3.26,1.63-4.89,4.89-4.89h18.12c3.26,0,4.89,1.63,4.89,4.89V627.37z M1826.41,587.67c0,14-3.93,24.93-11.79,32.79
					c-7.87,7.87-18.89,11.79-33.08,11.79h-33.37c-14.19,0-25.17-3.93-32.94-11.79c-7.77-7.86-11.65-18.79-11.65-32.79v-95.79
					c0-14.19,3.88-25.17,11.65-32.94c7.77-7.77,18.74-11.65,32.94-11.65h33.37c14.19,0,25.22,3.88,33.08,11.65
					c7.86,7.77,11.79,18.75,11.79,32.94V587.67z M1990.95,627.37c0,3.26-1.63,4.89-4.89,4.89h-15.53c-3.07,0-5.57-1.53-7.48-4.6
					L1894,503.96h-1.15v123.41c0,3.26-1.63,4.89-4.89,4.89h-17.84c-3.26,0-4.89-1.63-4.89-4.89V452.18c0-3.26,1.63-4.89,4.89-4.89
					h16.11c3.07,0,5.18,1.06,6.33,3.16l69.62,125.14h1.15V452.18c0-3.26,1.63-4.89,4.89-4.89h17.84c3.26,0,4.89,1.63,4.89,4.89
					V627.37z M2363.37,805.23h-180v-180h180V805.23z"/>
				<path class="st2" d="M947.59,471.74h-40.56c-2.11,0-3.16,0.96-3.16,2.88v130.03c0,2.11,1.05,3.16,3.16,3.16h40.56
					c13.81,0,20.71-7.09,20.71-21.29v-93.49C968.3,478.84,961.39,471.74,947.59,471.74z"/>
				<polygon class="st2" points="1408.43,474.91 1383.11,566.96 1435.18,566.96 1409.58,474.91 				"/>
				<path class="st2" d="M1777.21,471.74h-25.03c-13.81,0-20.71,7.1-20.71,21.29v93.49c0,14.19,6.9,21.29,20.71,21.29h25.03
					c14,0,21-7.09,21-21.29v-93.49C1798.21,478.84,1791.21,471.74,1777.21,471.74z"/>
				<polygon class="st2" points="2207.55,689.19 2275.4,718.94 2344.62,688.96 2344.4,646.55 2275.18,676.53 2206.8,646.55 
					2207.02,688.96 				"/>
				<polygon class="st2" points="2207.55,754.16 2275.4,783.91 2344.62,753.93 2344.4,711.52 2275.18,741.51 2206.8,711.52 
					2207.02,753.93 				"/>
			</g>
		</g>
	</g>
</g>
</svg>
