<?xml version="1.0" encoding="UTF-8" standalone="no"?>
<!DOCTYPE svg PUBLIC "-//W3C//DTD SVG 1.1//EN" "http://www.w3.org/Graphics/SVG/1.1/DTD/svg11.dtd">
<!-- Created with Vectornator (http://vectornator.io/) -->
<svg height="100%" stroke-miterlimit="10" style="fill-rule:nonzero;clip-rule:evenodd;stroke-linecap:round;stroke-linejoin:round;" version="1.1" viewBox="0 0 1621.17 424.628" width="100%" xml:space="preserve" xmlns="http://www.w3.org/2000/svg" xmlns:vectornator="http://vectornator.io" xmlns:xlink="http://www.w3.org/1999/xlink">
<defs/>
<clipPath id="ArtboardFrame">
<rect height="424.628" width="1621.17" x="0" y="0"/>
</clipPath>
<g clip-path="url(#ArtboardFrame)" id="Layer_2_copy_13" vectornator:layerName="Layer_2_copy_13">
<path d="M-0.000115865 423.88L-0.000115865 309.455L25.6699 309.455L25.6699 169.325L-0.000115865 169.325L0.0998841 5.79323e-05L72.0999 5.79323e-05L71.9999 423.88L-0.000115865 423.88Z" fill="#d0d0d0" fill-rule="nonzero" opacity="1" stroke="none" vectornator:layerName="polygon"/>
<path d="M91.1561 0.00255793L93.0311 423.878L1617.37 423.878L1617.37 0.00255793L91.1561 0.00255793ZM197.5 74.4713L210.844 74.4713C213.244 74.4713 214.469 75.665 214.469 78.0651L214.469 177.065C214.469 187.525 219.549 192.753 229.719 192.753L247.094 192.753C257.414 192.753 262.594 187.525 262.594 177.065L262.594 78.0651C262.594 75.665 263.787 74.4713 266.187 74.4713L279.531 74.4713C282.071 74.4713 283.344 75.5863 283.344 77.8463L283.344 177.909C283.344 188.229 280.432 196.296 274.562 202.096C268.692 207.896 260.591 210.784 250.281 210.784L226.75 210.784C216.43 210.784 208.394 207.886 202.594 202.096C196.794 196.306 193.906 188.229 193.906 177.909L193.906 78.0651C193.906 75.665 195.1 74.4713 197.5 74.4713ZM343.781 74.4713L368.344 74.4713C378.654 74.4713 386.731 77.335 392.531 83.0651C398.321 88.7851 401.219 96.865 401.219 107.315L401.219 117.503C401.219 120.043 399.956 121.315 397.406 121.315L384.031 121.315C381.621 121.315 380.437 120.053 380.437 117.503L380.437 108.19C380.437 97.73 375.357 92.4713 365.187 92.4713L346.75 92.4713C336.57 92.4713 331.469 97.7301 331.469 108.19L331.469 177.065C331.469 187.525 336.58 192.753 346.75 192.753L365.187 192.753C375.367 192.753 380.437 187.525 380.437 177.065L380.437 167.753C380.437 165.213 381.631 163.94 384.031 163.94L397.406 163.94C399.946 163.94 401.219 165.203 401.219 167.753L401.219 177.94C401.219 188.26 398.321 196.296 392.531 202.096C386.741 207.886 378.685 210.784 368.375 210.784L343.781 210.784C333.321 210.784 325.22 207.886 319.5 202.096C313.78 196.306 310.906 188.26 310.906 177.94L310.906 107.315C310.906 96.855 313.77 88.785 319.5 83.0651C325.22 77.3451 333.321 74.4713 343.781 74.4713ZM508.469 74.4713L530.937 74.4713C541.397 74.4713 549.567 77.3825 555.437 83.2526C561.297 89.1226 564.25 97.2238 564.25 107.534L564.25 112.19C564.25 114.6 563.025 115.784 560.625 115.784L547.062 115.784C544.662 115.784 543.469 114.59 543.469 112.19L543.469 109.44C543.469 103.36 542.172 99.0288 539.562 96.4088C536.942 93.7988 532.58 92.4714 526.5 92.4713L513.156 92.4713C507.076 92.4713 502.714 93.8463 500.094 96.5963C497.474 99.3563 496.187 104.05 496.187 110.69L496.187 117.284C496.187 123.644 500.779 127.93 509.969 130.19C514.069 131.18 518.567 132.053 523.437 132.753C528.317 133.463 533.216 134.53 538.156 135.94C543.106 137.35 547.619 139.204 551.719 141.534C555.819 143.864 559.147 147.429 561.687 152.159C564.227 156.899 565.5 162.65 565.5 169.44L565.5 177.69C565.5 188.01 562.589 196.111 556.719 201.971C550.849 207.841 542.747 210.752 532.437 210.753L508.687 210.753C498.367 210.753 490.252 207.841 484.312 201.971C478.382 196.121 475.406 188.01 475.406 177.69L475.406 172.19C475.406 169.79 476.631 168.596 479.031 168.596L492.594 168.596C494.994 168.596 496.187 169.79 496.187 172.19L496.187 176.003C496.187 181.943 497.484 186.226 500.094 188.846C502.704 191.466 507.076 192.752 513.156 192.753L527.781 192.753C533.861 192.753 538.226 191.378 540.906 188.628C543.586 185.868 544.937 181.41 544.937 175.19L544.937 170.284C544.937 165.764 543.21 162.216 539.75 159.596C536.29 156.986 532.027 155.283 526.937 154.503C521.847 153.723 516.267 152.61 510.187 151.19C504.107 149.78 498.527 148.155 493.437 146.315C488.347 144.475 484.064 141.03 480.594 135.94C477.134 130.85 475.406 124.35 475.406 116.44L475.406 107.534C475.406 97.2138 478.349 89.1126 484.219 83.2526C490.079 77.3926 498.159 74.4714 508.469 74.4713ZM626.156 74.4713L647.344 74.4713C650.174 74.4713 651.867 75.6651 652.437 78.0651L689.344 207.19C689.904 209.59 689.12 210.784 687 210.784L671.969 210.784C670.699 210.784 669.802 210.524 669.312 210.034C668.812 209.544 668.415 208.6 668.125 207.19L660.094 179.628L613.437 179.628L605.375 207.19C604.805 209.59 603.542 210.784 601.562 210.784L586.312 210.784C584.332 210.784 583.617 209.59 584.187 207.19L621.062 78.0651C621.772 75.665 623.466 74.4713 626.156 74.4713ZM713.906 74.4713L725.781 74.4713C728.041 74.4713 729.598 75.2338 730.437 76.7838L781.75 169.003L782.594 169.003L782.594 78.0651C782.594 75.665 783.787 74.4713 786.187 74.4713L799.344 74.4713C801.744 74.4713 802.937 75.665 802.937 78.0651L802.937 207.19C802.937 209.59 801.744 210.784 799.344 210.784L787.875 210.784C785.615 210.784 783.785 209.638 782.375 207.378L731.5 116.221L730.656 116.221L730.656 207.19C730.676 209.6 729.462 210.784 727.062 210.784L713.906 210.784C711.496 210.784 710.313 209.59 710.312 207.19L710.312 78.0651C710.312 75.665 711.506 74.4713 713.906 74.4713ZM887.969 74.4713L940.094 74.4713C950.404 74.4713 958.515 77.335 964.375 83.0651C970.235 88.7851 973.187 96.865 973.187 107.315L973.187 177.94C973.187 188.26 970.235 196.296 964.375 202.096C958.505 207.896 950.404 210.784 940.094 210.784L887.969 210.784C885.569 210.784 884.344 209.6 884.344 207.19L884.344 78.0651C884.344 75.665 885.569 74.4713 887.969 74.4713ZM1006.69 74.4713L1020.06 74.4713C1022.45 74.4713 1023.66 75.665 1023.66 78.0651L1023.66 207.19C1023.66 209.59 1022.46 210.784 1020.06 210.784L1006.69 210.784C1004.29 210.784 1003.09 209.59 1003.09 207.19L1003.09 78.0651C1003.09 75.665 1004.29 74.4713 1006.69 74.4713ZM1059.25 74.4713L1127.09 74.4713C1129.35 74.4713 1130.5 75.665 1130.5 78.0651L1130.5 88.8776C1130.5 91.2776 1129.35 92.4714 1127.09 92.4713L1078.75 92.4713C1077.05 92.4713 1076.22 93.1863 1076.22 94.5963L1076.22 130.44C1076.22 131.85 1077.06 132.534 1078.75 132.534L1119.69 132.534C1122.23 132.534 1123.5 133.759 1123.5 136.159L1123.5 146.94C1123.5 149.34 1122.24 150.565 1119.69 150.565L1078.75 150.565C1077.05 150.565 1076.22 151.28 1076.22 152.69L1076.22 190.409C1076.22 191.969 1077.06 192.753 1078.75 192.753L1127.09 192.753C1129.35 192.753 1130.5 193.946 1130.5 196.346L1130.5 207.159C1130.5 209.589 1129.35 210.784 1127.09 210.784L1059.25 210.784C1056.84 210.784 1055.66 209.59 1055.66 207.19L1055.66 78.0651C1055.66 75.665 1056.85 74.4713 1059.25 74.4713ZM1188.16 74.4713L1210.84 74.4713C1221.3 74.4713 1229.37 77.335 1235.09 83.0651C1240.81 88.7851 1243.69 96.865 1243.69 107.315L1243.69 114.94C1243.69 117.48 1242.49 118.784 1240.09 118.784L1226.75 118.784C1224.35 118.784 1223.13 117.49 1223.12 114.94L1223.12 108.19C1223.12 97.73 1218.04 92.4713 1207.87 92.4713L1191.12 92.4713C1180.94 92.4713 1175.87 97.7301 1175.87 108.19L1175.87 177.065C1175.87 187.525 1180.95 192.753 1191.12 192.753L1207.87 192.753C1218.05 192.753 1223.12 187.525 1223.12 177.065L1223.12 158.003C1223.12 156.593 1222.36 155.878 1220.81 155.878L1203.62 155.878C1201.21 155.878 1200.03 154.684 1200.03 152.284L1200.03 141.471C1200.03 139.071 1201.22 137.877 1203.62 137.878L1239.25 137.878C1242.22 137.878 1243.72 139.345 1243.72 142.315L1243.72 177.94C1243.72 188.26 1240.82 196.296 1235.03 202.096C1229.22 207.876 1221.15 210.784 1210.84 210.784L1188.16 210.784C1177.7 210.784 1169.59 207.886 1163.87 202.096C1158.15 196.306 1155.31 188.26 1155.31 177.94L1155.31 107.315C1155.31 96.855 1158.14 88.785 1163.87 83.0651C1169.59 77.3451 1177.7 74.4713 1188.16 74.4713ZM1303.28 74.4713L1327.84 74.4713C1338.3 74.4713 1346.45 77.335 1352.25 83.0651C1358.04 88.7851 1360.94 96.865 1360.94 107.315L1360.94 177.94C1360.94 188.26 1358.04 196.296 1352.25 202.096C1346.46 207.886 1338.3 210.784 1327.84 210.784L1303.28 210.784C1292.82 210.784 1284.72 207.886 1279 202.096C1273.28 196.306 1270.41 188.26 1270.41 177.94L1270.41 107.315C1270.41 96.855 1273.27 88.785 1279 83.0651C1284.72 77.3451 1292.82 74.4713 1303.28 74.4713ZM331.812 267.096L338.719 267.096C339.319 267.096 339.674 267.368 339.844 267.878L363.906 324.065L364.437 324.065L388.5 267.878C388.68 267.358 389.056 267.096 389.656 267.096L396.562 267.096C397.412 267.096 397.844 267.629 397.844 268.659L397.844 347.878C397.844 348.898 397.412 349.409 396.562 349.409L392.844 349.409C391.904 349.409 391.437 348.908 391.437 347.878L391.437 276.971L390.937 276.971L368.281 330.096C367.771 331.036 367.114 331.503 366.344 331.503L362.125 331.503C361.275 331.503 360.684 331.036 360.344 330.096L337.312 276.846L336.781 276.846L336.781 347.878C336.781 348.898 336.35 349.409 335.5 349.409L331.812 349.409C330.962 349.409 330.531 348.908 330.531 347.878L330.531 268.659C330.531 267.639 330.962 267.096 331.812 267.096ZM420.875 267.096L450.312 267.096C455.862 267.096 460.26 268.7 463.5 271.94C466.74 275.18 468.344 279.622 468.344 285.253L468.344 300.253C468.344 305.883 466.74 310.325 463.5 313.565C460.26 316.805 455.852 318.409 450.312 318.409L427.281 318.409C426.431 318.409 426 318.76 426 319.44L426 347.846C426 348.886 425.534 349.409 424.594 349.409L420.875 349.409C420.025 349.409 419.594 348.908 419.594 347.878L419.594 268.628C419.594 267.608 420.025 267.096 420.875 267.096ZM487.312 267.096L491.031 267.096C491.971 267.096 492.437 267.629 492.437 268.659L492.437 330.971C492.437 334.981 493.45 338.105 495.5 340.315C497.55 342.535 500.539 343.659 504.469 343.659L517.625 343.659C521.545 343.659 524.566 342.579 526.656 340.409C528.746 338.229 529.812 335.071 529.812 330.971L529.812 268.659C529.822 267.629 530.279 267.096 531.219 267.096L534.812 267.096C535.752 267.096 536.219 267.562 536.219 268.503L536.219 331.221C536.219 336.851 534.606 341.294 531.406 344.534C528.206 347.774 523.831 349.409 518.281 349.409L503.937 349.409C498.387 349.409 494.044 347.774 490.844 344.534C487.644 341.294 486.031 336.851 486.031 331.221L486.031 268.659C486.031 267.639 486.462 267.096 487.312 267.096ZM550.281 267.096L596.375 267.096C597.395 267.096 597.906 267.562 597.906 268.503L597.906 271.44C597.906 272.38 597.405 272.846 596.375 272.846L577.812 272.846C576.962 272.846 576.531 273.233 576.531 274.003L576.531 347.878C576.531 348.908 576.1 349.409 575.25 349.409L571.531 349.409C570.591 349.409 570.125 348.908 570.125 347.878L570.125 274.003C570.125 273.233 569.694 272.846 568.844 272.846L550.281 272.846C549.261 272.846 548.75 272.38 548.75 271.44L548.75 268.503C548.75 267.563 549.251 267.096 550.281 267.096ZM612.375 267.096L651.906 267.096C652.926 267.096 653.469 267.562 653.469 268.503L653.469 271.44C653.469 272.38 652.936 272.846 651.906 272.846L618.781 272.846C617.931 272.846 617.5 273.233 617.5 274.003L617.5 303.44C617.5 304.21 617.931 304.596 618.781 304.596L648.344 304.596C649.284 304.596 649.75 305.062 649.75 306.003L649.75 308.94C649.75 309.88 649.284 310.346 648.344 310.346L618.781 310.346C617.931 310.346 617.5 310.733 617.5 311.503L617.5 342.471C617.5 343.241 617.931 343.628 618.781 343.628L651.906 343.628C652.926 343.628 653.469 344.094 653.469 345.034L653.469 347.971C653.459 348.921 652.926 349.409 651.906 349.409L612.375 349.409C611.525 349.409 611.094 348.908 611.094 347.878L611.094 268.628C611.094 267.608 611.525 267.096 612.375 267.096ZM673.937 267.096L703.125 267.096C708.675 267.096 713.073 268.7 716.312 271.94C719.552 275.18 721.156 279.622 721.156 285.253L721.156 297.44C721.156 302.22 719.93 306.11 717.5 309.19C715.07 312.26 711.774 314.246 707.594 315.096L707.594 315.596L722.812 347.878C723.322 348.898 723.016 349.409 721.906 349.409L717.937 349.409C716.827 349.409 716.076 348.908 715.656 347.878L700.562 315.596L680.344 315.596C679.494 315.596 679.062 315.983 679.062 316.753L679.062 347.846C679.062 348.886 678.586 349.409 677.656 349.409L673.937 349.409C673.087 349.409 672.656 348.908 672.656 347.878L672.656 268.628C672.656 267.608 673.087 267.096 673.937 267.096ZM792.719 267.096L807.562 267.096C813.113 267.096 817.51 268.7 820.75 271.94C823.99 275.18 825.594 279.622 825.594 285.253L825.594 288.846C825.594 289.786 825.127 290.253 824.187 290.253L820.469 290.253C819.529 290.253 819.062 289.786 819.062 288.846L819.062 285.659C819.062 277.129 814.936 272.846 806.656 272.846L793.469 272.846C785.279 272.846 781.187 277.199 781.187 285.909L781.187 292.315C781.187 298.205 786.416 302.15 796.906 304.19C801.256 305.04 805.631 306.059 810.031 307.159C814.421 308.269 818.18 310.259 821.25 313.159C824.32 316.059 825.844 319.99 825.844 324.94L825.844 331.221C825.844 336.851 824.24 341.294 821 344.534C817.76 347.774 813.352 349.378 807.812 349.378L792.719 349.378C787.169 349.378 782.771 347.774 779.531 344.534C776.291 341.304 774.656 336.861 774.656 331.221L774.656 326.628C774.656 325.688 775.154 325.19 776.094 325.19L779.781 325.19C780.721 325.19 781.187 325.688 781.187 326.628L781.187 330.846C781.187 339.376 785.345 343.628 793.625 343.628L806.937 343.628C815.217 343.628 819.344 339.31 819.344 330.69L819.344 325.315C819.344 321.565 817.82 318.633 814.75 316.503C811.68 314.373 807.954 312.818 803.594 311.878C799.244 310.938 794.859 309.96 790.469 308.94C786.069 307.92 782.351 306.045 779.281 303.315C776.211 300.585 774.656 296.925 774.656 292.315L774.656 285.253C774.656 279.623 776.291 275.18 779.531 271.94C782.771 268.7 787.179 267.096 792.719 267.096ZM918.406 267.096L922.125 267.096C923.065 267.106 923.531 267.608 923.531 268.628L923.531 347.878C923.531 348.898 923.065 349.409 922.125 349.409L918.406 349.409C917.556 349.409 917.125 348.908 917.125 347.878L917.125 268.628C917.125 267.608 917.556 267.096 918.406 267.096ZM947.219 267.096L986.75 267.096C987.77 267.096 988.313 267.562 988.312 268.503L988.312 271.44C988.312 272.38 987.78 272.846 986.75 272.846L953.594 272.846C952.744 272.846 952.344 273.233 952.344 274.003L952.344 303.44C952.344 304.21 952.744 304.596 953.594 304.596L983.187 304.596C984.127 304.596 984.594 305.062 984.594 306.003L984.594 308.94C984.594 309.88 984.127 310.346 983.187 310.346L953.594 310.346C952.744 310.346 952.344 310.733 952.344 311.503L952.344 342.471C952.344 343.241 952.744 343.628 953.594 343.628L986.75 343.628C987.77 343.628 988.313 344.094 988.312 345.034L988.312 347.971C988.312 348.921 987.78 349.409 986.75 349.409L947.219 349.409C946.369 349.409 945.937 348.908 945.937 347.878L945.937 268.628C945.937 267.608 946.369 267.096 947.219 267.096ZM1008.78 267.096L1012.25 267.096C1013.02 267.096 1013.52 267.368 1013.78 267.878L1053.09 335.44L1053.59 335.44L1053.59 268.628C1053.59 267.608 1054.06 267.096 1055 267.096L1058.59 267.096C1059.53 267.096 1060 267.598 1060 268.628L1060 347.846C1060 348.866 1059.53 349.409 1058.59 349.409L1055.62 349.409C1054.85 349.409 1054.19 348.911 1053.59 347.971L1014.41 280.909L1013.91 280.909L1013.91 347.846C1013.9 348.886 1013.44 349.409 1012.5 349.409L1008.78 349.409C1007.93 349.409 1007.5 348.908 1007.5 347.878L1007.5 268.628C1007.5 267.608 1007.93 267.096 1008.78 267.096ZM1152.28 267.096L1191.81 267.096C1192.83 267.096 1193.34 267.562 1193.34 268.503L1193.34 271.44C1193.34 272.38 1192.84 272.846 1191.81 272.846L1158.66 272.846C1157.81 272.846 1157.37 273.233 1157.37 274.003L1157.37 303.44C1157.37 304.21 1157.81 304.596 1158.66 304.596L1188.25 304.596C1189.19 304.596 1189.66 305.062 1189.66 306.003L1189.66 308.94C1189.66 309.88 1189.19 310.346 1188.25 310.346L1158.66 310.346C1157.81 310.346 1157.37 310.733 1157.37 311.503L1157.37 342.471C1157.37 343.241 1157.81 343.628 1158.66 343.628L1191.81 343.628C1192.83 343.628 1193.34 344.094 1193.34 345.034L1193.34 347.971C1193.33 348.921 1192.83 349.409 1191.81 349.409L1152.28 349.409C1151.43 349.409 1151 348.908 1151 347.878L1151 268.628C1151 267.608 1151.43 267.096 1152.28 267.096ZM207 267.128L223.125 267.128C228.675 267.128 233.05 268.731 236.25 271.971C239.45 275.211 241.031 279.654 241.031 285.284L241.031 291.565C241.031 292.585 240.565 293.096 239.625 293.096L236.062 293.096C235.122 293.096 234.625 292.595 234.625 291.565L234.625 285.534C234.625 281.434 233.59 278.308 231.5 276.128C229.41 273.948 226.389 272.878 222.469 272.878L207.5 272.878C203.57 272.878 200.581 273.97 198.531 276.19C196.481 278.41 195.469 281.524 195.469 285.534L195.469 330.971C195.469 334.981 196.481 338.105 198.531 340.315C200.581 342.535 203.57 343.659 207.5 343.659L222.469 343.659C226.389 343.659 229.41 342.548 231.5 340.378C233.59 338.198 234.625 335.071 234.625 330.971L234.625 324.94C234.625 323.92 235.122 323.409 236.062 323.409L239.625 323.409C240.565 323.409 241.031 323.91 241.031 324.94L241.031 331.221C241.031 336.851 239.45 341.294 236.25 344.534C233.05 347.784 228.675 349.409 223.125 349.409L207 349.409C201.45 349.409 197.075 347.774 193.875 344.534C190.675 341.294 189.062 336.851 189.062 331.221L189.062 285.284C189.062 279.654 190.675 275.211 193.875 271.971C197.075 268.731 201.45 267.128 207 267.128ZM276.375 267.128L292.094 267.128C297.644 267.128 302.019 268.731 305.219 271.971C308.419 275.211 310.031 279.654 310.031 285.284L310.031 331.221C310.031 336.851 308.419 341.294 305.219 344.534C302.029 347.774 297.665 349.409 292.125 349.409L276.375 349.409C270.825 349.409 266.45 347.774 263.25 344.534C260.05 341.294 258.437 336.851 258.437 331.221L258.437 285.284C258.437 279.654 260.05 275.211 263.25 271.971C266.45 268.731 270.825 267.128 276.375 267.128ZM863.75 267.128L879.875 267.128C885.425 267.128 889.8 268.731 893 271.971C896.2 275.211 897.812 279.654 897.812 285.284L897.812 291.565C897.812 292.585 897.315 293.096 896.375 293.096L892.812 293.096C891.873 293.096 891.406 292.595 891.406 291.565L891.406 285.534C891.406 281.434 890.34 278.308 888.25 276.128C886.16 273.948 883.17 272.878 879.25 272.878L864.25 272.878C860.32 272.878 857.362 273.97 855.312 276.19C853.262 278.41 852.219 281.524 852.219 285.534L852.219 330.971C852.219 334.981 853.262 338.105 855.312 340.315C857.363 342.535 860.32 343.659 864.25 343.659L879.25 343.659C883.17 343.659 886.16 342.548 888.25 340.378C890.34 338.198 891.406 335.071 891.406 330.971L891.406 324.94C891.406 323.92 891.872 323.409 892.812 323.409L896.375 323.409C897.315 323.409 897.812 323.91 897.812 324.94L897.812 331.221C897.812 336.851 896.2 341.294 893 344.534C889.8 347.784 885.425 349.409 879.875 349.409L863.75 349.409C858.2 349.409 853.825 347.774 850.625 344.534C847.425 341.294 845.844 336.851 845.844 331.221L845.844 285.284C845.844 279.654 847.425 275.211 850.625 271.971C853.825 268.731 858.2 267.128 863.75 267.128ZM1098.25 267.128L1114.37 267.128C1119.92 267.128 1124.3 268.731 1127.5 271.971C1130.7 275.211 1132.31 279.654 1132.31 285.284L1132.31 291.565C1132.31 292.585 1131.81 293.096 1130.87 293.096L1127.31 293.096C1126.37 293.096 1125.91 292.595 1125.91 291.565L1125.91 285.534C1125.91 281.434 1124.84 278.308 1122.75 276.128C1120.66 273.948 1117.67 272.878 1113.75 272.878L1098.75 272.878C1094.82 272.878 1091.86 273.97 1089.81 276.19C1087.76 278.41 1086.72 281.524 1086.72 285.534L1086.72 330.971C1086.72 334.981 1087.76 338.105 1089.81 340.315C1091.86 342.535 1094.82 343.659 1098.75 343.659L1113.75 343.659C1117.67 343.659 1120.66 342.548 1122.75 340.378C1124.84 338.198 1125.91 335.071 1125.91 330.971L1125.91 324.94C1125.91 323.92 1126.37 323.409 1127.31 323.409L1130.87 323.409C1131.81 323.409 1132.31 323.91 1132.31 324.94L1132.31 331.221C1132.31 336.851 1130.7 341.294 1127.5 344.534C1124.3 347.784 1119.92 349.409 1114.37 349.409L1098.25 349.409C1092.7 349.409 1088.32 347.774 1085.12 344.534C1081.92 341.294 1080.34 336.851 1080.34 331.221L1080.34 285.284C1080.34 279.654 1081.92 275.211 1085.12 271.971C1088.32 268.731 1092.7 267.128 1098.25 267.128ZM907.25 92.4713C905.69 92.4713 904.937 93.1863 904.937 94.5963L904.937 190.44C904.937 192 905.69 192.753 907.25 192.753L937.156 192.753C947.336 192.753 952.406 187.525 952.406 177.065L952.406 108.19C952.406 97.73 947.326 92.4713 937.156 92.4713L907.25 92.4713ZM1306.25 92.4713C1296.07 92.4713 1290.97 97.7301 1290.97 108.19L1290.97 177.065C1290.96 187.525 1296.07 192.753 1306.25 192.753L1324.69 192.753C1335.01 192.753 1340.16 187.525 1340.16 177.065L1340.16 108.19C1340.16 97.73 1335.01 92.4713 1324.69 92.4713L1306.25 92.4713ZM636.344 94.8151L617.656 162.659L656.031 162.659L637.156 94.8151L636.344 94.8151ZM276.875 272.878C272.945 272.878 269.956 273.97 267.906 276.19C265.856 278.41 264.844 281.524 264.844 285.534L264.844 330.971C264.844 334.981 265.856 338.105 267.906 340.315C269.956 342.535 272.955 343.659 276.875 343.659L291.469 343.659C295.389 343.659 298.41 342.548 300.5 340.378C302.59 338.198 303.625 335.071 303.625 330.971L303.625 285.534C303.625 281.434 302.59 278.308 300.5 276.128C298.41 273.948 295.389 272.878 291.469 272.878L276.875 272.878ZM427.281 272.878C426.431 272.878 426 273.264 426 274.034L426 311.534C426 312.214 426.431 312.534 427.281 312.534L449.812 312.534C453.732 312.534 456.731 311.454 458.781 309.284C460.831 307.104 461.844 304.013 461.844 300.003L461.844 285.534C461.844 281.434 460.831 278.308 458.781 276.128C456.731 273.948 453.732 272.878 449.812 272.878L427.281 272.878ZM680.344 272.878C679.494 272.878 679.062 273.233 679.062 274.003L679.062 308.94C679.062 309.71 679.494 310.096 680.344 310.096L702.469 310.096C706.389 310.096 709.422 309.016 711.562 306.846C713.692 304.666 714.75 301.575 714.75 297.565L714.75 285.534C714.75 281.524 713.692 278.41 711.562 276.19C709.432 273.97 706.399 272.878 702.469 272.878L680.344 272.878Z" fill="#d0d0d0" fill-rule="nonzero" opacity="1" stroke="none"/>
</g>
</svg>
