<?xml version="1.0" encoding="UTF-8" standalone="no"?>
<!DOCTYPE svg PUBLIC "-//W3C//DTD SVG 1.1//EN" "http://www.w3.org/Graphics/SVG/1.1/DTD/svg11.dtd">
<!-- Created with Vectornator (http://vectornator.io/) -->
<svg height="100%" stroke-miterlimit="10" style="fill-rule:nonzero;clip-rule:evenodd;stroke-linecap:round;stroke-linejoin:round;" version="1.1" viewBox="0 0 2048 512" width="100%" xml:space="preserve" xmlns="http://www.w3.org/2000/svg" xmlns:vectornator="http://vectornator.io" xmlns:xlink="http://www.w3.org/1999/xlink">
<defs/>
<clipPath id="ArtboardFrame">
<rect height="512" width="2048" x="0" y="0"/>
</clipPath>
<g clip-path="url(#ArtboardFrame)" id="Layer_1" vectornator:layerName="Layer_1">
<path d="M0-0.703125L0 247.078L70 304.297L70 512L1967.53 511.359L1966.72 512L2047.62 411.516L2048 411.828L2048-0.703125L0-0.703125ZM374.125 120.266C379.398 120.182 384.793 120.824 390.344 122.203C395.895 123.582 401.978 125.757 408.562 128.734L530.719 184.609C535.07 186.543 538.384 189.187 540.625 192.547C542.866 195.906 543.969 199.471 543.969 203.203C543.969 207.003 542.866 210.537 540.625 213.828C538.384 217.119 535.07 219.764 530.719 221.766L408.562 277.766C401.978 280.743 395.895 282.918 390.344 284.297C384.793 285.676 379.398 286.318 374.125 286.234C368.919 286.318 363.55 285.668 358 284.297C352.45 282.926 346.357 280.759 339.719 277.766L285.438 252.859L361.75 217.391C365.723 218.611 369.977 219.234 374.531 219.234C379.322 219.234 383.87 218.551 388.156 217.172C392.443 215.792 395.915 213.908 398.594 211.516C401.273 209.123 402.625 206.35 402.625 203.203C402.625 200.124 401.281 197.398 398.594 195.047C395.907 192.696 392.404 190.877 388.125 189.547C383.846 188.217 379.322 187.547 374.531 187.547C369.81 187.547 365.289 188.209 360.969 189.547C356.648 190.885 353.127 192.727 350.406 195.078C347.686 197.429 346.312 200.139 346.312 203.203C346.313 204.112 346.612 204.931 347.156 205.672L265.969 243.578L217.625 221.766C213.258 219.811 209.96 217.174 207.719 213.859C205.478 210.545 204.375 207.003 204.375 203.203C204.375 199.471 205.478 195.906 207.719 192.547C209.96 189.187 213.258 186.543 217.625 184.609L339.719 128.734C346.288 125.757 352.353 123.582 357.938 122.203C363.522 120.824 368.919 120.182 374.125 120.266ZM671.375 173.547L753.312 173.547C756.043 173.547 757.406 174.989 757.406 177.891L757.406 190.953C757.406 193.854 756.043 195.297 753.312 195.297L694.938 195.297C692.89 195.297 691.875 196.153 691.875 197.859L691.875 241.141C691.875 242.847 692.89 243.703 694.938 243.703L744.344 243.703C747.416 243.703 748.937 245.146 748.938 248.047L748.938 261.109C748.938 264.011 747.416 265.453 744.344 265.453L694.938 265.453C692.89 265.453 691.875 266.309 691.875 268.016L691.875 313.578C691.875 315.455 692.89 316.391 694.938 316.391L753.312 316.391C756.043 316.391 757.406 317.864 757.406 320.766L757.406 333.797C757.406 336.698 756.043 338.172 753.312 338.172L671.375 338.172C668.474 338.172 667.031 336.698 667.031 333.797L667.031 177.891C667.031 174.989 668.474 173.547 671.375 173.547ZM794.25 173.547L857.25 173.547C869.709 173.547 879.48 177.01 886.562 183.922C893.645 190.834 897.188 200.605 897.188 213.234L897.188 298.484C897.188 310.943 893.645 320.675 886.562 327.672C879.48 334.669 869.709 338.172 857.25 338.172L794.25 338.172C791.349 338.172 789.906 336.698 789.906 333.797L789.906 177.891C789.906 174.989 791.349 173.547 794.25 173.547ZM935.062 173.547L951.188 173.547C954.089 173.547 955.531 174.989 955.531 177.891L955.531 297.453C955.531 310.082 961.681 316.391 973.969 316.391L994.969 316.391C1007.43 316.391 1013.66 310.082 1013.66 297.453L1013.66 177.891C1013.66 174.989 1015.1 173.547 1018 173.547L1034.12 173.547C1037.2 173.547 1038.75 174.91 1038.75 177.641L1038.75 298.484C1038.75 310.943 1035.21 320.675 1028.12 327.672C1021.04 334.669 1011.27 338.172 998.812 338.172L970.375 338.172C957.916 338.172 948.216 334.669 941.219 327.672C934.221 320.675 930.719 310.943 930.719 298.484L930.719 177.891C930.719 174.989 932.161 173.547 935.062 173.547ZM1111.69 173.547L1141.41 173.547C1153.86 173.547 1163.6 177.01 1170.59 183.922C1177.59 190.834 1181.06 200.605 1181.06 213.234L1181.06 225.516C1181.06 228.588 1179.54 230.141 1176.47 230.141L1160.34 230.141C1157.44 230.141 1156 228.588 1156 225.516L1156 214.266C1156 201.636 1149.85 195.297 1137.56 195.297L1115.28 195.297C1102.99 195.297 1096.84 201.636 1096.84 214.266L1096.84 297.453C1096.84 310.082 1102.99 316.391 1115.28 316.391L1137.56 316.391C1149.85 316.391 1156 310.082 1156 297.453L1156 286.203C1156 283.131 1157.44 281.578 1160.34 281.578L1176.47 281.578C1179.54 281.578 1181.06 283.131 1181.06 286.203L1181.06 298.484C1181.06 310.943 1177.59 320.675 1170.59 327.672C1163.6 334.669 1153.87 338.172 1141.41 338.172L1111.69 338.172C1099.06 338.172 1089.29 334.669 1082.38 327.672C1075.46 320.675 1072.03 310.943 1072.03 298.484L1072.03 213.234C1072.03 200.605 1075.46 190.834 1082.38 183.922C1089.29 177.01 1099.06 173.547 1111.69 173.547ZM1251.47 173.547L1277.06 173.547C1280.48 173.547 1282.54 174.989 1283.22 177.891L1327.78 333.797C1328.46 336.698 1327.5 338.172 1324.94 338.172L1306.78 338.172C1305.25 338.172 1304.16 337.863 1303.56 337.266C1302.97 336.668 1302.5 335.504 1302.16 333.797L1292.44 300.516L1236.12 300.516L1226.38 333.797C1225.69 336.698 1224.17 338.172 1221.78 338.172L1203.34 338.172C1200.95 338.172 1200.1 336.698 1200.78 333.797L1245.34 177.891C1246.2 174.989 1248.23 173.547 1251.47 173.547ZM1342.62 173.547L1437.59 173.547C1440.67 173.547 1442.19 174.989 1442.19 177.891L1442.19 190.953C1442.19 193.854 1440.67 195.297 1437.59 195.297L1405.34 195.297C1403.47 195.297 1402.53 196.153 1402.53 197.859L1402.53 333.797C1402.53 336.698 1401.06 338.172 1398.16 338.172L1382.03 338.172C1378.96 338.172 1377.44 336.698 1377.44 333.797L1377.44 197.859C1377.44 196.153 1376.58 195.297 1374.88 195.297L1342.62 195.297C1339.55 195.297 1338 193.854 1338 190.953L1338 177.891C1338 174.989 1339.55 173.547 1342.62 173.547ZM1469.84 173.547L1485.97 173.547C1488.87 173.547 1490.31 174.989 1490.31 177.891L1490.31 333.797C1490.31 336.698 1488.87 338.172 1485.97 338.172L1469.84 338.172C1466.94 338.172 1465.5 336.698 1465.5 333.797L1465.5 177.891C1465.5 174.989 1466.94 173.547 1469.84 173.547ZM1566.09 173.547L1595.81 173.547C1608.44 173.547 1618.25 177.01 1625.25 183.922C1632.25 190.834 1635.72 200.605 1635.72 213.234L1635.72 298.484C1635.72 310.943 1632.25 320.675 1625.25 327.672C1618.25 334.669 1608.44 338.172 1595.81 338.172L1566.09 338.172C1553.46 338.172 1543.69 334.669 1536.78 327.672C1529.87 320.675 1526.41 310.943 1526.41 298.484L1526.41 213.234C1526.41 200.605 1529.87 190.834 1536.78 183.922C1543.69 177.01 1553.46 173.547 1566.09 173.547ZM1674.66 173.547L1688.97 173.547C1691.7 173.547 1693.6 174.482 1694.62 176.359L1756.56 287.734L1757.59 287.734L1757.59 177.891C1757.59 174.989 1759.04 173.547 1761.94 173.547L1777.81 173.547C1780.71 173.547 1782.16 174.989 1782.16 177.891L1782.16 333.797C1782.16 336.698 1780.71 338.172 1777.81 338.172L1764 338.172C1761.27 338.172 1759.05 336.809 1757.34 334.078L1695.91 223.984L1694.88 223.984L1694.88 333.797C1694.88 336.698 1693.43 338.172 1690.53 338.172L1674.66 338.172C1671.75 338.172 1670.28 336.698 1670.28 333.797L1670.28 177.891C1670.28 174.989 1671.75 173.547 1674.66 173.547ZM497.938 256.922L497.938 296.266C497.938 305.966 494.952 315.094 488.969 323.641C482.985 332.188 474.512 339.69 463.562 346.172C452.613 352.654 439.568 357.727 424.406 361.391C409.245 365.054 392.48 366.891 374.125 366.891C355.897 366.891 339.213 365.029 324.062 361.328C308.912 357.627 295.898 352.492 285.031 345.922L285.031 358.922C287.372 359.724 289.425 360.941 291.156 362.672C294.382 365.898 296 370.171 296 375.516L296 407.922C296 413.267 294.382 417.54 291.156 420.766C287.93 423.991 283.656 425.609 278.312 425.609L273.094 425.609C267.764 425.609 263.475 423.991 260.25 420.766C257.025 417.54 255.406 413.267 255.406 407.922L255.406 375.516C255.406 370.171 257.025 365.898 260.25 362.672C262.01 360.912 264.113 359.69 266.5 358.891L266.5 330.984C261.292 325.464 257.287 319.662 254.531 313.547C251.775 307.432 250.406 301.667 250.406 296.266L250.406 256.953L266.5 264.391L266.5 330.984C268.948 333.76 271.735 336.378 274.875 338.859C278.015 341.34 281.398 343.701 285.031 345.922L285.031 272.828L332.062 294.328C347.385 301.307 361.402 304.738 374.125 304.641C386.948 304.738 400.964 301.307 416.188 294.328L497.938 256.922ZM817.562 195.297C815.685 195.297 814.75 196.153 814.75 197.859L814.75 313.578C814.75 315.455 815.685 316.391 817.562 316.391L853.656 316.391C865.944 316.391 872.094 310.082 872.094 297.453L872.094 214.266C872.094 201.636 865.944 195.297 853.656 195.297L817.562 195.297ZM1569.69 195.297C1557.4 195.297 1551.25 201.636 1551.25 214.266L1551.25 297.453C1551.25 310.082 1557.4 316.391 1569.69 316.391L1591.97 316.391C1604.43 316.391 1610.66 310.082 1610.66 297.453L1610.66 214.266C1610.66 201.636 1604.43 195.297 1591.97 195.297L1569.69 195.297ZM1263.78 198.141L1241.25 280.047L1287.56 280.047L1264.78 198.141L1263.78 198.141Z" fill="#ffffff" fill-rule="nonzero" opacity="1" stroke="none"/>
</g>
</svg>
