<?xml version="1.0" encoding="utf-8"?>
<!-- Generator: Adobe Adobe Illustrator 24.2.0, SVG Export Plug-In . SVG Version: 6.00 Build 0)  -->
<svg version="1.1" xmlns="http://www.w3.org/2000/svg" xmlns:xlink="http://www.w3.org/1999/xlink" x="0px" y="0px"
	 viewBox="0 0 2270.1 400" style="enable-background:new 0 0 2270.1 400;" xml:space="preserve">
<style type="text/css">
	.st0{fill:#FFFFFF;}
	.st1{fill:#8CC63F;}
	.st2{fill:#29ABE2;}
	.st3{display:none;}
</style>
<g id="Layer_3">
</g>
<g id="Layer_16">
</g>
<g id="Layer_2">
</g>
<g id="Layer_2_copy">
</g>
<g id="Layer_2_copy_2">
</g>
<g id="Layer_2_copy_3">
</g>
<g id="Layer_2_copy_4">
</g>
<g id="Layer_2_copy_5">
</g>
<g id="Layer_2_copy_6">
</g>
<g id="Layer_2_copy_7">
</g>
<g id="Layer_2_copy_8">
</g>
<g id="Layer_2_copy_9">
</g>
<g id="Layer_2_copy_10">
</g>
<g id="Layer_2_copy_11">
</g>
<g id="Layer_2_copy_12">
</g>
<g id="Layer_2_copy_13">
</g>
<g id="Layer_2_copy_14">
</g>
<g id="Layer_2_copy_15">
	<rect x="-0.1" y="0" class="st3" width="2270.19" height="400"/>
	<g>
		<g>
			<path class="st0" d="M2258.1,72v185.49l-161.6,63.43H102.1V72H2258.1 M2270.1,60H90.1v272.93h2008.67l171.33-67.25V60L2270.1,60z
				"/>
		</g>
	</g>
	<polygon class="st0" points="-0.51,333.26 -0.51,301.62 36.51,270.24 36.93,159.98 -0.1,159.98 -0.1,60 71.9,60 71.49,333.26 	"/>
	<g>
		<g>
			<path class="st0" d="M125.26,91.63v209.65h209.65V91.63H125.26z M290.13,154.09l-60.05,37.72l-60.05-37.72H290.13z
				 M300.84,242.98H159.33v-82.16l70.76,44.44l70.76-44.44V242.98z"/>
		</g>
	</g>
	<g>
		<path class="st0" d="M393.52,218v-4.1c0-1.19,0.6-1.79,1.79-1.79h5.76c1.19,0,1.79,0.6,1.79,1.79v3.33
			c0,7.68,3.8,11.52,11.39,11.52h11.26c7.59,0,11.39-3.92,11.39-11.78v-4.35c0-6.14-5.08-10.15-15.23-12.03
			c-4.27-0.77-8.53-1.66-12.8-2.69c-4.27-1.02-7.89-3.01-10.88-5.95c-2.99-2.94-4.48-6.98-4.48-12.1v-6.27
			c0-5.89,1.68-10.52,5.06-13.89c3.37-3.37,8-5.06,13.89-5.06h14.21c5.8,0,10.41,1.69,13.82,5.06c3.41,3.37,5.12,8,5.12,13.89v3.2
			c0,1.28-0.56,1.92-1.66,1.92h-5.89c-1.11,0-1.66-0.64-1.66-1.92v-2.3c0-7.76-3.8-11.65-11.39-11.65h-10.88
			c-7.6,0-11.39,4.05-11.39,12.16v5.12c0,4.35,2.86,7.34,8.58,8.96c2.56,0.68,5.38,1.3,8.45,1.86c3.07,0.56,6.16,1.28,9.28,2.18
			c3.11,0.9,5.95,2.01,8.51,3.33c2.56,1.32,4.63,3.33,6.21,6.02c1.58,2.69,2.37,5.95,2.37,9.79V218c0,5.89-1.71,10.52-5.12,13.89
			c-3.41,3.37-8.02,5.06-13.82,5.06h-14.72c-5.8,0-10.41-1.68-13.82-5.06C395.23,228.52,393.52,223.89,393.52,218z"/>
		<path class="st0" d="M473.01,236.94h-5.76c-1.2,0-1.79-0.6-1.79-1.79v-78.72c0-1.19,0.6-1.79,1.79-1.79h29.95
			c5.89,0,10.5,1.69,13.82,5.06c3.33,3.37,4.99,8,4.99,13.89v14.21c0,5.97-1.66,10.62-4.99,13.95c-3.33,3.33-7.94,4.99-13.82,4.99
			h-21.12c-0.85,0-1.28,0.38-1.28,1.15v27.26C474.8,236.35,474.2,236.94,473.01,236.94z M476.08,198.42h19.84
			c7.17,0,10.75-3.67,10.75-11.01v-13.44c0-7.42-3.58-11.14-10.75-11.14h-19.84c-0.85,0-1.28,0.38-1.28,1.15v33.28
			C474.8,198.03,475.23,198.42,476.08,198.42z"/>
		<path class="st0" d="M574.77,236.94h-40.19c-1.2,0-1.79-0.6-1.79-1.79v-78.72c0-1.19,0.6-1.79,1.79-1.79h40.19
			c1.19,0,1.79,0.6,1.79,1.79v4.61c0,1.2-0.6,1.79-1.79,1.79h-31.36c-0.85,0-1.28,0.38-1.28,1.15v25.86c0,0.77,0.43,1.15,1.28,1.15
			h27.39c1.19,0,1.79,0.6,1.79,1.79v4.61c0,1.2-0.6,1.79-1.79,1.79h-27.39c-0.85,0-1.28,0.38-1.28,1.15v27.26
			c0,0.77,0.43,1.15,1.28,1.15h31.36c1.19,0,1.79,0.6,1.79,1.79v4.61C576.56,236.35,575.96,236.94,574.77,236.94z"/>
		<path class="st0" d="M601.65,236.94h-5.63c-1.2,0-1.79-0.6-1.79-1.79v-78.72c0-1.19,0.6-1.79,1.79-1.79h5.25
			c1.02,0,1.71,0.34,2.05,1.02l35.33,62.08h0.51v-61.31c0-1.19,0.6-1.79,1.79-1.79h5.63c1.19,0,1.79,0.6,1.79,1.79v78.72
			c0,1.2-0.6,1.79-1.79,1.79h-4.74c-0.94,0-1.84-0.55-2.69-1.66l-35.2-61.44h-0.51v61.31C603.44,236.35,602.84,236.94,601.65,236.94
			z"/>
		<path class="st0" d="M701.61,236.94h-15.36c-5.89,0-10.52-1.66-13.89-4.99c-3.37-3.33-5.06-7.98-5.06-13.95v-44.42
			c0-5.97,1.68-10.62,5.06-13.95c3.37-3.33,8-4.99,13.89-4.99h15.36c5.89,0,10.52,1.66,13.89,4.99c3.37,3.33,5.06,7.98,5.06,13.95
			v6.27c0,1.2-0.6,1.79-1.79,1.79h-5.76c-1.2,0-1.79-0.6-1.79-1.79v-5.89c0-7.42-3.58-11.14-10.75-11.14h-13.18
			c-7.08,0-10.62,3.71-10.62,11.14v43.65c0,7.42,3.54,11.14,10.62,11.14h13.18c7.17,0,10.75-3.71,10.75-11.14v-5.89
			c0-1.19,0.6-1.79,1.79-1.79h5.76c1.19,0,1.79,0.6,1.79,1.79V218c0,5.97-1.69,10.62-5.06,13.95
			C712.13,235.28,707.5,236.94,701.61,236.94z"/>
		<path class="st0" d="M779.82,236.94h-40.19c-1.2,0-1.79-0.6-1.79-1.79v-78.72c0-1.19,0.6-1.79,1.79-1.79h40.19
			c1.19,0,1.79,0.6,1.79,1.79v4.61c0,1.2-0.6,1.79-1.79,1.79h-31.36c-0.85,0-1.28,0.38-1.28,1.15v25.86c0,0.77,0.43,1.15,1.28,1.15
			h27.39c1.19,0,1.79,0.6,1.79,1.79v4.61c0,1.2-0.6,1.79-1.79,1.79h-27.39c-0.85,0-1.28,0.38-1.28,1.15v27.26
			c0,0.77,0.43,1.15,1.28,1.15h31.36c1.19,0,1.79,0.6,1.79,1.79v4.61C781.61,236.35,781.01,236.94,779.82,236.94z"/>
		<path class="st0" d="M806.83,236.94h-5.76c-1.2,0-1.79-0.6-1.79-1.79v-78.72c0-1.19,0.6-1.79,1.79-1.79h29.44
			c5.89,0,10.54,1.69,13.95,5.06c3.41,3.37,5.12,8,5.12,13.89v11.65c0,4.78-1.15,8.73-3.46,11.84c-2.3,3.12-5.5,5.18-9.6,6.21v0.51
			l14.85,31.1c0.77,1.37,0.34,2.05-1.28,2.05h-5.76c-1.45,0-2.52-0.6-3.2-1.79l-14.34-30.98h-16.9c-0.85,0-1.28,0.38-1.28,1.15
			v29.82C808.62,236.35,808.02,236.94,806.83,236.94z M809.9,196.37h19.33c7.34,0,11.01-3.67,11.01-11.01v-11.39
			c0-7.42-3.67-11.14-11.01-11.14H809.9c-0.85,0-1.28,0.38-1.28,1.15v31.23C808.62,195.98,809.05,196.37,809.9,196.37z"/>
		<path class="st0" d="M875.56,236.94h-5.76c-1.2,0-1.79-0.6-1.79-1.79v-78.72c0-1.19,0.6-1.79,1.79-1.79h5.76
			c1.19,0,1.79,0.6,1.79,1.79v33.66c0,0.77,0.43,1.15,1.28,1.15h31.74c0.85,0,1.28-0.38,1.28-1.15v-33.66c0-1.19,0.6-1.79,1.79-1.79
			h5.76c1.19,0,1.79,0.6,1.79,1.79v78.72c0,1.2-0.6,1.79-1.79,1.79h-5.76c-1.2,0-1.79-0.6-1.79-1.79v-34.56
			c0-0.77-0.43-1.15-1.28-1.15h-31.74c-0.85,0-1.28,0.38-1.28,1.15v34.56C877.35,236.35,876.76,236.94,875.56,236.94z"/>
		<path class="st0" d="M942.25,236.94h-6.4c-1.11,0-1.49-0.6-1.15-1.79l23.94-78.72c0.34-1.19,1.15-1.79,2.43-1.79h9.22
			c1.28,0,2.09,0.6,2.43,1.79l23.94,78.72c0.34,1.2-0.04,1.79-1.15,1.79h-6.53c-0.94,0-1.54-0.6-1.79-1.79l-6.02-18.69h-30.98
			l-6.02,18.69C943.83,236.35,943.19,236.94,942.25,236.94z M965.42,164.24l-13.18,44.29h26.88l-13.18-44.29H965.42z"/>
		<path class="st0" d="M1017.9,236.94h-5.76c-1.2,0-1.79-0.6-1.79-1.79v-78.72c0-1.19,0.6-1.79,1.79-1.79h29.44
			c5.89,0,10.54,1.69,13.95,5.06c3.41,3.37,5.12,8,5.12,13.89v11.65c0,4.78-1.15,8.73-3.46,11.84c-2.3,3.12-5.5,5.18-9.6,6.21v0.51
			l14.85,31.1c0.77,1.37,0.34,2.05-1.28,2.05h-5.76c-1.45,0-2.52-0.6-3.2-1.79l-14.34-30.98h-16.9c-0.85,0-1.28,0.38-1.28,1.15
			v29.82C1019.69,236.35,1019.09,236.94,1017.9,236.94z M1020.97,196.37h19.33c7.34,0,11.01-3.67,11.01-11.01v-11.39
			c0-7.42-3.67-11.14-11.01-11.14h-19.33c-0.85,0-1.28,0.38-1.28,1.15v31.23C1019.69,195.98,1020.11,196.37,1020.97,196.37z"/>
		<path class="st0" d="M1099.18,236.94h-5.76c-1.2,0-1.79-0.6-1.79-1.79v-71.17c0-0.77-0.43-1.15-1.28-1.15h-17.41
			c-1.28,0-1.92-0.6-1.92-1.79v-4.61c0-1.19,0.64-1.79,1.92-1.79h46.72c1.28,0,1.92,0.6,1.92,1.79v4.61c0,1.2-0.64,1.79-1.92,1.79
			h-17.41c-0.85,0-1.28,0.38-1.28,1.15v71.17C1100.97,236.35,1100.37,236.94,1099.18,236.94z"/>
		<path class="st0" d="M1176.61,236.94h-41.09c-1.2,0-1.79-0.6-1.79-1.79v-78.72c0-1.19,0.6-1.79,1.79-1.79h5.76
			c1.19,0,1.79,0.6,1.79,1.79v70.91c0,0.77,0.43,1.15,1.28,1.15h32.26c1.19,0,1.79,0.64,1.79,1.92v4.74
			C1178.41,236.35,1177.81,236.94,1176.61,236.94z"/>
		<path class="st0" d="M1192.48,236.94h-6.4c-1.11,0-1.49-0.6-1.15-1.79l23.94-78.72c0.34-1.19,1.15-1.79,2.43-1.79h9.22
			c1.28,0,2.09,0.6,2.43,1.79l23.94,78.72c0.34,1.2-0.04,1.79-1.15,1.79h-6.53c-0.94,0-1.54-0.6-1.79-1.79l-6.02-18.69h-30.98
			l-6.02,18.69C1194.06,236.35,1193.42,236.94,1192.48,236.94z M1215.65,164.24l-13.18,44.29h26.88l-13.18-44.29H1215.65z"/>
		<path class="st0" d="M1268,236.94h-5.63c-1.2,0-1.79-0.6-1.79-1.79v-78.72c0-1.19,0.6-1.79,1.79-1.79h5.25
			c1.02,0,1.71,0.34,2.05,1.02l35.33,62.08h0.51v-61.31c0-1.19,0.6-1.79,1.79-1.79h5.63c1.19,0,1.79,0.6,1.79,1.79v78.72
			c0,1.2-0.6,1.79-1.79,1.79h-4.74c-0.94,0-1.84-0.55-2.69-1.66l-35.2-61.44h-0.51v61.31C1269.8,236.35,1269.2,236.94,1268,236.94z"
			/>
		<path class="st0" d="M1334.95,235.15v-78.72c0-1.19,0.6-1.79,1.79-1.79h31.49c5.89,0,10.52,1.69,13.89,5.06
			c3.37,3.37,5.06,8,5.06,13.89V218c0,5.89-1.69,10.52-5.06,13.89c-3.37,3.37-8,5.06-13.89,5.06h-31.49
			C1335.54,236.94,1334.95,236.35,1334.95,235.15z M1345.57,228.75h21.5c7.17,0,10.75-3.71,10.75-11.14v-43.65
			c0-7.42-3.58-11.14-10.75-11.14h-21.5c-0.85,0-1.28,0.38-1.28,1.15v63.62C1344.29,228.37,1344.72,228.75,1345.57,228.75z"/>
		<path class="st0" d="M1461.03,244.37h-23.17c-8.88,0-16.47-2.86-22.78-8.58c-6.32-5.72-9.47-13.4-9.47-23.04v-21.12
			c0-9.47,3.07-17.15,9.22-23.04c6.14-5.89,13.48-8.83,22.02-8.83h25.34c6.23,0,11.26,1.86,15.1,5.57c3.84,3.71,5.76,8.51,5.76,14.4
			v29.44c0,5.12-1.58,9.26-4.74,12.42c-3.16,3.16-7.3,4.74-12.42,4.74h-4.99c-1.62,0-2.99-0.45-4.1-1.34
			c-1.11-0.9-1.66-2.11-1.66-3.65v-1.92h-0.51c-2.13,4.52-6.57,6.78-13.31,6.78c-5.21,0-9.39-1.62-12.54-4.86
			c-3.16-3.24-4.74-7.76-4.74-13.57v-10.75c0-5.89,1.62-10.52,4.86-13.89c3.24-3.37,7.59-5.06,13.06-5.06h19.33
			c1.19,0,1.79,0.6,1.79,1.79v39.04c0,0.85,0.6,1.28,1.79,1.28h0.64c7.51,0,11.26-3.88,11.26-11.65v-28.29
			c0-4.61-1.37-8.17-4.1-10.69c-2.73-2.52-6.4-3.78-11.01-3.78h-24.45c-7.25,0-13.29,2.39-18.11,7.17
			c-4.82,4.78-7.23,11.14-7.23,19.07v20.1c0,7.94,2.47,14.29,7.42,19.07c4.95,4.78,11.09,7.17,18.43,7.17h23.3
			c1.19,0,1.79,0.55,1.79,1.66v2.56C1462.82,243.77,1462.22,244.37,1461.03,244.37z M1455.14,207.12v-20.48
			c0-0.85-0.43-1.28-1.28-1.28h-10.75c-7.17,0-10.75,3.71-10.75,11.14v11.26c0,7.42,3.58,11.14,10.75,11.14h0.26
			c3.84,0,6.76-1.02,8.77-3.07C1454.13,213.77,1455.14,210.88,1455.14,207.12z"/>
		<path class="st0" d="M1503.27,236.94h-6.4c-1.11,0-1.49-0.6-1.15-1.79l23.94-78.72c0.34-1.19,1.15-1.79,2.43-1.79h9.22
			c1.28,0,2.09,0.6,2.43,1.79l23.94,78.72c0.34,1.2-0.04,1.79-1.15,1.79h-6.53c-0.94,0-1.54-0.6-1.79-1.79l-6.02-18.69h-30.98
			l-6.02,18.69C1504.84,236.35,1504.2,236.94,1503.27,236.94z M1526.43,164.24l-13.18,44.29h26.88l-13.18-44.29H1526.43z"/>
		<path class="st0" d="M1578.91,236.94h-5.76c-1.2,0-1.79-0.6-1.79-1.79v-78.72c0-1.19,0.6-1.79,1.79-1.79h29.95
			c5.89,0,10.5,1.69,13.82,5.06c3.33,3.37,4.99,8,4.99,13.89v14.21c0,5.97-1.66,10.62-4.99,13.95c-3.33,3.33-7.94,4.99-13.82,4.99
			h-21.12c-0.85,0-1.28,0.38-1.28,1.15v27.26C1580.7,236.35,1580.11,236.94,1578.91,236.94z M1581.98,198.42h19.84
			c7.17,0,10.75-3.67,10.75-11.01v-13.44c0-7.42-3.58-11.14-10.75-11.14h-19.84c-0.85,0-1.28,0.38-1.28,1.15v33.28
			C1580.7,198.03,1581.13,198.42,1581.98,198.42z"/>
		<path class="st0" d="M1646.24,236.94h-5.76c-1.2,0-1.79-0.6-1.79-1.79v-78.72c0-1.19,0.6-1.79,1.79-1.79h29.95
			c5.89,0,10.5,1.69,13.82,5.06c3.33,3.37,4.99,8,4.99,13.89v14.21c0,5.97-1.66,10.62-4.99,13.95c-3.33,3.33-7.94,4.99-13.82,4.99
			h-21.12c-0.85,0-1.28,0.38-1.28,1.15v27.26C1648.03,236.35,1647.43,236.94,1646.24,236.94z M1649.31,198.42h19.84
			c7.17,0,10.75-3.67,10.75-11.01v-13.44c0-7.42-3.58-11.14-10.75-11.14h-19.84c-0.85,0-1.28,0.38-1.28,1.15v33.28
			C1648.03,198.03,1648.46,198.42,1649.31,198.42z"/>
		<path class="st0" d="M1748.89,236.94h-41.09c-1.2,0-1.79-0.6-1.79-1.79v-78.72c0-1.19,0.6-1.79,1.79-1.79h5.76
			c1.19,0,1.79,0.6,1.79,1.79v70.91c0,0.77,0.43,1.15,1.28,1.15h32.26c1.19,0,1.79,0.64,1.79,1.92v4.74
			C1750.68,236.35,1750.09,236.94,1748.89,236.94z"/>
		<path class="st0" d="M1805.72,236.94h-40.19c-1.2,0-1.79-0.6-1.79-1.79v-78.72c0-1.19,0.6-1.79,1.79-1.79h40.19
			c1.19,0,1.79,0.6,1.79,1.79v4.61c0,1.2-0.6,1.79-1.79,1.79h-31.36c-0.85,0-1.28,0.38-1.28,1.15v25.86c0,0.77,0.43,1.15,1.28,1.15
			h27.39c1.19,0,1.79,0.6,1.79,1.79v4.61c0,1.2-0.6,1.79-1.79,1.79h-27.39c-0.85,0-1.28,0.38-1.28,1.15v27.26
			c0,0.77,0.43,1.15,1.28,1.15h31.36c1.19,0,1.79,0.6,1.79,1.79v4.61C1807.52,236.35,1806.92,236.94,1805.72,236.94z"/>
		<path class="st0" d="M1832.47,219.66v15.49c0,1.2-0.56,1.79-1.66,1.79h-6.53c-1.11,0-1.66-0.6-1.66-1.79v-15.49
			c0-1.11,0.55-1.66,1.66-1.66h6.53C1831.92,218,1832.47,218.55,1832.47,219.66z"/>
		<path class="st0" d="M1883.03,236.94h-15.36c-5.89,0-10.52-1.66-13.89-4.99c-3.37-3.33-5.06-7.98-5.06-13.95v-44.42
			c0-5.97,1.68-10.62,5.06-13.95c3.37-3.33,8-4.99,13.89-4.99h15.36c5.89,0,10.52,1.66,13.89,4.99c3.37,3.33,5.06,7.98,5.06,13.95
			v6.27c0,1.2-0.6,1.79-1.79,1.79h-5.76c-1.2,0-1.79-0.6-1.79-1.79v-5.89c0-7.42-3.58-11.14-10.75-11.14h-13.18
			c-7.08,0-10.62,3.71-10.62,11.14v43.65c0,7.42,3.54,11.14,10.62,11.14h13.18c7.17,0,10.75-3.71,10.75-11.14v-5.89
			c0-1.19,0.6-1.79,1.79-1.79h5.76c1.19,0,1.79,0.6,1.79,1.79V218c0,5.97-1.69,10.62-5.06,13.95
			C1893.55,235.28,1888.92,236.94,1883.03,236.94z"/>
		<path class="st0" d="M1952.15,236.94h-15.23c-5.89,0-10.52-1.66-13.89-4.99c-3.37-3.33-5.06-7.98-5.06-13.95v-44.42
			c0-5.97,1.68-10.62,5.06-13.95c3.37-3.33,8-4.99,13.89-4.99h15.23c5.89,0,10.52,1.69,13.89,5.06c3.37,3.37,5.06,8,5.06,13.89V218
			c0,5.89-1.69,10.52-5.06,13.89C1962.67,235.26,1958.04,236.94,1952.15,236.94z M1937.94,228.75H1951
			c7.17,0,10.75-3.71,10.75-11.14v-43.65c0-7.42-3.58-11.14-10.75-11.14h-13.06c-7.08,0-10.62,3.71-10.62,11.14v43.65
			C1927.32,225.04,1930.86,228.75,1937.94,228.75z"/>
		<path class="st0" d="M2047.89,154.64h10.37c1.19,0,1.79,0.6,1.79,1.79v78.72c0,1.2-0.6,1.79-1.79,1.79h-5.63
			c-1.2,0-1.79-0.6-1.79-1.79v-67.97h-0.51l-19.84,50.18c-0.51,1.11-1.28,1.66-2.3,1.66h-6.14c-1.11,0-1.84-0.55-2.18-1.66
			l-20.22-50.3h-0.51v68.1c0,1.2-0.56,1.79-1.66,1.79h-5.63c-1.2,0-1.79-0.6-1.79-1.79v-78.72c0-1.19,0.6-1.79,1.79-1.79h10.37
			c0.77,0,1.28,0.34,1.54,1.02l20.99,52.99h0.64l20.99-52.99C2046.53,154.98,2047.04,154.64,2047.89,154.64z"/>
	</g>
</g>
</svg>
