<?xml version="1.0" encoding="UTF-8" standalone="no"?>
<!DOCTYPE svg PUBLIC "-//W3C//DTD SVG 1.1//EN" "http://www.w3.org/Graphics/SVG/1.1/DTD/svg11.dtd">
<!-- Created with Vectornator (http://vectornator.io/) -->
<svg height="100%" stroke-miterlimit="10" style="fill-rule:nonzero;clip-rule:evenodd;stroke-linecap:round;stroke-linejoin:round;" version="1.1" viewBox="0 0 1024 1128" width="100%" xml:space="preserve" xmlns="http://www.w3.org/2000/svg" xmlns:vectornator="http://vectornator.io" xmlns:xlink="http://www.w3.org/1999/xlink">
<defs/>
<clipPath id="ArtboardFrame">
<rect height="1128" width="1024" x="0" y="0"/>
</clipPath>
<g clip-path="url(#ArtboardFrame)" id="Text" vectornator:layerName="Text">
<path d="M32.14 811.13L22.32 811.13C20.83 811.13 20.08 811.85 20.08 813.31L20.08 815.94C20.08 817.41 20.82 818.15 22.32 818.15L32.14 818.15C33.63 818.15 34.38 817.41 34.38 815.94L34.38 813.31C34.38 811.85 33.63 811.13 32.14 811.13Z" fill="#ffffff" fill-rule="nonzero" opacity="1" stroke="none" vectornator:layerName="path"/>
<path d="M32.14 846.05L22.32 846.05C20.83 846.05 20.08 846.77 20.08 848.22L20.08 850.85C20.08 852.32 20.82 853.06 22.32 853.06L32.14 853.06C33.63 853.06 34.38 852.32 34.38 850.85L34.38 848.22C34.38 846.78 33.63 846.05 32.14 846.05Z" fill="#ffffff" fill-rule="nonzero" opacity="1" stroke="none" vectornator:layerName="path"/>
<path d="M34.07 773L27.33 773C27.13 773 27.03 773.11 27.03 773.33L27.03 777.35C27.03 778.78 27.77 779.5 29.27 779.5L32.14 779.5C33.63 779.5 34.38 778.78 34.38 777.35L34.38 773.33C34.38 773.11 34.28 773 34.07 773Z" fill="#ffffff" fill-rule="nonzero" opacity="1" stroke="none" vectornator:layerName="path"/>
<path d="M53.75 0L53.7188 0.0625L53.5938 0.0625L53.5938 0.28125L46.2188 13.0938L5.1875 13.125L0.71875 17.375L0.71875 870.125L5.1875 874.375L46.2188 874.406L53.5938 887.188L53.5938 971.125L744.125 971.125L776.5 1012.12L992.312 1012.12L1024.69 971.125L1024.69 0.0625L1024.66 0.0625L53.75 0.0625L53.75 0ZM65.5938 12.0625L1012.66 12.0625L1012.66 959.125L65.5938 959.125L65.5938 12.0625ZM18.0312 770.094L36.4375 770.094C36.7775 770.094 36.9375 770.254 36.9375 770.594L36.9375 777.781C36.9375 779.251 36.5287 780.399 35.7188 781.219C34.8987 782.049 33.74 782.437 32.25 782.438L29.125 782.438C27.655 782.438 26.5075 782.049 25.6875 781.219C24.8575 780.389 24.4375 779.251 24.4375 777.781L24.4375 773.375C24.4375 773.135 24.325 773 24.125 773L18.0312 773C17.6912 773 17.5312 772.84 17.5312 772.5L17.5312 770.594C17.5312 770.254 17.6913 770.094 18.0312 770.094ZM18.0312 788.594L36.4375 788.594C36.7775 788.594 36.9375 788.785 36.9375 789.125L36.9375 791C36.9375 791.34 36.7775 791.531 36.4375 791.531L28.875 791.531C28.675 791.531 28.5938 791.635 28.5938 791.875L28.5938 798.25C28.5938 798.45 28.675 798.563 28.875 798.562L36.4375 798.562C36.7775 798.562 36.9375 798.722 36.9375 799.062L36.9375 801C36.9375 801.34 36.7775 801.5 36.4375 801.5L18.0312 801.5C17.6912 801.5 17.5313 801.34 17.5312 801L17.5312 799.062C17.5312 798.722 17.6912 798.562 18.0312 798.562L25.6562 798.562C25.8563 798.562 25.9688 798.45 25.9688 798.25L25.9688 791.875C25.9688 791.635 25.8562 791.531 25.6562 791.531L18.0312 791.531C17.6912 791.531 17.5313 791.34 17.5312 791L17.5312 789.125C17.5312 788.785 17.6912 788.594 18.0312 788.594ZM22.1875 808.188L32.25 808.188C33.74 808.188 34.8988 808.596 35.7188 809.406C36.5388 810.226 36.9375 811.385 36.9375 812.875L36.9375 816.375C36.9375 817.865 36.5287 819.024 35.7188 819.844C34.8987 820.674 33.74 821.094 32.25 821.094L22.1875 821.094C20.7175 821.094 19.57 820.674 18.75 819.844C17.92 819.014 17.5312 817.865 17.5312 816.375L17.5312 812.875C17.5312 811.385 17.92 810.226 18.75 809.406C19.58 808.586 20.7175 808.188 22.1875 808.188ZM34.875 825.969L36.4062 825.969C36.7463 825.969 36.9375 826.14 36.9375 826.5L36.9375 837.719C36.9375 838.079 36.7775 838.25 36.4375 838.25L34.875 838.25C34.535 838.25 34.375 838.079 34.375 837.719L34.375 833.906C34.375 833.686 34.2937 833.563 34.0938 833.562L18.0312 833.562C17.6912 833.562 17.5313 833.403 17.5312 833.062L17.5312 831.156C17.5312 830.796 17.6912 830.625 18.0312 830.625L34.0625 830.625C34.2625 830.625 34.375 830.512 34.375 830.312L34.375 826.5C34.375 826.14 34.535 825.969 34.875 825.969ZM22.1875 843.125L32.25 843.125C33.74 843.125 34.8988 843.534 35.7188 844.344C36.5388 845.164 36.9375 846.322 36.9375 847.812L36.9375 851.312C36.9375 852.802 36.5287 853.961 35.7188 854.781C34.8987 855.611 33.74 856.031 32.25 856.031L22.1875 856.031C20.7175 856.031 19.57 855.611 18.75 854.781C17.92 853.951 17.5312 852.803 17.5312 851.312L17.5312 847.812C17.5312 846.323 17.92 845.164 18.75 844.344C19.58 843.524 20.7175 843.125 22.1875 843.125Z" fill="#ffffff" fill-rule="nonzero" opacity="1" stroke="none"/>
<path d="M-0.1875 1003.12L-0.1875 1124.06L0.03125 1124.06L0.03125 1096.03L744.406 1096.03L744.406 1041.56L713.438 1003.12L-0.1875 1003.12ZM124.438 1030.44L144.938 1030.44C145.62 1030.44 145.938 1030.77 145.938 1031.5L145.938 1034.78C145.938 1035.51 145.62 1035.88 144.938 1035.88L130.344 1035.88C129.832 1035.88 129.563 1036.07 129.562 1036.5L129.562 1047.31C129.562 1047.74 129.832 1047.97 130.344 1047.97L142.688 1047.97C143.456 1047.97 143.844 1048.31 143.844 1049.03L143.844 1052.31C143.844 1053.04 143.455 1053.41 142.688 1053.41L130.344 1053.41C129.832 1053.41 129.563 1053.6 129.562 1054.03L129.562 1065.44C129.562 1065.91 129.832 1066.12 130.344 1066.12L144.938 1066.12C145.62 1066.12 145.938 1066.49 145.938 1067.22L145.938 1070.5C145.938 1071.23 145.62 1071.56 144.938 1071.56L124.438 1071.56C123.712 1071.56 123.375 1071.23 123.375 1070.5L123.375 1031.5C123.375 1030.77 123.712 1030.44 124.438 1030.44ZM155.156 1030.44L158.75 1030.44C159.433 1030.44 159.9 1030.66 160.156 1031.12L175.656 1058.97L175.906 1058.97L175.906 1031.5C175.906 1030.77 176.275 1030.44 177 1030.44L180.969 1030.44C181.694 1030.44 182.062 1030.77 182.062 1031.5L182.062 1070.5C182.062 1071.23 181.694 1071.56 180.969 1071.56L177.5 1071.56C176.817 1071.56 176.27 1071.25 175.844 1070.56L160.469 1043.03L160.219 1043.03L160.219 1070.5C160.219 1071.23 159.85 1071.56 159.125 1071.56L155.156 1071.56C154.431 1071.56 154.094 1071.23 154.094 1070.5L154.094 1031.5C154.094 1030.77 154.431 1030.44 155.156 1030.44ZM200.688 1030.44L208.094 1030.44C211.208 1030.44 213.657 1031.27 215.406 1033C217.156 1034.73 218.031 1037.19 218.031 1040.34L218.031 1043.41C218.031 1044.17 217.643 1044.56 216.875 1044.56L212.844 1044.56C212.118 1044.56 211.75 1044.17 211.75 1043.41L211.75 1040.59C211.75 1037.44 210.197 1035.87 207.125 1035.88L201.562 1035.88C198.49 1035.88 196.969 1037.44 196.969 1040.59L196.969 1061.41C196.969 1064.56 198.49 1066.13 201.562 1066.12L207.125 1066.12C210.197 1066.12 211.75 1064.56 211.75 1061.41L211.75 1058.59C211.75 1057.83 212.118 1057.44 212.844 1057.44L216.875 1057.44C217.643 1057.44 218.031 1057.83 218.031 1058.59L218.031 1061.66C218.031 1064.77 217.156 1067.19 215.406 1068.94C213.657 1070.69 211.209 1071.56 208.094 1071.56L200.688 1071.56C197.53 1071.56 195.072 1070.69 193.344 1068.94C191.616 1067.19 190.75 1064.77 190.75 1061.66L190.75 1040.34C190.75 1037.19 191.616 1034.73 193.344 1033C195.072 1031.27 197.53 1030.44 200.688 1030.44ZM227.031 1030.44L247.531 1030.44C248.214 1030.44 248.531 1030.77 248.531 1031.5L248.531 1034.78C248.531 1035.51 248.214 1035.88 247.531 1035.88L232.938 1035.88C232.425 1035.88 232.156 1036.07 232.156 1036.5L232.156 1047.31C232.156 1047.74 232.425 1047.97 232.938 1047.97L245.281 1047.97C246.049 1047.97 246.437 1048.31 246.438 1049.03L246.438 1052.31C246.438 1053.04 246.049 1053.41 245.281 1053.41L232.938 1053.41C232.425 1053.41 232.156 1053.6 232.156 1054.03L232.156 1065.44C232.156 1065.91 232.425 1066.12 232.938 1066.12L247.531 1066.12C248.214 1066.12 248.531 1066.49 248.531 1067.22L248.531 1070.5C248.531 1071.23 248.214 1071.56 247.531 1071.56L227.031 1071.56C226.306 1071.56 225.938 1071.23 225.938 1070.5L225.938 1031.5C225.938 1030.77 226.306 1030.44 227.031 1030.44ZM257.75 1030.44L272.75 1030.44C275.865 1030.44 278.292 1031.32 280.062 1033.09C281.833 1034.86 282.719 1037.29 282.719 1040.41L282.719 1045.78C282.719 1050.69 280.71 1053.78 276.656 1055.06L276.656 1055.31L283.75 1070.28C284.219 1071.13 283.93 1071.56 282.906 1071.56L278.938 1071.56C277.913 1071.56 277.267 1071.23 276.969 1070.5L270.125 1055.78L263.656 1055.78C263.144 1055.78 262.875 1055.98 262.875 1056.41L262.875 1070.5C262.875 1071.23 262.507 1071.56 261.781 1071.56L257.75 1071.56C257.025 1071.56 256.688 1071.23 256.688 1070.5L256.688 1031.5C256.688 1030.77 257.025 1030.44 257.75 1030.44ZM307.688 1030.44L311.719 1030.44C312.444 1030.44 312.812 1030.77 312.812 1031.5L312.812 1047.5C312.812 1047.93 313.05 1048.16 313.562 1048.16L327.062 1048.16C327.489 1048.16 327.719 1047.93 327.719 1047.5L327.719 1031.5C327.719 1030.77 328.087 1030.44 328.812 1030.44L332.906 1030.44C333.632 1030.44 334 1030.77 334 1031.5L334 1070.5C334 1071.23 333.632 1071.56 332.906 1071.56L328.812 1071.56C328.087 1071.56 327.719 1071.23 327.719 1070.5L327.719 1054.28C327.719 1053.85 327.489 1053.66 327.062 1053.66L313.562 1053.66C313.051 1053.66 312.813 1053.85 312.812 1054.28L312.812 1070.5C312.812 1071.23 312.444 1071.56 311.719 1071.56L307.688 1071.56C306.962 1071.56 306.594 1071.23 306.594 1070.5L306.594 1031.5C306.594 1030.77 306.962 1030.44 307.688 1030.44ZM353 1030.44L359.406 1030.44C360.26 1030.44 360.767 1030.77 360.938 1031.5L372.062 1070.5C372.233 1071.23 372.015 1071.56 371.375 1071.56L366.812 1071.56C366.428 1071.56 366.181 1071.49 366.031 1071.34C365.882 1071.19 365.742 1070.93 365.656 1070.5L363.219 1062.16L349.156 1062.16L346.719 1070.5C346.548 1071.23 346.16 1071.56 345.562 1071.56L340.969 1071.56C340.371 1071.56 340.142 1071.23 340.312 1070.5L351.469 1031.5C351.682 1030.77 352.189 1030.44 353 1030.44ZM379.5 1030.44L394.469 1030.44C397.583 1030.44 400.011 1031.32 401.781 1033.09C403.552 1034.86 404.438 1037.29 404.438 1040.41L404.438 1045.78C404.438 1050.69 402.428 1053.78 398.375 1055.06L398.375 1055.31L405.469 1070.28C405.938 1071.13 405.68 1071.56 404.656 1071.56L400.688 1071.56C399.663 1071.56 398.986 1071.23 398.688 1070.5L391.844 1055.78L385.375 1055.78C384.863 1055.78 384.594 1055.98 384.594 1056.41L384.594 1070.5C384.594 1071.23 384.257 1071.56 383.531 1071.56L379.5 1071.56C378.775 1071.56 378.406 1071.23 378.406 1070.5L378.406 1031.5C378.406 1030.77 378.775 1030.44 379.5 1030.44ZM410.469 1030.44L434.219 1030.44C434.987 1030.44 435.375 1030.77 435.375 1031.5L435.375 1034.78C435.375 1035.51 434.987 1035.88 434.219 1035.88L426.156 1035.88C425.687 1035.88 425.437 1036.07 425.438 1036.5L425.438 1070.5C425.438 1071.23 425.069 1071.56 424.344 1071.56L420.312 1071.56C419.544 1071.56 419.156 1071.23 419.156 1070.5L419.156 1036.5C419.156 1036.07 418.958 1035.87 418.531 1035.88L410.469 1035.88C409.701 1035.88 409.312 1035.51 409.312 1034.78L409.312 1031.5C409.312 1030.77 409.701 1030.44 410.469 1030.44ZM441.938 1030.44L446 1030.44C446.725 1030.44 447.063 1030.77 447.062 1031.5L447.062 1065.38C447.062 1065.8 447.332 1066 447.844 1066L462.688 1066C463.413 1066 463.781 1066.39 463.781 1067.16L463.781 1070.5C463.781 1071.23 463.413 1071.56 462.688 1071.56L441.938 1071.56C441.212 1071.56 440.875 1071.23 440.875 1070.5L440.875 1031.5C440.875 1030.77 441.212 1030.44 441.938 1030.44ZM479.344 1030.44L485.719 1030.44C486.572 1030.44 487.079 1030.77 487.25 1031.5L498.406 1070.5C498.577 1071.23 498.327 1071.56 497.688 1071.56L493.156 1071.56C492.772 1071.56 492.493 1071.49 492.344 1071.34C492.194 1071.19 492.085 1070.93 492 1070.5L489.562 1062.16L475.5 1062.16L473.062 1070.5C472.892 1071.23 472.503 1071.56 471.906 1071.56L467.312 1071.56C466.715 1071.56 466.486 1071.23 466.656 1070.5L477.781 1031.5C477.995 1030.77 478.533 1030.44 479.344 1030.44ZM505.812 1030.44L509.406 1030.44C510.089 1030.44 510.556 1030.66 510.812 1031.12L526.312 1058.97L526.562 1058.97L526.562 1031.5C526.562 1030.77 526.931 1030.44 527.656 1030.44L531.625 1030.44C532.35 1030.44 532.719 1030.77 532.719 1031.5L532.719 1070.5C532.719 1071.23 532.35 1071.56 531.625 1071.56L528.156 1071.56C527.474 1071.56 526.927 1071.25 526.5 1070.56L511.125 1043.03L510.875 1043.03L510.875 1070.5C510.875 1071.23 510.507 1071.56 509.781 1071.56L505.812 1071.56C505.087 1071.56 504.75 1071.23 504.75 1070.5L504.75 1031.5C504.75 1030.77 505.087 1030.44 505.812 1030.44ZM543.125 1030.44L558.875 1030.44C561.99 1030.44 564.448 1031.27 566.219 1033C567.989 1034.73 568.875 1037.19 568.875 1040.34L568.875 1061.66C568.875 1064.77 567.989 1067.19 566.219 1068.94C564.448 1070.69 561.99 1071.56 558.875 1071.56L543.125 1071.56C542.4 1071.56 542.062 1071.23 542.062 1070.5L542.062 1031.5C542.062 1030.77 542.4 1030.44 543.125 1030.44ZM63.75 1030.47L70.5312 1030.47C73.6886 1030.47 76.1356 1031.35 77.9062 1033.12C79.6769 1034.9 80.5625 1037.32 80.5625 1040.44L80.5625 1041.84C80.5625 1042.57 80.2253 1042.94 79.5 1042.94L75.4062 1042.94C74.6809 1042.94 74.3125 1042.57 74.3125 1041.84L74.3125 1041C74.3125 1039.17 73.9143 1037.85 73.125 1037.06C72.3357 1036.27 71.0222 1035.91 69.1875 1035.91L65.1562 1035.91C63.3216 1035.91 62.0081 1036.32 61.2188 1037.16C60.4294 1037.99 60.0312 1039.4 60.0312 1041.41L60.0312 1043.38C60.0313 1045.3 61.4142 1046.6 64.1875 1047.28C65.4248 1047.58 66.778 1047.85 68.25 1048.06C69.722 1048.28 71.2254 1048.57 72.7188 1049C74.2121 1049.43 75.5752 1050.01 76.8125 1050.72C78.0498 1051.42 79.0445 1052.48 79.8125 1053.91C80.5805 1055.34 80.9688 1057.08 80.9688 1059.12L80.9688 1061.62C80.9688 1064.74 80.0832 1067.17 78.3125 1068.94C76.5418 1070.71 74.0834 1071.59 70.9688 1071.59L63.8125 1071.59C60.6978 1071.59 58.2295 1070.71 56.4375 1068.94C54.6455 1067.17 53.75 1064.74 53.75 1061.62L53.75 1059.97C53.75 1059.24 54.1184 1058.87 54.8438 1058.88L58.9375 1058.88C59.6628 1058.88 60.0313 1059.24 60.0312 1059.97L60.0312 1061.12C60.0312 1062.92 60.4294 1064.18 61.2188 1064.97C62.0081 1065.76 63.3216 1066.16 65.1562 1066.16L69.5625 1066.16C71.3972 1066.16 72.7205 1065.74 73.5312 1064.91C74.3419 1064.07 74.75 1062.72 74.75 1060.84L74.75 1059.38C74.75 1058.01 74.2328 1056.95 73.1875 1056.16C72.1422 1055.37 70.8485 1054.86 69.3125 1054.62C67.7765 1054.39 66.0847 1054.05 64.25 1053.62C62.4153 1053.2 60.7235 1052.71 59.1875 1052.16C57.6515 1051.6 56.389 1050.54 55.3438 1049C54.2984 1047.46 53.75 1045.51 53.75 1043.12L53.75 1040.44C53.75 1037.32 54.6356 1034.9 56.4062 1033.12C58.1769 1031.35 60.6353 1030.47 63.75 1030.47ZM90.7188 1030.47L105.938 1030.47C109.052 1030.47 111.469 1031.33 113.219 1033.06C114.968 1034.79 115.844 1037.22 115.844 1040.38L115.844 1047.03C115.844 1050.15 114.968 1052.59 113.219 1054.34C111.469 1056.09 109.052 1056.97 105.938 1056.97L96.5938 1056.97C96.0817 1056.97 95.8125 1057.17 95.8125 1057.59L95.8125 1070.53C95.8125 1071.26 95.4753 1071.63 94.75 1071.62L90.7188 1071.62C89.9934 1071.62 89.625 1071.26 89.625 1070.53L89.625 1031.56C89.625 1030.84 89.9934 1030.47 90.7188 1030.47ZM263.594 1035.88C263.124 1035.88 262.875 1036.07 262.875 1036.5L262.875 1050C262.875 1050.43 263.124 1050.66 263.594 1050.66L271.719 1050.66C274.876 1050.66 276.437 1049.08 276.438 1045.97L276.438 1040.59C276.438 1037.44 274.876 1035.87 271.719 1035.88L263.594 1035.88ZM385.312 1035.88C384.843 1035.88 384.594 1036.07 384.594 1036.5L384.594 1050C384.594 1050.43 384.843 1050.66 385.312 1050.66L393.438 1050.66C396.595 1050.66 398.187 1049.08 398.188 1045.97L398.188 1040.59C398.188 1037.44 396.595 1035.87 393.438 1035.88L385.312 1035.88ZM548.969 1035.88C548.499 1035.88 548.25 1036.07 548.25 1036.5L548.25 1065.44C548.25 1065.91 548.499 1066.12 548.969 1066.12L558 1066.12C561.072 1066.12 562.594 1064.56 562.594 1061.41L562.594 1040.59C562.594 1037.44 561.072 1035.87 558 1035.88L548.969 1035.88ZM96.5312 1035.91C96.0619 1035.91 95.8125 1036.14 95.8125 1036.56L95.8125 1050.81C95.8125 1051.24 96.0619 1051.47 96.5312 1051.47L105.031 1051.47C108.061 1051.47 109.594 1049.88 109.594 1046.72L109.594 1040.66C109.594 1037.5 108.061 1035.91 105.031 1035.91L96.5312 1035.91ZM356.062 1036.56L350.438 1057.03L362.031 1057.03L356.312 1036.56L356.062 1036.56ZM482.406 1036.56L476.781 1057.03L488.344 1057.03L482.656 1036.56L482.406 1036.56Z" fill="#ffffff" fill-rule="nonzero" opacity="1" stroke="none"/>
</g>
</svg>
