<?xml version="1.0" encoding="UTF-8" standalone="no"?>
<!DOCTYPE svg PUBLIC "-//W3C//DTD SVG 1.1//EN" "http://www.w3.org/Graphics/SVG/1.1/DTD/svg11.dtd">
<!-- Created with Vectornator (http://vectornator.io/) -->
<svg height="100%" stroke-miterlimit="10" style="fill-rule:nonzero;clip-rule:evenodd;stroke-linecap:round;stroke-linejoin:round;" version="1.1" viewBox="0 0 1024 1024" width="100%" xml:space="preserve" xmlns="http://www.w3.org/2000/svg" xmlns:vectornator="http://vectornator.io" xmlns:xlink="http://www.w3.org/1999/xlink">
<defs/>
<clipPath id="ArtboardFrame">
<rect height="1024" width="1024" x="0" y="0"/>
</clipPath>
<g clip-path="url(#ArtboardFrame)" id="Text" vectornator:layerName="Text">
<path d="M1012.67 12.05L1012.67 959.14L65.59 959.14L65.59 12.05L1012.67 12.05M1024.67 0.05L53.59 0.05L53.59 971.14L1024.68 971.14L1024.68 0.05L1024.67 0.05Z" fill="#ffffff" fill-rule="nonzero" opacity="1" stroke="none" vectornator:layerName="path"/>
<path d="M744.14 970.14L776.51 1011.14L992.31 1011.14L1024.68 970.14L744.14 970.14Z" fill="#ffffff" fill-rule="nonzero" opacity="1" stroke="none"/>
<g opacity="1" vectornator:layerName="g">
<path d="M33.14 811.13L23.32 811.13C21.83 811.13 21.08 811.85 21.08 813.31L21.08 815.94C21.08 817.41 21.82 818.15 23.32 818.15L33.14 818.15C34.63 818.15 35.38 817.41 35.38 815.94L35.38 813.31C35.38 811.85 34.63 811.13 33.14 811.13Z" fill="#ffffff" fill-rule="nonzero" opacity="1" stroke="none" vectornator:layerName="path"/>
<path d="M33.14 846.05L23.32 846.05C21.83 846.05 21.08 846.77 21.08 848.22L21.08 850.85C21.08 852.32 21.82 853.06 23.32 853.06L33.14 853.06C34.63 853.06 35.38 852.32 35.38 850.85L35.38 848.22C35.38 846.78 34.63 846.05 33.14 846.05Z" fill="#ffffff" fill-rule="nonzero" opacity="1" stroke="none" vectornator:layerName="path"/>
<path d="M35.07 773L28.33 773C28.13 773 28.03 773.11 28.03 773.33L28.03 777.35C28.03 778.78 28.77 779.5 30.27 779.5L33.14 779.5C34.63 779.5 35.38 778.78 35.38 777.35L35.38 773.33C35.38 773.11 35.28 773 35.07 773Z" fill="#ffffff" fill-rule="nonzero" opacity="1" stroke="none" vectornator:layerName="path"/>
<path d="M47.22 13.08L6.18 13.12L1.72 17.36L1.72 870.13L6.18 874.36L47.22 874.4L54.74 887.48L54.74 0L47.22 13.08ZM37.94 851.31C37.94 852.8 37.53 853.96 36.72 854.78C35.9 855.61 34.75 856.02 33.26 856.02L23.2 856.02C21.73 856.02 20.58 855.61 19.76 854.78C18.93 853.95 18.52 852.8 18.52 851.31L18.52 847.81C18.52 846.32 18.93 845.17 19.76 844.35C20.59 843.53 21.73 843.13 23.2 843.13L33.26 843.13C34.75 843.13 35.9 843.54 36.72 844.35C37.54 845.17 37.94 846.32 37.94 847.81L37.94 851.31ZM37.94 837.71C37.94 838.07 37.77 838.25 37.43 838.25L35.89 838.25C35.55 838.25 35.38 838.07 35.38 837.71L35.38 833.9C35.38 833.68 35.28 833.57 35.08 833.57L19.03 833.57C18.69 833.57 18.52 833.4 18.52 833.06L18.52 831.16C18.52 830.8 18.69 830.62 19.03 830.62L35.07 830.62C35.27 830.62 35.37 830.52 35.37 830.32L35.37 826.51C35.37 826.15 35.54 825.97 35.88 825.97L37.42 825.97C37.76 825.97 37.93 826.15 37.93 826.51L37.93 837.71L37.94 837.71ZM37.94 816.38C37.94 817.87 37.53 819.03 36.72 819.85C35.9 820.68 34.75 821.09 33.26 821.09L23.2 821.09C21.73 821.09 20.58 820.68 19.76 819.85C18.93 819.02 18.52 817.87 18.52 816.38L18.52 812.88C18.52 811.39 18.93 810.24 19.76 809.42C20.59 808.6 21.73 808.2 23.2 808.2L33.26 808.2C34.75 808.2 35.9 808.61 36.72 809.42C37.54 810.24 37.94 811.39 37.94 812.88L37.94 816.38ZM37.94 791.01C37.94 791.35 37.77 791.52 37.43 791.52L29.88 791.52C29.68 791.52 29.58 791.64 29.58 791.88L29.58 798.25C29.58 798.45 29.68 798.55 29.88 798.55L37.43 798.55C37.77 798.55 37.94 798.72 37.94 799.06L37.94 800.99C37.94 801.33 37.77 801.5 37.43 801.5L19.03 801.5C18.69 801.5 18.52 801.33 18.52 800.99L18.52 799.06C18.52 798.72 18.69 798.55 19.03 798.55L26.67 798.55C26.87 798.55 26.97 798.45 26.97 798.25L26.97 791.88C26.97 791.64 26.87 791.52 26.67 791.52L19.03 791.52C18.69 791.52 18.52 791.35 18.52 791.01L18.52 789.11C18.52 788.77 18.69 788.6 19.03 788.6L37.43 788.6C37.77 788.6 37.94 788.77 37.94 789.11L37.94 791.01ZM37.94 777.77C37.94 779.24 37.53 780.39 36.72 781.21C35.9 782.04 34.75 782.45 33.26 782.45L30.12 782.45C28.65 782.45 27.5 782.04 26.68 781.21C25.85 780.38 25.44 779.24 25.44 777.77L25.44 773.36C25.44 773.12 25.34 773 25.14 773L19.04 773C18.7 773 18.53 772.83 18.53 772.49L18.53 770.59C18.53 770.25 18.7 770.08 19.04 770.08L37.44 770.08C37.78 770.08 37.95 770.25 37.95 770.59L37.95 777.77L37.94 777.77Z" fill="#ffffff" fill-rule="nonzero" opacity="1" stroke="none" vectornator:layerName="path"/>
</g>
</g>
</svg>
