<?xml version="1.0" encoding="UTF-8" standalone="no"?>
<!DOCTYPE svg PUBLIC "-//W3C//DTD SVG 1.1//EN" "http://www.w3.org/Graphics/SVG/1.1/DTD/svg11.dtd">
<!-- Created with Vectornator (http://vectornator.io/) -->
<svg height="100%" stroke-miterlimit="10" style="fill-rule:nonzero;clip-rule:evenodd;stroke-linecap:round;stroke-linejoin:round;" version="1.1" viewBox="0 0 1621.17 424.628" width="100%" xml:space="preserve" xmlns="http://www.w3.org/2000/svg" xmlns:vectornator="http://vectornator.io" xmlns:xlink="http://www.w3.org/1999/xlink">
<defs>
<linearGradient gradientTransform="matrix(1 0 0 1 0 0.0577042)" gradientUnits="userSpaceOnUse" id="LinearGradient" x1="575.466" x2="1254.39" y1="5.76807" y2="661.474">
<stop offset="0" stop-color="#d0d0d0"/>
<stop offset="0.619213" stop-color="#303030"/>
</linearGradient>
<linearGradient gradientTransform="matrix(1 0 0 1 0 0)" gradientUnits="userSpaceOnUse" id="LinearGradient_2" x1="197.919" x2="1564.02" y1="212.314" y2="212.314">
<stop offset="0" stop-color="#b4b1b1"/>
<stop offset="0.986127" stop-color="#303030"/>
</linearGradient>
</defs>
<clipPath id="ArtboardFrame">
<rect height="424.628" width="1621.17" x="0" y="0"/>
</clipPath>
<g clip-path="url(#ArtboardFrame)" id="Layer_2_copy_13" vectornator:layerName="Layer_2_copy_13">
<path d="M-0.000115865 423.88L-0.000115865 309.455L25.6699 309.455L25.6699 169.325L-0.000115865 169.325L0.0998841 5.79323e-05L72.0999 5.79323e-05L71.9999 423.88L-0.000115865 423.88Z" fill="#b4b4b4" fill-rule="nonzero" opacity="1" stroke="none" vectornator:layerName="polygon"/>
<path d="M91.1562 0.0577042L93.0312 423.933L1537.22 423.933L1617.38 323.776L1617.38 0.0577042L91.1562 0.0577042ZM107.219 16.0577C139.022 16.0577 1569.69 16.0577 1601.38 16.0577L1601.38 318.151L1529.53 407.933L108.969 407.933L107.219 16.0577Z" fill="url(#LinearGradient)" fill-rule="nonzero" opacity="1" stroke="none"/>
<g fill="url(#LinearGradient_2)" opacity="1" stroke="none">
<path d="M330.747 134.771L359.419 134.771C362.32 134.771 363.771 136.222 363.771 139.123L363.771 295.027C363.771 297.929 362.32 299.379 359.419 299.379L343.547 299.379C340.645 299.379 339.195 297.929 339.195 295.027L339.195 165.747L338.171 165.747L304.891 259.443C303.867 262.174 301.989 263.539 299.259 263.539L282.875 263.539C280.315 263.539 278.523 262.174 277.499 259.443L243.451 165.491L242.427 165.491L242.427 295.027C242.427 296.734 242.128 297.886 241.531 298.483C240.933 299.081 239.781 299.379 238.075 299.379L222.459 299.379C219.557 299.379 218.107 297.929 218.107 295.027L218.107 139.123C218.107 136.222 219.557 134.771 222.459 134.771L251.131 134.771C253.008 134.771 254.373 135.71 255.227 137.587L290.299 236.403L291.579 236.403L326.907 137.587C327.248 135.71 328.528 134.771 330.747 134.771Z"/>
<path d="M488.443 299.379L405.499 299.379C402.597 299.379 401.147 297.929 401.147 295.027L401.147 139.123C401.147 136.222 402.597 134.771 405.499 134.771L421.627 134.771C424.528 134.771 425.979 136.222 425.979 139.123L425.979 274.547C425.979 276.254 427.003 277.107 429.051 277.107L488.443 277.107C491.344 277.107 492.795 278.643 492.795 281.715L492.795 295.027C492.795 297.929 491.344 299.379 488.443 299.379Z"/>
<path d="M587.771 299.379L573.179 299.379C569.595 299.379 568.4 297.843 569.595 294.771C573.349 285.214 582.907 259.443 598.267 217.459C613.627 175.475 623.269 149.449 627.195 139.379C628.56 136.307 630.523 134.771 633.083 134.771L647.931 134.771C651.173 134.771 652.283 136.393 651.259 139.635L593.659 294.771C592.635 297.843 590.672 299.379 587.771 299.379Z"/>
<path d="M750.587 299.379L732.155 299.379C729.765 299.379 728.912 297.929 729.595 295.027L774.139 139.123C774.992 136.222 777.04 134.771 780.283 134.771L805.883 134.771C809.296 134.771 811.344 136.222 812.027 139.123L856.571 295.027C857.253 297.929 856.315 299.379 853.755 299.379L835.579 299.379C834.043 299.379 832.976 299.081 832.379 298.483C831.781 297.886 831.312 296.734 830.971 295.027L821.243 261.747L764.923 261.747L755.195 295.027C754.512 297.929 752.976 299.379 750.587 299.379ZM792.571 159.347L770.043 241.267L816.379 241.267L793.595 159.347L792.571 159.347Z"/>
<path d="M908.027 139.123L908.027 295.027C908.027 297.929 906.576 299.379 903.675 299.379L887.547 299.379C884.645 299.379 883.195 297.929 883.195 295.027L883.195 139.123C883.195 136.222 884.645 134.771 887.547 134.771L903.675 134.771C906.576 134.771 908.027 136.222 908.027 139.123Z"/>
</g>
</g>
</svg>
