<?xml version="1.0" encoding="UTF-8" standalone="no"?>
<!DOCTYPE svg PUBLIC "-//W3C//DTD SVG 1.1//EN" "http://www.w3.org/Graphics/SVG/1.1/DTD/svg11.dtd">
<!-- Created with Vectornator (http://vectornator.io/) -->
<svg height="100%" stroke-miterlimit="10" style="fill-rule:nonzero;clip-rule:evenodd;stroke-linecap:round;stroke-linejoin:round;" version="1.1" viewBox="0 0 1621.17 424.628" width="100%" xml:space="preserve" xmlns="http://www.w3.org/2000/svg" xmlns:vectornator="http://vectornator.io" xmlns:xlink="http://www.w3.org/1999/xlink">
<defs/>
<clipPath id="ArtboardFrame">
<rect height="424.628" width="1621.17" x="0" y="0"/>
</clipPath>
<g clip-path="url(#ArtboardFrame)" id="Layer_2_copy_13" vectornator:layerName="Layer_2_copy_13">
<path d="M-0.000115865 423.88L-0.000115865 309.455L25.6699 309.455L25.6699 169.325L-0.000115865 169.325L0.0998841 5.79323e-05L72.0999 5.79323e-05L71.9999 423.88L-0.000115865 423.88Z" fill="#ffffff" fill-rule="nonzero" opacity="1" stroke="none" vectornator:layerName="polygon"/>
<path d="M91.1562 0L93.0312 423.875L1537.22 423.875L1617.38 323.719L1617.38 0L91.1562 0ZM107.219 16C139.022 16 1569.69 16 1601.38 16L1601.38 318.094L1529.53 407.875L108.969 407.875L107.219 16Z" fill="#ffffff" fill-rule="nonzero" opacity="1" stroke="none"/>
<g fill="#ffffff" opacity="1" stroke="none">
<path d="M238.587 299.379L222.459 299.379C219.557 299.379 218.107 297.929 218.107 295.027L218.107 139.123C218.107 136.222 219.557 134.771 222.459 134.771L238.587 134.771C241.488 134.771 242.939 136.222 242.939 139.123L242.939 203.123C242.939 204.83 243.963 205.683 246.011 205.683L300.027 205.683C301.733 205.683 302.587 204.83 302.587 203.123L302.587 139.123C302.587 136.222 304.037 134.771 306.939 134.771L323.323 134.771C326.224 134.771 327.675 136.222 327.675 139.123L327.675 295.027C327.675 297.929 326.224 299.379 323.323 299.379L306.939 299.379C304.037 299.379 302.587 297.929 302.587 295.027L302.587 230.259C302.587 228.553 301.733 227.699 300.027 227.699L246.011 227.699C243.963 227.699 242.939 228.553 242.939 230.259L242.939 295.027C242.939 297.929 241.488 299.379 238.587 299.379Z"/>
<path d="M410.107 299.379L393.979 299.379C390.907 299.379 389.371 297.929 389.371 295.027L389.371 159.091C389.371 157.385 388.517 156.531 386.811 156.531L354.555 156.531C351.483 156.531 349.947 155.081 349.947 152.179L349.947 139.123C349.947 136.222 351.483 134.771 354.555 134.771L449.531 134.771C452.603 134.771 454.139 136.222 454.139 139.123L454.139 152.179C454.139 155.081 452.603 156.531 449.531 156.531L417.275 156.531C415.397 156.531 414.459 157.385 414.459 159.091L414.459 295.027C414.459 297.929 413.008 299.379 410.107 299.379Z"/>
<path d="M521.211 299.379L505.083 299.379C502.011 299.379 500.475 297.929 500.475 295.027L500.475 159.091C500.475 157.385 499.621 156.531 497.915 156.531L465.659 156.531C462.587 156.531 461.051 155.081 461.051 152.179L461.051 139.123C461.051 136.222 462.587 134.771 465.659 134.771L560.635 134.771C563.707 134.771 565.243 136.222 565.243 139.123L565.243 152.179C565.243 155.081 563.707 156.531 560.635 156.531L528.379 156.531C526.501 156.531 525.563 157.385 525.563 159.091L525.563 295.027C525.563 297.929 524.112 299.379 521.211 299.379Z"/>
<path d="M607.739 299.379L591.611 299.379C588.709 299.379 587.259 297.929 587.259 295.027L587.259 139.123C587.259 136.222 588.709 134.771 591.611 134.771L652.539 134.771C664.997 134.771 674.725 138.227 681.723 145.139C688.72 152.051 692.219 161.822 692.219 174.451L692.219 201.075C692.219 213.534 688.72 223.262 681.723 230.259C674.725 237.257 664.997 240.755 652.539 240.755L615.163 240.755C613.115 240.755 612.091 241.609 612.091 243.315L612.091 295.027C612.091 297.929 610.64 299.379 607.739 299.379ZM614.907 218.739L648.955 218.739C661.072 218.739 667.131 212.425 667.131 199.795L667.131 175.475C667.131 162.846 661.072 156.531 648.955 156.531L614.907 156.531C613.029 156.531 612.091 157.385 612.091 159.091L612.091 216.179C612.091 217.886 613.029 218.739 614.907 218.739Z"/>
<path d="M793.851 299.379L779.259 299.379C775.675 299.379 774.48 297.843 775.675 294.771C779.429 285.214 788.987 259.443 804.347 217.459C819.707 175.475 829.349 149.449 833.275 139.379C834.64 136.307 836.603 134.771 839.163 134.771L854.011 134.771C857.253 134.771 858.363 136.393 857.339 139.635L799.739 294.771C798.715 297.843 796.752 299.379 793.851 299.379Z"/>
<path d="M968.187 299.379L952.059 299.379C949.157 299.379 947.707 297.929 947.707 295.027L947.707 139.123C947.707 136.222 949.157 134.771 952.059 134.771L1011.96 134.771C1024.42 134.771 1034.19 138.313 1041.27 145.395C1048.36 152.478 1051.9 162.249 1051.9 174.707L1051.9 196.211C1051.9 215.838 1043.79 228.211 1027.58 233.331L1027.58 234.355L1055.99 294.259C1057.87 297.673 1056.76 299.379 1052.67 299.379L1036.79 299.379C1032.7 299.379 1030.05 297.929 1028.86 295.027L1001.47 236.147L975.611 236.147C973.563 236.147 972.539 237.001 972.539 238.707L972.539 295.027C972.539 297.929 971.088 299.379 968.187 299.379ZM975.355 215.667L1007.87 215.667C1020.5 215.667 1026.81 209.438 1026.81 196.979L1026.81 175.475C1026.81 162.846 1020.5 156.531 1007.87 156.531L975.355 156.531C973.477 156.531 972.539 157.385 972.539 159.091L972.539 213.107C972.539 214.814 973.477 215.667 975.355 215.667Z"/>
<path d="M1172.73 299.379L1090.81 299.379C1087.91 299.379 1086.46 297.929 1086.46 295.027L1086.46 139.123C1086.46 136.222 1087.91 134.771 1090.81 134.771L1172.73 134.771C1175.46 134.771 1176.83 136.222 1176.83 139.123L1176.83 152.179C1176.83 155.081 1175.46 156.531 1172.73 156.531L1114.36 156.531C1112.31 156.531 1111.29 157.385 1111.29 159.091L1111.29 202.355C1111.29 204.062 1112.31 204.915 1114.36 204.915L1163.77 204.915C1166.84 204.915 1168.38 206.366 1168.38 209.267L1168.38 222.323C1168.38 225.225 1166.84 226.675 1163.77 226.675L1114.36 226.675C1112.31 226.675 1111.29 227.529 1111.29 229.235L1111.29 274.803C1111.29 276.681 1112.31 277.619 1114.36 277.619L1172.73 277.619C1175.46 277.619 1176.83 279.07 1176.83 281.971L1176.83 295.027C1176.83 297.929 1175.46 299.379 1172.73 299.379Z"/>
<path d="M1206.27 259.443L1206.27 252.787C1206.27 249.886 1207.72 248.435 1210.62 248.435L1227 248.435C1229.9 248.435 1231.35 249.886 1231.35 252.787L1231.35 257.395C1231.35 264.563 1232.93 269.726 1236.09 272.883C1239.25 276.041 1244.5 277.619 1251.83 277.619L1269.5 277.619C1276.84 277.619 1282.13 275.955 1285.37 272.627C1288.61 269.299 1290.23 263.881 1290.23 256.371L1290.23 250.483C1290.23 245.022 1288.14 240.713 1283.96 237.555C1279.78 234.398 1274.62 232.35 1268.47 231.411C1262.33 230.473 1255.59 229.15 1248.25 227.443C1240.91 225.737 1234.17 223.774 1228.03 221.555C1221.88 219.337 1216.72 215.155 1212.54 209.011C1208.36 202.867 1206.27 195.017 1206.27 185.459L1206.27 174.707C1206.27 162.249 1209.81 152.478 1216.89 145.395C1223.97 138.313 1233.74 134.771 1246.2 134.771L1273.34 134.771C1285.97 134.771 1295.82 138.313 1302.91 145.395C1309.99 152.478 1313.53 162.249 1313.53 174.707L1313.53 180.339C1313.53 183.241 1312.08 184.691 1309.18 184.691L1292.79 184.691C1289.89 184.691 1288.44 183.241 1288.44 180.339L1288.44 177.011C1288.44 169.673 1286.86 164.425 1283.71 161.267C1280.55 158.11 1275.3 156.531 1267.96 156.531L1251.83 156.531C1244.5 156.531 1239.25 158.195 1236.09 161.523C1232.93 164.851 1231.35 170.526 1231.35 178.547L1231.35 186.483C1231.35 194.163 1236.9 199.369 1247.99 202.099C1252.94 203.294 1258.36 204.318 1264.25 205.171C1270.14 206.025 1276.07 207.305 1282.04 209.011C1288.02 210.718 1293.48 212.979 1298.43 215.795C1303.38 218.611 1307.39 222.878 1310.46 228.595C1313.53 234.313 1315.07 241.267 1315.07 249.459L1315.07 259.443C1315.07 271.902 1311.53 281.673 1304.44 288.755C1297.36 295.838 1287.59 299.379 1275.13 299.379L1246.46 299.379C1234 299.379 1224.19 295.838 1217.02 288.755C1209.85 281.673 1206.27 271.902 1206.27 259.443Z"/>
<path d="M1394.68 299.379L1378.55 299.379C1375.48 299.379 1373.95 297.929 1373.95 295.027L1373.95 159.091C1373.95 157.385 1373.09 156.531 1371.39 156.531L1339.13 156.531C1336.06 156.531 1334.52 155.081 1334.52 152.179L1334.52 139.123C1334.52 136.222 1336.06 134.771 1339.13 134.771L1434.11 134.771C1437.18 134.771 1438.71 136.222 1438.71 139.123L1438.71 152.179C1438.71 155.081 1437.18 156.531 1434.11 156.531L1401.85 156.531C1399.97 156.531 1399.03 157.385 1399.03 159.091L1399.03 295.027C1399.03 297.929 1397.58 299.379 1394.68 299.379Z"/>
</g>
</g>
</svg>
