<?xml version="1.0" encoding="utf-8"?>
<!-- Generator: Adobe Adobe Illustrator 24.2.0, SVG Export Plug-In . SVG Version: 6.00 Build 0)  -->
<svg version="1.1" id="Layer_1" xmlns="http://www.w3.org/2000/svg" xmlns:xlink="http://www.w3.org/1999/xlink" x="0px" y="0px"
	 viewBox="0 0 2400 1080" style="enable-background:new 0 0 2400 1080;" xml:space="preserve">
<style type="text/css">
	.st0{fill:#FFFFFF;}
</style>
<g>
	<g>
		<g>
			<path class="st0" d="M0,235v247.79L70,540v306.4l2330-1.4V235H0z M592.66,752.5h-425v-425h425V752.5z M877.85,596.68
				c0,16.55-4.71,29.53-14.11,38.93c-9.41,9.41-22.39,14.11-38.93,14.11h-38.08c-16.55,0-29.58-4.7-39.1-14.11
				c-9.52-9.4-14.28-22.38-14.28-38.93v-8.84c0-3.85,1.92-5.78,5.78-5.78h21.76c3.85,0,5.78,1.93,5.78,5.78v6.12
				c0,9.52,2.09,16.38,6.29,20.57c4.19,4.2,11.16,6.29,20.91,6.29h23.46c9.74,0,16.77-2.21,21.08-6.63
				c4.3-4.42,6.46-11.61,6.46-21.59v-7.82c0-7.25-2.78-12.97-8.33-17.17c-5.56-4.19-12.41-6.91-20.57-8.16
				c-8.16-1.24-17.12-3-26.86-5.27c-9.75-2.26-18.7-4.87-26.86-7.82c-8.16-2.94-15.02-8.5-20.57-16.66
				c-5.56-8.16-8.33-18.58-8.33-31.28v-14.28c0-16.54,4.7-29.52,14.11-38.93c9.4-9.4,22.38-14.11,38.93-14.11h36.04
				c16.77,0,29.86,4.71,39.27,14.11c9.4,9.41,14.11,22.39,14.11,38.93v7.48c0,3.86-1.93,5.78-5.78,5.78h-21.76
				c-3.86,0-5.78-1.92-5.78-5.78v-4.42c0-9.74-2.1-16.71-6.29-20.91c-4.2-4.19-11.17-6.29-20.91-6.29h-21.42
				c-9.75,0-16.72,2.21-20.91,6.63c-4.2,4.42-6.29,11.96-6.29,22.61v10.54c0,10.2,7.36,17.12,22.1,20.74
				c6.57,1.59,13.77,2.95,21.59,4.08c7.82,1.14,15.69,2.84,23.63,5.1c7.93,2.27,15.18,5.27,21.76,9.01c6.57,3.74,11.9,9.41,15.98,17
				c4.08,7.6,6.12,16.83,6.12,27.71V596.68z M1074.37,649.72h-19.04c-6.12,0-10.43-1.92-12.92-5.78l-58.82-92.14l-26.86,31.62v60.52
				c0,3.86-1.93,5.78-5.78,5.78h-21.42c-3.86,0-5.78-1.92-5.78-5.78V436.88c0-3.85,1.92-5.78,5.78-5.78h21.42
				c3.85,0,5.78,1.93,5.78,5.78v107.78h1.02c2.26-6.12,5.21-11.78,8.84-17l64.94-90.78c2.49-3.85,6.12-5.78,10.88-5.78h25.16
				c4.76,0,5.55,2.16,2.38,6.46l-66.3,90.1l74.8,115.26C1081.17,647.45,1079.81,649.72,1074.37,649.72z M1144.74,643.94
				c0,3.86-1.93,5.78-5.78,5.78h-21.42c-3.86,0-5.78-1.92-5.78-5.78V436.88c0-3.85,1.92-5.78,5.78-5.78h21.42
				c3.85,0,5.78,1.93,5.78,5.78V643.94z M1317.8,643.94c0,3.86-1.93,5.78-5.78,5.78h-110.16c-3.86,0-5.78-1.92-5.78-5.78V436.88
				c0-3.85,1.92-5.78,5.78-5.78h21.42c3.85,0,5.78,1.93,5.78,5.78v179.86c0,2.27,1.36,3.4,4.08,3.4h78.88
				c3.85,0,5.78,2.04,5.78,6.12V643.94z M1470.8,643.94c0,3.86-1.93,5.78-5.78,5.78h-110.16c-3.86,0-5.78-1.92-5.78-5.78V436.88
				c0-3.85,1.92-5.78,5.78-5.78h21.42c3.85,0,5.78,1.93,5.78,5.78v179.86c0,2.27,1.36,3.4,4.08,3.4h78.88
				c3.85,0,5.78,2.04,5.78,6.12V643.94z M1642.5,596.68c0,16.55-4.71,29.53-14.11,38.93c-9.41,9.41-22.39,14.11-38.93,14.11h-38.08
				c-16.55,0-29.58-4.7-39.1-14.11c-9.52-9.4-14.28-22.38-14.28-38.93v-8.84c0-3.85,1.92-5.78,5.78-5.78h21.76
				c3.85,0,5.78,1.93,5.78,5.78v6.12c0,9.52,2.09,16.38,6.29,20.57c4.19,4.2,11.16,6.29,20.91,6.29h23.46
				c9.74,0,16.77-2.21,21.08-6.63c4.3-4.42,6.46-11.61,6.46-21.59v-7.82c0-7.25-2.78-12.97-8.33-17.17
				c-5.56-4.19-12.41-6.91-20.57-8.16c-8.16-1.24-17.12-3-26.86-5.27c-9.75-2.26-18.7-4.87-26.86-7.82
				c-8.16-2.94-15.02-8.5-20.57-16.66c-5.56-8.16-8.33-18.58-8.33-31.28v-14.28c0-16.54,4.7-29.52,14.11-38.93
				c9.4-9.4,22.38-14.11,38.93-14.11h36.04c16.77,0,29.86,4.71,39.27,14.11c9.4,9.41,14.11,22.39,14.11,38.93v7.48
				c0,3.86-1.93,5.78-5.78,5.78h-21.76c-3.86,0-5.78-1.92-5.78-5.78v-4.42c0-9.74-2.1-16.71-6.29-20.91
				c-4.2-4.19-11.17-6.29-20.91-6.29h-21.42c-9.75,0-16.72,2.21-20.91,6.63c-4.2,4.42-6.29,11.96-6.29,22.61v10.54
				c0,10.2,7.36,17.12,22.1,20.74c6.57,1.59,13.77,2.95,21.59,4.08c7.82,1.14,15.69,2.84,23.63,5.1c7.93,2.27,15.18,5.27,21.76,9.01
				c6.57,3.74,11.9,9.41,15.98,17c4.08,7.6,6.12,16.83,6.12,27.71V596.68z M2363.37,805.23h-180v-180h180V805.23z"/>
			<polygon class="st0" points="2207.55,689.19 2275.4,718.94 2344.62,688.96 2344.4,646.55 2275.18,676.53 2206.8,646.55
				2207.02,688.96 			"/>
			<polygon class="st0" points="284.63,687.7 380.16,618.3 475.68,687.7 439.19,575.4 534.72,506 416.64,506 380.16,393.7
				343.67,506 225.59,506 321.12,575.4 			"/>
			<polygon class="st0" points="2207.55,754.16 2275.4,783.91 2344.62,753.93 2344.4,711.52 2275.18,741.51 2206.8,711.52
				2207.02,753.93 			"/>
		</g>
	</g>
</g>
</svg>
