<?xml version="1.0" encoding="UTF-8" standalone="no"?>
<!DOCTYPE svg PUBLIC "-//W3C//DTD SVG 1.1//EN" "http://www.w3.org/Graphics/SVG/1.1/DTD/svg11.dtd">
<!-- Created with Vectornator (http://vectornator.io/) -->
<svg height="100%" stroke-miterlimit="10" style="fill-rule:nonzero;clip-rule:evenodd;stroke-linecap:round;stroke-linejoin:round;" version="1.1" viewBox="0 0 1621.17 424.628" width="100%" xml:space="preserve" xmlns="http://www.w3.org/2000/svg" xmlns:vectornator="http://vectornator.io" xmlns:xlink="http://www.w3.org/1999/xlink">
<defs>
<linearGradient gradientTransform="matrix(1 0 0 1 0 0.0577042)" gradientUnits="userSpaceOnUse" id="LinearGradient" x1="575.466" x2="1254.39" y1="5.76807" y2="661.474">
<stop offset="0" stop-color="#d0d0d0"/>
<stop offset="0.619213" stop-color="#303030"/>
</linearGradient>
<linearGradient gradientTransform="matrix(1 0 0 1 0 0)" gradientUnits="userSpaceOnUse" id="LinearGradient_2" x1="197.919" x2="1564.02" y1="212.314" y2="212.314">
<stop offset="0" stop-color="#b4b1b1"/>
<stop offset="0.986127" stop-color="#303030"/>
</linearGradient>
</defs>
<clipPath id="ArtboardFrame">
<rect height="424.628" width="1621.17" x="0" y="0"/>
</clipPath>
<g clip-path="url(#ArtboardFrame)" id="Layer_2_copy_13" vectornator:layerName="Layer_2_copy_13">
<path d="M-0.000115865 423.88L-0.000115865 309.455L25.6699 309.455L25.6699 169.325L-0.000115865 169.325L0.0998841 5.79323e-05L72.0999 5.79323e-05L71.9999 423.88L-0.000115865 423.88Z" fill="#b4b4b4" fill-rule="nonzero" opacity="1" stroke="none" vectornator:layerName="polygon"/>
<path d="M91.1562 0.0577042L93.0312 423.933L1537.22 423.933L1617.38 323.776L1617.38 0.0577042L91.1562 0.0577042ZM107.219 16.0577C139.022 16.0577 1569.69 16.0577 1601.38 16.0577L1601.38 318.151L1529.53 407.933L108.969 407.933L107.219 16.0577Z" fill="url(#LinearGradient)" fill-rule="nonzero" opacity="1" stroke="none"/>
<g fill="url(#LinearGradient_2)" opacity="1" stroke="none">
<path d="M227.067 299.379L208.635 299.379C206.245 299.379 205.392 297.929 206.075 295.027L250.619 139.123C251.472 136.222 253.52 134.771 256.763 134.771L282.363 134.771C285.776 134.771 287.824 136.222 288.507 139.123L333.051 295.027C333.733 297.929 332.795 299.379 330.235 299.379L312.059 299.379C310.523 299.379 309.456 299.081 308.859 298.483C308.261 297.886 307.792 296.734 307.451 295.027L297.723 261.747L241.403 261.747L231.675 295.027C230.992 297.929 229.456 299.379 227.067 299.379ZM269.051 159.347L246.523 241.267L292.859 241.267L270.075 159.347L269.051 159.347Z"/>
<path d="M378.875 299.379L362.747 299.379C359.845 299.379 358.395 297.929 358.395 295.027L358.395 139.123C358.395 136.222 359.845 134.771 362.747 134.771L422.651 134.771C435.109 134.771 444.88 138.313 451.963 145.395C459.045 152.478 462.587 162.249 462.587 174.707L462.587 196.211C462.587 215.838 454.48 228.211 438.267 233.331L438.267 234.355L466.683 294.259C468.56 297.673 467.451 299.379 463.355 299.379L447.483 299.379C443.387 299.379 440.741 297.929 439.547 295.027L412.155 236.147L386.299 236.147C384.251 236.147 383.227 237.001 383.227 238.707L383.227 295.027C383.227 297.929 381.776 299.379 378.875 299.379ZM386.043 215.667L418.555 215.667C431.184 215.667 437.499 209.438 437.499 196.979L437.499 175.475C437.499 162.846 431.184 156.531 418.555 156.531L386.043 156.531C384.165 156.531 383.227 157.385 383.227 159.091L383.227 213.107C383.227 214.814 384.165 215.667 386.043 215.667Z"/>
<path d="M517.627 299.379L501.499 299.379C498.597 299.379 497.147 297.929 497.147 295.027L497.147 139.123C497.147 136.222 498.597 134.771 501.499 134.771L517.627 134.771C520.528 134.771 521.979 136.222 521.979 139.123L521.979 220.275L522.747 220.275C524.453 215.667 526.672 211.401 529.403 207.475L578.299 139.123C580.176 136.222 582.907 134.771 586.491 134.771L605.435 134.771C609.019 134.771 609.616 136.393 607.227 139.635L557.307 207.475L613.627 294.259C615.675 297.673 614.651 299.379 610.555 299.379L596.219 299.379C591.611 299.379 588.368 297.929 586.491 295.027L542.203 225.651L521.979 249.459L521.979 295.027C521.979 297.929 520.528 299.379 517.627 299.379Z"/>
<path d="M636.155 147.059L636.155 123.763C636.155 121.033 637.52 119.667 640.251 119.667L656.891 119.667C659.621 119.667 660.987 121.033 660.987 123.763L660.987 147.059C660.987 149.961 659.621 151.411 656.891 151.411L640.251 151.411C637.52 151.411 636.155 149.961 636.155 147.059ZM636.155 295.027L636.155 173.171C636.155 170.27 637.52 168.819 640.251 168.819L656.635 168.819C659.536 168.819 660.987 170.27 660.987 173.171L660.987 295.027C660.987 296.734 660.688 297.886 660.091 298.483C659.493 299.081 658.427 299.379 656.891 299.379L640.507 299.379C637.605 299.379 636.155 297.929 636.155 295.027Z"/>
<path d="M698.363 190.579L686.075 190.579C684.368 190.579 683.216 190.281 682.619 189.683C682.021 189.086 681.723 188.019 681.723 186.483L681.723 173.171C681.723 170.27 683.173 168.819 686.075 168.819L698.363 168.819C700.069 168.819 700.923 167.966 700.923 166.259L700.923 143.219C700.923 140.318 702.459 138.867 705.531 138.867L721.659 138.867C724.56 138.867 726.011 140.318 726.011 143.219L726.011 166.259C726.011 167.966 726.949 168.819 728.827 168.819L752.635 168.819C755.707 168.819 757.243 170.27 757.243 173.171L757.243 186.483C757.243 189.214 755.707 190.579 752.635 190.579L728.827 190.579C726.949 190.579 726.011 191.433 726.011 193.139L726.011 258.931C726.011 271.39 732.411 277.619 745.211 277.619L755.195 277.619C758.267 277.619 759.803 279.07 759.803 281.971L759.803 295.283C759.803 298.014 758.267 299.379 755.195 299.379L741.371 299.379C728.741 299.379 718.843 295.966 711.675 289.139C704.507 282.313 700.923 272.67 700.923 260.211L700.923 193.139C700.923 191.433 700.069 190.579 698.363 190.579Z"/>
</g>
</g>
</svg>
