<?xml version="1.0" encoding="UTF-8" standalone="no"?>
<!DOCTYPE svg PUBLIC "-//W3C//DTD SVG 1.1//EN" "http://www.w3.org/Graphics/SVG/1.1/DTD/svg11.dtd">
<!-- Created with Vectornator (http://vectornator.io/) -->
<svg height="100%" stroke-miterlimit="10" style="fill-rule:nonzero;clip-rule:evenodd;stroke-linecap:round;stroke-linejoin:round;" version="1.1" viewBox="0 0 1621.17 424.628" width="100%" xml:space="preserve" xmlns="http://www.w3.org/2000/svg" xmlns:vectornator="http://vectornator.io" xmlns:xlink="http://www.w3.org/1999/xlink">
<defs/>
<clipPath id="ArtboardFrame">
<rect height="424.628" width="1621.17" x="0" y="0"/>
</clipPath>
<g clip-path="url(#ArtboardFrame)" id="Layer_2_copy_13" vectornator:layerName="Layer_2_copy_13">
<path d="M-0.000115865 423.88L-0.000115865 309.455L25.6699 309.455L25.6699 169.325L-0.000115865 169.325L0.0998841 5.79323e-05L72.0999 5.79323e-05L71.9999 423.88L-0.000115865 423.88Z" fill="#ffffff" fill-rule="nonzero" opacity="1" stroke="none" vectornator:layerName="polygon"/>
<path d="M91.1562 0L93.0312 423.875L1537.22 423.875L1617.38 323.719L1617.38 0L91.1562 0ZM107.219 16C139.022 16 1569.69 16 1601.38 16L1601.38 318.094L1529.53 407.875L108.969 407.875L107.219 16Z" fill="#ffffff" fill-rule="nonzero" opacity="1" stroke="none"/>
<g fill="#ffffff" opacity="1" stroke="none">
<path d="M238.587 299.379L222.459 299.379C219.557 299.379 218.107 297.929 218.107 295.027L218.107 139.123C218.107 136.222 219.557 134.771 222.459 134.771L238.587 134.771C241.488 134.771 242.939 136.222 242.939 139.123L242.939 203.123C242.939 204.83 243.963 205.683 246.011 205.683L300.027 205.683C301.733 205.683 302.587 204.83 302.587 203.123L302.587 139.123C302.587 136.222 304.037 134.771 306.939 134.771L323.323 134.771C326.224 134.771 327.675 136.222 327.675 139.123L327.675 295.027C327.675 297.929 326.224 299.379 323.323 299.379L306.939 299.379C304.037 299.379 302.587 297.929 302.587 295.027L302.587 230.259C302.587 228.553 301.733 227.699 300.027 227.699L246.011 227.699C243.963 227.699 242.939 228.553 242.939 230.259L242.939 295.027C242.939 297.929 241.488 299.379 238.587 299.379Z"/>
<path d="M410.107 299.379L393.979 299.379C390.907 299.379 389.371 297.929 389.371 295.027L389.371 159.091C389.371 157.385 388.517 156.531 386.811 156.531L354.555 156.531C351.483 156.531 349.947 155.081 349.947 152.179L349.947 139.123C349.947 136.222 351.483 134.771 354.555 134.771L449.531 134.771C452.603 134.771 454.139 136.222 454.139 139.123L454.139 152.179C454.139 155.081 452.603 156.531 449.531 156.531L417.275 156.531C415.397 156.531 414.459 157.385 414.459 159.091L414.459 295.027C414.459 297.929 413.008 299.379 410.107 299.379Z"/>
<path d="M588.795 134.771L617.467 134.771C620.368 134.771 621.819 136.222 621.819 139.123L621.819 295.027C621.819 297.929 620.368 299.379 617.467 299.379L601.595 299.379C598.693 299.379 597.243 297.929 597.243 295.027L597.243 165.747L596.219 165.747L562.939 259.443C561.915 262.174 560.037 263.539 557.307 263.539L540.923 263.539C538.363 263.539 536.571 262.174 535.547 259.443L501.499 165.491L500.475 165.491L500.475 295.027C500.475 296.734 500.176 297.886 499.579 298.483C498.981 299.081 497.829 299.379 496.123 299.379L480.507 299.379C477.605 299.379 476.155 297.929 476.155 295.027L476.155 139.123C476.155 136.222 477.605 134.771 480.507 134.771L509.179 134.771C511.056 134.771 512.421 135.71 513.275 137.587L548.347 236.403L549.627 236.403L584.955 137.587C585.296 135.71 586.576 134.771 588.795 134.771Z"/>
<path d="M746.491 299.379L663.547 299.379C660.645 299.379 659.195 297.929 659.195 295.027L659.195 139.123C659.195 136.222 660.645 134.771 663.547 134.771L679.675 134.771C682.576 134.771 684.027 136.222 684.027 139.123L684.027 274.547C684.027 276.254 685.051 277.107 687.099 277.107L746.491 277.107C749.392 277.107 750.843 278.643 750.843 281.715L750.843 295.027C750.843 297.929 749.392 299.379 746.491 299.379Z"/>
<path d="M845.819 299.379L831.227 299.379C827.643 299.379 826.448 297.843 827.643 294.771C831.397 285.214 840.955 259.443 856.315 217.459C871.675 175.475 881.317 149.449 885.243 139.379C886.608 136.307 888.571 134.771 891.131 134.771L905.979 134.771C909.221 134.771 910.331 136.393 909.307 139.635L851.707 294.771C850.683 297.843 848.72 299.379 845.819 299.379Z"/>
<path d="M1066.49 299.379L1036.79 299.379C1024.17 299.379 1014.39 295.881 1007.48 288.883C1000.57 281.886 997.115 272.158 997.115 259.699L997.115 174.451C997.115 161.822 1000.57 152.051 1007.48 145.139C1014.39 138.227 1024.17 134.771 1036.79 134.771L1066.49 134.771C1078.95 134.771 1088.68 138.227 1095.67 145.139C1102.67 152.051 1106.17 161.822 1106.17 174.451L1106.17 186.739C1106.17 189.811 1104.63 191.347 1101.56 191.347L1085.43 191.347C1082.53 191.347 1081.08 189.811 1081.08 186.739L1081.08 175.475C1081.08 162.846 1074.94 156.531 1062.65 156.531L1040.38 156.531C1028.09 156.531 1021.95 162.846 1021.95 175.475L1021.95 258.675C1021.95 271.305 1028.09 277.619 1040.38 277.619L1062.65 277.619C1074.94 277.619 1081.08 271.305 1081.08 258.675L1081.08 247.411C1081.08 244.339 1082.53 242.803 1085.43 242.803L1101.56 242.803C1104.63 242.803 1106.17 244.339 1106.17 247.411L1106.17 259.699C1106.17 272.158 1102.67 281.886 1095.67 288.883C1088.68 295.881 1078.95 299.379 1066.49 299.379Z"/>
<path d="M1134.84 259.443L1134.84 252.787C1134.84 249.886 1136.29 248.435 1139.19 248.435L1155.58 248.435C1158.48 248.435 1159.93 249.886 1159.93 252.787L1159.93 257.395C1159.93 264.563 1161.51 269.726 1164.67 272.883C1167.82 276.041 1173.07 277.619 1180.41 277.619L1198.07 277.619C1205.41 277.619 1210.7 275.955 1213.95 272.627C1217.19 269.299 1218.81 263.881 1218.81 256.371L1218.81 250.483C1218.81 245.022 1216.72 240.713 1212.54 237.555C1208.36 234.398 1203.19 232.35 1197.05 231.411C1190.91 230.473 1184.17 229.15 1176.83 227.443C1169.49 225.737 1162.75 223.774 1156.6 221.555C1150.46 219.337 1145.3 215.155 1141.11 209.011C1136.93 202.867 1134.84 195.017 1134.84 185.459L1134.84 174.707C1134.84 162.249 1138.38 152.478 1145.47 145.395C1152.55 138.313 1162.32 134.771 1174.78 134.771L1201.91 134.771C1214.54 134.771 1224.4 138.313 1231.48 145.395C1238.57 152.478 1242.11 162.249 1242.11 174.707L1242.11 180.339C1242.11 183.241 1240.66 184.691 1237.75 184.691L1221.37 184.691C1218.47 184.691 1217.02 183.241 1217.02 180.339L1217.02 177.011C1217.02 169.673 1215.44 164.425 1212.28 161.267C1209.13 158.11 1203.88 156.531 1196.54 156.531L1180.41 156.531C1173.07 156.531 1167.82 158.195 1164.67 161.523C1161.51 164.851 1159.93 170.526 1159.93 178.547L1159.93 186.483C1159.93 194.163 1165.48 199.369 1176.57 202.099C1181.52 203.294 1186.94 204.318 1192.83 205.171C1198.71 206.025 1204.65 207.305 1210.62 209.011C1216.59 210.718 1222.05 212.979 1227 215.795C1231.95 218.611 1235.96 222.878 1239.03 228.595C1242.11 234.313 1243.64 241.267 1243.64 249.459L1243.64 259.443C1243.64 271.902 1240.1 281.673 1233.02 288.755C1225.94 295.838 1216.17 299.379 1203.71 299.379L1175.03 299.379C1162.58 299.379 1152.76 295.838 1145.59 288.755C1138.43 281.673 1134.84 271.902 1134.84 259.443Z"/>
<path d="M1275.13 259.443L1275.13 252.787C1275.13 249.886 1276.58 248.435 1279.48 248.435L1295.87 248.435C1298.77 248.435 1300.22 249.886 1300.22 252.787L1300.22 257.395C1300.22 264.563 1301.8 269.726 1304.95 272.883C1308.11 276.041 1313.36 277.619 1320.7 277.619L1338.36 277.619C1345.7 277.619 1350.99 275.955 1354.23 272.627C1357.48 269.299 1359.1 263.881 1359.1 256.371L1359.1 250.483C1359.1 245.022 1357.01 240.713 1352.83 237.555C1348.65 234.398 1343.48 232.35 1337.34 231.411C1331.19 230.473 1324.45 229.15 1317.11 227.443C1309.78 225.737 1303.03 223.774 1296.89 221.555C1290.75 219.337 1285.58 215.155 1281.4 209.011C1277.22 202.867 1275.13 195.017 1275.13 185.459L1275.13 174.707C1275.13 162.249 1278.67 152.478 1285.75 145.395C1292.84 138.313 1302.61 134.771 1315.07 134.771L1342.2 134.771C1354.83 134.771 1364.69 138.313 1371.77 145.395C1378.85 152.478 1382.39 162.249 1382.39 174.707L1382.39 180.339C1382.39 183.241 1380.94 184.691 1378.04 184.691L1361.66 184.691C1358.76 184.691 1357.31 183.241 1357.31 180.339L1357.31 177.011C1357.31 169.673 1355.73 164.425 1352.57 161.267C1349.41 158.11 1344.17 156.531 1336.83 156.531L1320.7 156.531C1313.36 156.531 1308.11 158.195 1304.95 161.523C1301.8 164.851 1300.22 170.526 1300.22 178.547L1300.22 186.483C1300.22 194.163 1305.77 199.369 1316.86 202.099C1321.81 203.294 1327.23 204.318 1333.11 205.171C1339 206.025 1344.93 207.305 1350.91 209.011C1356.88 210.718 1362.34 212.979 1367.29 215.795C1372.24 218.611 1376.25 222.878 1379.32 228.595C1382.39 234.313 1383.93 241.267 1383.93 249.459L1383.93 259.443C1383.93 271.902 1380.39 281.673 1373.31 288.755C1366.22 295.838 1356.45 299.379 1343.99 299.379L1315.32 299.379C1302.86 299.379 1293.05 295.838 1285.88 288.755C1278.71 281.673 1275.13 271.902 1275.13 259.443Z"/>
</g>
</g>
</svg>
