<?xml version="1.0" encoding="utf-8"?>
<!-- Generator: Adobe Adobe Illustrator 24.2.0, SVG Export Plug-In . SVG Version: 6.00 Build 0)  -->
<svg version="1.1" xmlns="http://www.w3.org/2000/svg" xmlns:xlink="http://www.w3.org/1999/xlink" x="0px" y="0px"
	 viewBox="0 0 2400 730" style="enable-background:new 0 0 2400 730;" xml:space="preserve">
<style type="text/css">
	.st0{fill:#FFFFFF;}
	.st1{fill:#8CC63F;}
	.st2{fill:#29ABE2;}
</style>
<g id="Layer_3">
</g>
<g id="Layer_2">
</g>
<g id="Layer_2_copy">
</g>
<g id="Layer_2_copy_2">
</g>
<g id="Layer_2_copy_3">
</g>
<g id="Layer_2_copy_4">
	<g>
		<g>
			<path class="st0" d="M2388.1,72v442.05L2214.23,658H102.1V72H2388.1 M2400.1,60H90.1V670h2128.45l181.55-150.31V60L2400.1,60z"/>
		</g>
	</g>
	<polygon class="st0" points="-0.1,670 -0.1,558.55 25.57,558.55 25.57,418.42 -0.1,418.42 -0.1,60 71.9,60 71.9,670 	"/>
	<g>
		<g>
			<path class="st1" d="M125.26,94.58v540.84H666.1V94.58H125.26z M513.3,546l-117.62-85.46L278.06,546l44.93-138.27l-117.62-85.46
				h145.39L395.68,184l44.93,138.27H586l-117.62,85.46L513.3,546z"/>
		</g>
	</g>
	<g>
		<path class="st0" d="M851.83,373.53h-24.59c-10.46,0-18.55-2.9-24.27-8.69c-5.72-5.79-8.59-13.85-8.59-24.17v-70.6
			c0-10.46,2.86-18.55,8.59-24.27c5.72-5.72,13.81-8.59,24.27-8.59h24.59c10.32,0,18.37,2.86,24.17,8.59
			c5.79,5.72,8.69,13.82,8.69,24.27v10.18c0,2.54-1.27,3.82-3.82,3.82h-13.36c-2.41,0-3.6-1.27-3.6-3.82v-9.33
			c0-10.46-5.09-15.69-15.26-15.69H830.2c-10.18,0-15.26,5.23-15.26,15.69v68.9c0,10.46,5.09,15.69,15.26,15.69h18.44
			c10.18,0,15.26-5.23,15.26-15.69v-9.33c0-2.54,1.2-3.82,3.6-3.82h13.36c2.54,0,3.82,1.27,3.82,3.82v10.18
			c0,10.32-2.9,18.38-8.69,24.17C870.2,370.63,862.14,373.53,851.83,373.53z"/>
		<path class="st0" d="M970.12,373.53h-12.08c-2.97,0-3.96-1.27-2.97-3.82c3.11-7.91,11.02-29.26,23.74-64.02
			c12.72-34.77,20.7-56.32,23.96-64.66c1.13-2.54,2.76-3.82,4.88-3.82h12.3c2.68,0,3.6,1.35,2.76,4.03l-47.7,128.47
			C974.15,372.26,972.52,373.53,970.12,373.53z"/>
		<path class="st0" d="M1152.86,373.53h-24.59c-10.46,0-18.55-2.9-24.27-8.69c-5.72-5.79-8.59-13.85-8.59-24.17v-70.6
			c0-10.46,2.86-18.55,8.59-24.27c5.72-5.72,13.81-8.59,24.27-8.59h24.59c10.32,0,18.37,2.86,24.17,8.59
			c5.79,5.72,8.69,13.82,8.69,24.27v10.18c0,2.54-1.27,3.82-3.82,3.82h-13.36c-2.41,0-3.6-1.27-3.6-3.82v-9.33
			c0-10.46-5.09-15.69-15.26-15.69h-18.44c-10.18,0-15.26,5.23-15.26,15.69v68.9c0,10.46,5.09,15.69,15.26,15.69h18.44
			c10.18,0,15.26-5.23,15.26-15.69v-9.33c0-2.54,1.2-3.82,3.6-3.82h13.36c2.54,0,3.82,1.27,3.82,3.82v10.18
			c0,10.32-2.9,18.38-8.69,24.17C1171.23,370.63,1163.17,373.53,1152.86,373.53z"/>
		<path class="st0" d="M1263.73,296.79h30.32c2.68,0,4.03,1.42,4.03,4.24v8.9c0,2.69-1.34,4.03-4.03,4.03h-30.32v30.74
			c0,2.83-1.41,4.24-4.24,4.24h-9.54c-2.69,0-4.03-1.41-4.03-4.24v-30.74h-30.53c-2.69,0-4.03-1.34-4.03-4.03v-8.9
			c0-2.83,1.34-4.24,4.03-4.24h30.53v-30.53c0-2.83,1.34-4.24,4.03-4.24h9.54c2.83,0,4.24,1.41,4.24,4.24V296.79z"/>
		<path class="st0" d="M1380.12,296.79h30.32c2.68,0,4.03,1.42,4.03,4.24v8.9c0,2.69-1.34,4.03-4.03,4.03h-30.32v30.74
			c0,2.83-1.41,4.24-4.24,4.24h-9.54c-2.69,0-4.03-1.41-4.03-4.24v-30.74h-30.53c-2.69,0-4.03-1.34-4.03-4.03v-8.9
			c0-2.83,1.34-4.24,4.03-4.24h30.53v-30.53c0-2.83,1.34-4.24,4.03-4.24h9.54c2.83,0,4.24,1.41,4.24,4.24V296.79z"/>
	</g>
	<g>
		<path class="st1" d="M791.39,477.31v-4.61c0-0.94,0.47-1.41,1.41-1.41h3.71c0.94,0,1.41,0.47,1.41,1.41v4.22
			c0,8.53,4.14,12.8,12.42,12.8h13.31c8.28,0,12.42-4.31,12.42-12.93v-5.38c0-3.75-1.54-6.7-4.61-8.83
			c-3.07-2.13-6.78-3.67-11.14-4.61c-4.35-0.94-8.73-1.92-13.12-2.94c-4.4-1.02-8.13-2.9-11.2-5.63c-3.07-2.73-4.61-6.4-4.61-11.01
			v-7.04c0-5.63,1.62-10.07,4.86-13.31c3.24-3.24,7.64-4.86,13.18-4.86h14.85c5.55,0,9.94,1.62,13.18,4.86
			c3.24,3.24,4.86,7.68,4.86,13.31v3.58c0,0.94-0.47,1.41-1.41,1.41h-3.71c-0.94,0-1.41-0.47-1.41-1.41v-3.2
			c0-8.53-4.14-12.8-12.42-12.8H810.2c-8.19,0-12.29,4.35-12.29,13.06v6.4c0,5.89,5.25,9.86,15.74,11.9
			c4.35,0.85,8.72,1.84,13.12,2.94c4.39,1.11,8.13,3.12,11.2,6.02c3.07,2.9,4.61,6.83,4.61,11.78v6.27c0,5.63-1.62,10.07-4.86,13.31
			c-3.24,3.24-7.64,4.86-13.18,4.86h-15.1c-5.55,0-9.94-1.62-13.18-4.86C793.01,487.38,791.39,482.94,791.39,477.31z"/>
		<path class="st1" d="M896.22,495.49h-15.74c-5.55,0-9.92-1.62-13.12-4.86c-3.2-3.24-4.8-7.68-4.8-13.31v-45.95
			c0-5.63,1.6-10.07,4.8-13.31c3.2-3.24,7.57-4.86,13.12-4.86h15.74c5.55,0,9.92,1.62,13.12,4.86c3.2,3.24,4.8,7.68,4.8,13.31v45.95
			c0,5.63-1.6,10.07-4.8,13.31C906.14,493.87,901.76,495.49,896.22,495.49z M880.99,489.73h14.59c3.92,0,6.93-1.09,9.02-3.26
			c2.09-2.18,3.14-5.31,3.14-9.41v-45.44c0-4.1-1.05-7.23-3.14-9.41c-2.09-2.18-5.1-3.26-9.02-3.26h-14.59
			c-3.93,0-6.91,1.11-8.96,3.33c-2.05,2.22-3.07,5.33-3.07,9.34v45.44c0,4.01,1.02,7.13,3.07,9.34
			C874.07,488.62,877.06,489.73,880.99,489.73z"/>
		<path class="st1" d="M939.61,495.49h-3.71c-0.85,0-1.28-0.51-1.28-1.54v-79.23c0-1.02,0.43-1.54,1.28-1.54h39.42
			c1.02,0,1.54,0.47,1.54,1.41v2.94c0,0.94-0.51,1.41-1.54,1.41H942.3c-0.85,0-1.28,0.38-1.28,1.15v31.1c0,0.68,0.43,1.02,1.28,1.02
			h29.57c0.94,0,1.41,0.47,1.41,1.41v3.07c0,0.94-0.47,1.41-1.41,1.41H942.3c-0.85,0-1.28,0.34-1.28,1.02v34.82
			C941.02,494.97,940.55,495.49,939.61,495.49z"/>
		<path class="st1" d="M1011.29,495.49h-3.71c-0.94,0-1.41-0.51-1.41-1.54v-73.86c0-0.77-0.43-1.15-1.28-1.15h-18.56
			c-1.02,0-1.54-0.47-1.54-1.41v-2.94c0-0.94,0.51-1.41,1.54-1.41h46.08c1.02,0,1.54,0.47,1.54,1.41v2.94
			c0,0.94-0.51,1.41-1.54,1.41h-18.56c-0.85,0-1.28,0.38-1.28,1.15v73.86C1012.57,494.97,1012.14,495.49,1011.29,495.49z"/>
		<path class="st1" d="M1066.07,495.49h-6.4c-0.94,0-1.54-0.51-1.79-1.54l-17.54-79.23c-0.26-1.02,0.17-1.54,1.28-1.54h4.22
			c0.94,0,1.49,0.51,1.66,1.54l15.23,73.47h0.64l19.46-73.6c0.17-0.94,0.72-1.41,1.66-1.41h4.86c1.02,0,1.62,0.47,1.79,1.41
			l19.58,73.6h0.64l15.1-73.47c0.17-1.02,0.77-1.54,1.79-1.54h4.35c1.02,0,1.41,0.51,1.15,1.54l-17.54,79.23
			c-0.17,1.02-0.73,1.54-1.66,1.54h-6.53c-0.94,0-1.54-0.51-1.79-1.54l-18.94-72.19h-0.51l-19.07,72.19
			C1067.48,494.97,1066.92,495.49,1066.07,495.49z"/>
		<path class="st1" d="M1146.58,495.49h-3.97c-0.94,0-1.24-0.51-0.9-1.54l25.47-79.23c0.26-1.02,0.85-1.54,1.79-1.54h6.02
			c0.85,0,1.45,0.51,1.79,1.54l25.47,79.23c0.26,1.02-0.04,1.54-0.9,1.54h-4.1c-0.85,0-1.41-0.51-1.66-1.54l-6.91-20.48h-33.54
			l-6.91,20.48C1147.91,494.97,1147.35,495.49,1146.58,495.49z M1171.67,420.22l-14.72,47.49h30.08l-14.85-47.49H1171.67z"/>
		<path class="st1" d="M1221.97,495.49h-3.71c-0.85,0-1.28-0.51-1.28-1.54v-79.23c0-1.02,0.43-1.54,1.28-1.54h29.18
			c5.55,0,9.94,1.62,13.18,4.86c3.24,3.24,4.86,7.68,4.86,13.31v12.16c0,4.78-1.22,8.7-3.65,11.78c-2.43,3.07-5.74,5.04-9.92,5.89
			v0.51l15.23,32.26c0.51,1.02,0.21,1.54-0.9,1.54h-3.97c-1.11,0-1.88-0.51-2.3-1.54l-15.1-32.26h-20.22
			c-0.85,0-1.28,0.38-1.28,1.15v31.1C1223.38,494.97,1222.91,495.49,1221.97,495.49z M1224.66,456.19h22.14
			c3.92,0,6.95-1.09,9.09-3.26c2.13-2.18,3.2-5.27,3.2-9.28v-12.03c0-4.01-1.07-7.12-3.2-9.34c-2.13-2.22-5.16-3.33-9.09-3.33
			h-22.14c-0.85,0-1.28,0.38-1.28,1.15v34.94C1223.38,455.81,1223.81,456.19,1224.66,456.19z"/>
		<path class="st1" d="M1326.16,495.49h-39.55c-0.85,0-1.28-0.51-1.28-1.54v-79.23c0-1.02,0.43-1.54,1.28-1.54h39.55
			c1.02,0,1.54,0.47,1.54,1.41v2.94c0,0.94-0.51,1.41-1.54,1.41h-33.15c-0.85,0-1.28,0.38-1.28,1.15v29.44
			c0,0.77,0.43,1.15,1.28,1.15h29.57c0.94,0,1.41,0.47,1.41,1.41v2.94c0,0.94-0.47,1.41-1.41,1.41h-29.57
			c-0.85,0-1.28,0.38-1.28,1.15v30.98c0,0.77,0.43,1.15,1.28,1.15h33.15c1.02,0,1.54,0.47,1.54,1.41v2.94
			C1327.7,495.02,1327.19,495.49,1326.16,495.49z"/>
		<path class="st1" d="M1381.08,493.95v-79.23c0-1.02,0.43-1.54,1.28-1.54h31.62c5.55,0,9.92,1.62,13.12,4.86
			c3.2,3.24,4.8,7.68,4.8,13.31v45.95c0,5.63-1.6,10.07-4.8,13.31c-3.2,3.24-7.57,4.86-13.12,4.86h-31.62
			C1381.5,495.49,1381.08,494.97,1381.08,493.95z M1388.75,489.73h24.58c3.92,0,6.93-1.09,9.02-3.26c2.09-2.18,3.14-5.31,3.14-9.41
			v-45.44c0-4.1-1.05-7.23-3.14-9.41c-2.09-2.18-5.1-3.26-9.02-3.26h-24.58c-0.85,0-1.28,0.38-1.28,1.15v68.48
			C1387.48,489.34,1387.9,489.73,1388.75,489.73z"/>
		<path class="st1" d="M1493.2,495.49h-39.55c-0.85,0-1.28-0.51-1.28-1.54v-79.23c0-1.02,0.43-1.54,1.28-1.54h39.55
			c1.02,0,1.54,0.47,1.54,1.41v2.94c0,0.94-0.51,1.41-1.54,1.41h-33.15c-0.85,0-1.28,0.38-1.28,1.15v29.44
			c0,0.77,0.43,1.15,1.28,1.15h29.57c0.94,0,1.41,0.47,1.41,1.41v2.94c0,0.94-0.47,1.41-1.41,1.41h-29.57
			c-0.85,0-1.28,0.38-1.28,1.15v30.98c0,0.77,0.43,1.15,1.28,1.15h33.15c1.02,0,1.54,0.47,1.54,1.41v2.94
			C1494.74,495.02,1494.23,495.49,1493.2,495.49z"/>
		<path class="st1" d="M1538,495.49h-5.89c-0.85,0-1.41-0.51-1.66-1.54l-23.81-79.23c-0.34-1.02,0.04-1.54,1.15-1.54h3.97
			c0.85,0,1.41,0.51,1.66,1.54l21.38,72.83h0.51l21.38-72.83c0.26-1.02,0.81-1.54,1.66-1.54h3.97c1.02,0,1.41,0.51,1.15,1.54
			l-23.81,79.23C1539.41,494.97,1538.85,495.49,1538,495.49z"/>
	</g>
</g>
<g id="Layer_2_copy_5">
</g>
<g id="Layer_2_copy_6">
</g>
<g id="Layer_2_copy_7">
</g>
<g id="Layer_2_copy_8">
</g>
<g id="Layer_2_copy_9">
</g>
<g id="Layer_2_copy_10">
</g>
<g id="Layer_2_copy_11">
</g>
<g id="Layer_2_copy_12">
</g>
</svg>
