<?xml version="1.0" encoding="UTF-8" standalone="no"?>
<!DOCTYPE svg PUBLIC "-//W3C//DTD SVG 1.1//EN" "http://www.w3.org/Graphics/SVG/1.1/DTD/svg11.dtd">
<!-- Created with Vectornator (http://vectornator.io/) -->
<svg height="100%" stroke-miterlimit="10" style="fill-rule:nonzero;clip-rule:evenodd;stroke-linecap:round;stroke-linejoin:round;" version="1.1" viewBox="0 0 1621.17 424.628" width="100%" xml:space="preserve" xmlns="http://www.w3.org/2000/svg" xmlns:vectornator="http://vectornator.io" xmlns:xlink="http://www.w3.org/1999/xlink">
<defs/>
<clipPath id="ArtboardFrame">
<rect height="424.628" width="1621.17" x="0" y="0"/>
</clipPath>
<g clip-path="url(#ArtboardFrame)" id="Layer_2_copy_13" vectornator:layerName="Layer_2_copy_13">
<path d="M-0.000115865 423.88L-0.000115865 309.455L25.6699 309.455L25.6699 169.325L-0.000115865 169.325L0.0998841 5.79323e-05L72.0999 5.79323e-05L71.9999 423.88L-0.000115865 423.88Z" fill="#ffffff" fill-rule="nonzero" opacity="1" stroke="none" vectornator:layerName="polygon"/>
<path d="M91.1562 0.0577042L93.0312 423.933L1537.22 423.933L1617.38 323.776L1617.38 0.0577042L91.1562 0.0577042ZM107.219 16.0577C139.022 16.0577 1569.69 16.0577 1601.38 16.0577L1601.38 318.151L1529.53 407.933L108.969 407.933L107.219 16.0577Z" fill="#ffffff" fill-rule="nonzero" opacity="1" stroke="none"/>
<g fill="#ffffff" opacity="1" stroke="none">
<path d="M255.995 206.451L270.075 206.451C282.704 206.451 289.019 200.222 289.019 187.763L289.019 174.451C289.019 162.163 282.704 156.019 270.075 156.019L254.971 156.019C248.656 156.019 244.005 157.47 241.019 160.371C238.032 163.273 236.539 167.966 236.539 174.451L236.539 181.875C236.539 184.777 235.088 186.227 232.187 186.227L215.803 186.227C212.901 186.227 211.451 184.777 211.451 181.875L211.451 173.939C211.451 161.481 214.949 151.838 221.947 145.011C228.944 138.185 238.757 134.771 251.387 134.771L273.659 134.771C286.288 134.771 296.101 138.185 303.099 145.011C310.096 151.838 313.595 161.481 313.595 173.939L313.595 188.019C313.595 203.038 306.768 212.595 293.115 216.691C306.768 219.934 313.595 229.491 313.595 245.363L313.595 260.211C313.595 272.67 310.096 282.313 303.099 289.139C296.101 295.966 286.288 299.379 273.659 299.379L251.387 299.379C238.757 299.379 228.944 295.966 221.947 289.139C214.949 282.313 211.451 272.67 211.451 260.211L211.451 251.251C211.451 248.179 212.901 246.643 215.803 246.643L232.187 246.643C235.088 246.643 236.539 248.179 236.539 251.251L236.539 259.699C236.539 266.014 238.032 270.665 241.019 273.651C244.005 276.638 248.656 278.131 254.971 278.131L270.075 278.131C282.704 278.131 289.019 271.987 289.019 259.699L289.019 245.619C289.019 233.161 282.704 226.931 270.075 226.931L255.995 226.931C253.093 226.931 251.643 225.481 251.643 222.579L251.643 211.059C251.643 207.987 253.093 206.451 255.995 206.451Z"/>
<path d="M374.779 277.619L410.875 277.619C423.163 277.619 429.307 271.305 429.307 258.675L429.307 175.475C429.307 162.846 423.163 156.531 410.875 156.531L374.779 156.531C372.901 156.531 371.963 157.385 371.963 159.091L371.963 274.803C371.963 276.681 372.901 277.619 374.779 277.619ZM347.131 295.027L347.131 139.123C347.131 136.222 348.581 134.771 351.483 134.771L414.459 134.771C426.917 134.771 436.688 138.227 443.771 145.139C450.853 152.051 454.395 161.822 454.395 174.451L454.395 259.699C454.395 272.158 450.853 281.886 443.771 288.883C436.688 295.881 426.917 299.379 414.459 299.379L351.483 299.379C348.581 299.379 347.131 297.929 347.131 295.027Z"/>
<path d="M568.059 335.475L551.931 335.475C549.029 335.475 547.579 334.025 547.579 331.123L547.579 173.171C547.579 170.27 549.029 168.819 551.931 168.819L568.059 168.819C570.96 168.819 572.411 170.27 572.411 173.171L572.411 182.387L573.435 182.387C577.531 173.342 586.149 168.819 599.291 168.819L612.347 168.819C624.635 168.819 634.064 172.233 640.635 179.059C647.205 185.886 650.491 195.699 650.491 208.499L650.491 259.699C650.491 272.329 647.205 282.099 640.635 289.011C634.064 295.923 624.635 299.379 612.347 299.379L599.291 299.379C586.149 299.379 577.531 294.857 573.435 285.811L572.411 285.811L572.411 331.123C572.411 334.025 570.96 335.475 568.059 335.475ZM593.403 277.619L606.971 277.619C619.259 277.619 625.403 271.305 625.403 258.675L625.403 209.523C625.403 196.894 619.259 190.579 606.971 190.579L593.403 190.579C579.408 190.579 572.411 197.833 572.411 212.339L572.411 255.859C572.411 270.366 579.408 277.619 593.403 277.619Z"/>
<path d="M700.667 299.379L684.539 299.379C681.637 299.379 680.187 297.929 680.187 295.027L680.187 173.171C680.187 170.27 681.637 168.819 684.539 168.819L700.667 168.819C703.568 168.819 705.019 170.27 705.019 173.171L705.019 182.899L706.043 182.899C707.749 178.633 711.035 175.219 715.899 172.659C720.763 170.099 726.181 168.819 732.155 168.819L741.627 168.819C744.528 168.819 745.979 170.27 745.979 173.171L745.979 186.483C745.979 189.726 744.528 191.091 741.627 190.579L726.267 190.579C712.101 190.579 705.019 198.345 705.019 213.875L705.019 295.027C705.019 297.929 703.568 299.379 700.667 299.379Z"/>
<path d="M767.227 147.059L767.227 123.763C767.227 121.033 768.592 119.667 771.323 119.667L787.963 119.667C790.693 119.667 792.059 121.033 792.059 123.763L792.059 147.059C792.059 149.961 790.693 151.411 787.963 151.411L771.323 151.411C768.592 151.411 767.227 149.961 767.227 147.059ZM767.227 295.027L767.227 173.171C767.227 170.27 768.592 168.819 771.323 168.819L787.707 168.819C790.608 168.819 792.059 170.27 792.059 173.171L792.059 295.027C792.059 296.734 791.76 297.886 791.163 298.483C790.565 299.081 789.499 299.379 787.963 299.379L771.579 299.379C768.677 299.379 767.227 297.929 767.227 295.027Z"/>
<path d="M846.075 299.379L829.947 299.379C827.045 299.379 825.595 297.929 825.595 295.027L825.595 173.171C825.595 170.27 827.045 168.819 829.947 168.819L846.075 168.819C848.976 168.819 850.427 170.27 850.427 173.171L850.427 182.387L851.451 182.387C855.547 173.342 864.165 168.819 877.307 168.819L888.571 168.819C901.029 168.819 910.587 172.233 917.243 179.059C923.899 185.886 927.227 195.699 927.227 208.499L927.227 295.027C927.227 297.929 925.691 299.379 922.619 299.379L906.491 299.379C903.589 299.379 902.139 297.929 902.139 295.027L902.139 209.523C902.139 196.894 895.909 190.579 883.451 190.579L871.419 190.579C857.424 190.579 850.427 197.833 850.427 212.339L850.427 295.027C850.427 297.929 848.976 299.379 846.075 299.379Z"/>
<path d="M961.787 190.579L949.499 190.579C947.792 190.579 946.64 190.281 946.043 189.683C945.445 189.086 945.147 188.019 945.147 186.483L945.147 173.171C945.147 170.27 946.597 168.819 949.499 168.819L961.787 168.819C963.493 168.819 964.347 167.966 964.347 166.259L964.347 143.219C964.347 140.318 965.883 138.867 968.955 138.867L985.083 138.867C987.984 138.867 989.435 140.318 989.435 143.219L989.435 166.259C989.435 167.966 990.373 168.819 992.251 168.819L1016.06 168.819C1019.13 168.819 1020.67 170.27 1020.67 173.171L1020.67 186.483C1020.67 189.214 1019.13 190.579 1016.06 190.579L992.251 190.579C990.373 190.579 989.435 191.433 989.435 193.139L989.435 258.931C989.435 271.39 995.835 277.619 1008.63 277.619L1018.62 277.619C1021.69 277.619 1023.23 279.07 1023.23 281.971L1023.23 295.283C1023.23 298.014 1021.69 299.379 1018.62 299.379L1004.79 299.379C992.165 299.379 982.267 295.966 975.099 289.139C967.931 282.313 964.347 272.67 964.347 260.211L964.347 193.139C964.347 191.433 963.493 190.579 961.787 190.579Z"/>
<path d="M1049.08 147.059L1049.08 123.763C1049.08 121.033 1050.45 119.667 1053.18 119.667L1069.82 119.667C1072.55 119.667 1073.91 121.033 1073.91 123.763L1073.91 147.059C1073.91 149.961 1072.55 151.411 1069.82 151.411L1053.18 151.411C1050.45 151.411 1049.08 149.961 1049.08 147.059ZM1049.08 295.027L1049.08 173.171C1049.08 170.27 1050.45 168.819 1053.18 168.819L1069.56 168.819C1072.46 168.819 1073.91 170.27 1073.91 173.171L1073.91 295.027C1073.91 296.734 1073.62 297.886 1073.02 298.483C1072.42 299.081 1071.35 299.379 1069.82 299.379L1053.43 299.379C1050.53 299.379 1049.08 297.929 1049.08 295.027Z"/>
<path d="M1127.93 299.379L1111.8 299.379C1108.9 299.379 1107.45 297.929 1107.45 295.027L1107.45 173.171C1107.45 170.27 1108.9 168.819 1111.8 168.819L1127.93 168.819C1130.83 168.819 1132.28 170.27 1132.28 173.171L1132.28 182.387L1133.31 182.387C1137.4 173.342 1146.02 168.819 1159.16 168.819L1170.43 168.819C1182.89 168.819 1192.44 172.233 1199.1 179.059C1205.75 185.886 1209.08 195.699 1209.08 208.499L1209.08 295.027C1209.08 297.929 1207.55 299.379 1204.47 299.379L1188.35 299.379C1185.45 299.379 1183.99 297.929 1183.99 295.027L1183.99 209.523C1183.99 196.894 1177.77 190.579 1165.31 190.579L1153.27 190.579C1139.28 190.579 1132.28 197.833 1132.28 212.339L1132.28 295.027C1132.28 297.929 1130.83 299.379 1127.93 299.379Z"/>
<path d="M1287.42 292.979L1275.9 292.979C1263.61 292.979 1254.18 289.523 1247.61 282.611C1241.04 275.699 1237.75 265.929 1237.75 253.299L1237.75 208.499C1237.75 195.87 1241.25 186.099 1248.25 179.187C1255.25 172.275 1264.98 168.819 1277.43 168.819L1334.78 168.819C1337.85 168.819 1339.39 170.27 1339.39 173.171L1339.39 299.891C1339.39 312.35 1335.85 322.035 1328.76 328.947C1321.68 335.859 1311.91 339.315 1299.45 339.315L1251.32 339.315C1248.42 339.315 1246.97 337.95 1246.97 335.219L1246.97 321.907C1246.97 319.006 1248.42 317.555 1251.32 317.555L1295.61 317.555C1308.07 317.555 1314.3 311.241 1314.3 298.611L1314.3 279.155L1313.27 279.155C1309.01 288.371 1300.39 292.979 1287.42 292.979ZM1314.3 249.459L1314.3 193.139C1314.3 191.433 1313.36 190.579 1311.48 190.579L1281.02 190.579C1268.9 190.579 1262.84 196.894 1262.84 209.523L1262.84 252.019C1262.84 264.649 1268.9 270.963 1281.02 270.963L1293.31 270.963C1307.3 270.963 1314.3 263.795 1314.3 249.459Z"/>
</g>
</g>
</svg>
