<?xml version="1.0" encoding="UTF-8" standalone="no"?>
<!DOCTYPE svg PUBLIC "-//W3C//DTD SVG 1.1//EN" "http://www.w3.org/Graphics/SVG/1.1/DTD/svg11.dtd">
<!-- Created with Vectornator (http://vectornator.io/) -->
<svg height="100%" stroke-miterlimit="10" style="fill-rule:nonzero;clip-rule:evenodd;stroke-linecap:round;stroke-linejoin:round;" version="1.1" viewBox="0 0 1621.17 424.628" width="100%" xml:space="preserve" xmlns="http://www.w3.org/2000/svg" xmlns:vectornator="http://vectornator.io" xmlns:xlink="http://www.w3.org/1999/xlink">
<defs/>
<clipPath id="ArtboardFrame">
<rect height="424.628" width="1621.17" x="0" y="0"/>
</clipPath>
<g clip-path="url(#ArtboardFrame)" id="Layer_2_copy_13" vectornator:layerName="Layer_2_copy_13">
<path d="M-0.000115865 423.88L-0.000115865 309.455L25.6699 309.455L25.6699 169.325L-0.000115865 169.325L0.0998841 5.79323e-05L72.0999 5.79323e-05L71.9999 423.88L-0.000115865 423.88Z" fill="#ffffff" fill-rule="nonzero" opacity="1" stroke="none" vectornator:layerName="polygon"/>
<path d="M91.1562 0L93.0312 423.875L1537.22 423.875L1617.38 323.719L1617.38 0L91.1562 0ZM107.219 16C139.022 16 1569.69 16 1601.38 16L1601.38 318.094L1529.53 407.875L108.969 407.875L107.219 16Z" fill="#ffffff" fill-rule="nonzero" opacity="1" stroke="none"/>
<g opacity="1">
<g fill="#ffffff" opacity="1" stroke="none">
<path d="M244.219 147.9L244.219 303.804C244.219 306.706 242.768 308.156 239.867 308.156L223.739 308.156C220.837 308.156 219.387 306.706 219.387 303.804L219.387 147.9C219.387 144.999 220.837 143.548 223.739 143.548L239.867 143.548C242.768 143.548 244.219 144.999 244.219 147.9Z"/>
<path d="M410.619 308.156L380.923 308.156C368.293 308.156 358.523 304.658 351.611 297.66C344.699 290.663 341.243 280.935 341.243 268.476L341.243 183.228C341.243 170.599 344.699 160.828 351.611 153.916C358.523 147.004 368.293 143.548 380.923 143.548L410.619 143.548C423.077 143.548 432.805 147.004 439.803 153.916C446.8 160.828 450.299 170.599 450.299 183.228L450.299 195.516C450.299 198.588 448.763 200.124 445.691 200.124L429.563 200.124C426.661 200.124 425.211 198.588 425.211 195.516L425.211 184.252C425.211 171.623 419.067 165.308 406.779 165.308L384.507 165.308C372.219 165.308 366.075 171.623 366.075 184.252L366.075 267.452C366.075 280.082 372.219 286.396 384.507 286.396L406.779 286.396C419.067 286.396 425.211 280.082 425.211 267.452L425.211 256.188C425.211 253.116 426.661 251.58 429.563 251.58L445.691 251.58C448.763 251.58 450.299 253.116 450.299 256.188L450.299 268.476C450.299 280.935 446.8 290.663 439.803 297.66C432.805 304.658 423.077 308.156 410.619 308.156Z"/>
</g>
<path d="M262.92 198.882L262.92 184.162C262.92 177.549 265.747 172.002 271.4 167.522L301.64 142.882C306.76 138.829 309.32 134.135 309.32 128.802L309.32 123.522C309.32 115.842 305.32 112.002 297.32 112.002L289.48 112.002C285.427 112.002 282.493 112.909 280.68 114.722C278.867 116.535 277.96 119.469 277.96 123.522L277.96 129.442C277.96 131.362 277.053 132.322 275.24 132.322L265 132.322C263.187 132.322 262.28 131.362 262.28 129.442L262.28 123.202C262.28 115.415 264.467 109.389 268.84 105.122C273.213 100.855 279.347 98.7222 287.24 98.7222L299.72 98.7222C307.507 98.7222 313.587 100.855 317.96 105.122C322.333 109.389 324.52 115.415 324.52 123.202L324.52 129.762C324.52 138.082 321.267 144.909 314.76 150.242L284.04 175.362C281.587 177.389 280.36 179.789 280.36 182.562L280.36 187.682L321.96 187.682C323.88 187.682 324.84 188.589 324.84 190.402L324.84 198.882C324.84 200.695 323.88 201.602 321.96 201.602L265.8 201.602C263.88 201.602 262.92 200.695 262.92 198.882Z" fill="#ffffff" opacity="1" stroke="none"/>
</g>
</g>
</svg>
