<?xml version="1.0" encoding="UTF-8" standalone="no"?>
<!DOCTYPE svg PUBLIC "-//W3C//DTD SVG 1.1//EN" "http://www.w3.org/Graphics/SVG/1.1/DTD/svg11.dtd">
<!-- Created with Vectornator (http://vectornator.io/) -->
<svg height="100%" stroke-miterlimit="10" style="fill-rule:nonzero;clip-rule:evenodd;stroke-linecap:round;stroke-linejoin:round;" version="1.1" viewBox="0 0 1621.17 424.628" width="100%" xml:space="preserve" xmlns="http://www.w3.org/2000/svg" xmlns:vectornator="http://vectornator.io" xmlns:xlink="http://www.w3.org/1999/xlink">
<defs/>
<clipPath id="ArtboardFrame">
<rect height="424.628" width="1621.17" x="0" y="0"/>
</clipPath>
<g clip-path="url(#ArtboardFrame)" id="Layer_2_copy_13" vectornator:layerName="Layer_2_copy_13">
<path d="M-0.000115865 423.88L-0.000115865 309.455L25.6699 309.455L25.6699 169.325L-0.000115865 169.325L0.0998841 5.79323e-05L72.0999 5.79323e-05L71.9999 423.88L-0.000115865 423.88Z" fill="#ffffff" fill-rule="nonzero" opacity="1" stroke="none" vectornator:layerName="polygon"/>
<path d="M91.1562 0L93.0312 423.875L1537.22 423.875L1617.38 323.719L1617.38 0L91.1562 0ZM107.219 16C139.022 16 1569.69 16 1601.38 16L1601.38 318.094L1529.53 407.875L108.969 407.875L107.219 16Z" fill="#ffffff" fill-rule="nonzero" opacity="1" stroke="none"/>
<g fill="#ffffff" opacity="1" stroke="none">
<path d="M215.035 259.443L215.035 252.787C215.035 249.886 216.485 248.435 219.387 248.435L235.771 248.435C238.672 248.435 240.123 249.886 240.123 252.787L240.123 257.395C240.123 264.563 241.701 269.726 244.859 272.883C248.016 276.041 253.264 277.619 260.603 277.619L278.267 277.619C285.605 277.619 290.896 275.955 294.139 272.627C297.381 269.299 299.003 263.881 299.003 256.371L299.003 250.483C299.003 245.022 296.912 240.713 292.731 237.555C288.549 234.398 283.387 232.35 277.243 231.411C271.099 230.473 264.357 229.15 257.019 227.443C249.68 225.737 242.939 223.774 236.795 221.555C230.651 219.337 225.488 215.155 221.307 209.011C217.125 202.867 215.035 195.017 215.035 185.459L215.035 174.707C215.035 162.249 218.576 152.478 225.659 145.395C232.741 138.313 242.512 134.771 254.971 134.771L282.107 134.771C294.736 134.771 304.592 138.313 311.675 145.395C318.757 152.478 322.299 162.249 322.299 174.707L322.299 180.339C322.299 183.241 320.848 184.691 317.947 184.691L301.563 184.691C298.661 184.691 297.211 183.241 297.211 180.339L297.211 177.011C297.211 169.673 295.632 164.425 292.475 161.267C289.317 158.11 284.069 156.531 276.731 156.531L260.603 156.531C253.264 156.531 248.016 158.195 244.859 161.523C241.701 164.851 240.123 170.526 240.123 178.547L240.123 186.483C240.123 194.163 245.669 199.369 256.763 202.099C261.712 203.294 267.131 204.318 273.019 205.171C278.907 206.025 284.837 207.305 290.811 209.011C296.784 210.718 302.245 212.979 307.195 215.795C312.144 218.611 316.155 222.878 319.227 228.595C322.299 234.313 323.835 241.267 323.835 249.459L323.835 259.443C323.835 271.902 320.293 281.673 313.211 288.755C306.128 295.838 296.357 299.379 283.899 299.379L255.227 299.379C242.768 299.379 232.955 295.838 225.787 288.755C218.619 281.673 215.035 271.902 215.035 259.443Z"/>
<path d="M401.659 299.379L379.643 299.379C377.083 299.379 375.376 297.929 374.523 295.027L345.083 173.171C344.4 170.27 345.424 168.819 348.155 168.819L366.587 168.819C369.659 168.819 371.365 170.27 371.707 173.171L390.395 269.939L392.187 269.939L414.715 173.171C415.227 170.27 416.848 168.819 419.579 168.819L436.475 168.819C439.376 168.819 441.168 170.27 441.851 173.171L463.867 269.939L465.659 269.939L484.347 173.171C484.859 170.27 486.565 168.819 489.467 168.819L507.899 168.819C510.8 168.819 511.824 170.27 510.971 173.171L481.531 295.027C481.019 297.929 479.312 299.379 476.411 299.379L454.395 299.379C451.664 299.379 449.957 297.929 449.275 295.027L428.795 200.051L427.003 200.051L406.779 295.027C406.267 297.929 404.56 299.379 401.659 299.379Z"/>
<path d="M534.011 147.059L534.011 123.763C534.011 121.033 535.376 119.667 538.107 119.667L554.747 119.667C557.477 119.667 558.843 121.033 558.843 123.763L558.843 147.059C558.843 149.961 557.477 151.411 554.747 151.411L538.107 151.411C535.376 151.411 534.011 149.961 534.011 147.059ZM534.011 295.027L534.011 173.171C534.011 170.27 535.376 168.819 538.107 168.819L554.491 168.819C557.392 168.819 558.843 170.27 558.843 173.171L558.843 295.027C558.843 296.734 558.544 297.886 557.947 298.483C557.349 299.081 556.283 299.379 554.747 299.379L538.363 299.379C535.461 299.379 534.011 297.929 534.011 295.027Z"/>
<path d="M631.803 168.819L653.307 168.819C656.379 168.819 657.915 170.185 657.915 172.915L657.915 186.227C657.915 189.129 656.379 190.579 653.307 190.579L631.803 190.579C630.096 190.579 629.243 191.433 629.243 193.139L629.243 295.027C629.243 297.929 627.707 299.379 624.635 299.379L608.507 299.379C605.605 299.379 604.155 297.929 604.155 295.027L604.155 193.139C604.155 191.433 603.216 190.579 601.339 190.579L587.771 190.579C584.869 190.579 583.419 189.129 583.419 186.227L583.419 172.915C583.419 171.379 583.717 170.313 584.315 169.715C584.912 169.118 586.064 168.819 587.771 168.819L601.339 168.819C603.216 168.819 604.155 167.966 604.155 166.259L604.155 158.835C604.155 146.206 607.397 136.478 613.883 129.651C620.368 122.825 629.84 119.411 642.299 119.411L653.563 119.411C656.464 119.411 657.915 120.777 657.915 123.507L657.915 136.819C657.915 139.721 656.464 141.171 653.563 141.171L645.883 141.171C639.739 141.171 635.429 142.665 632.955 145.651C630.48 148.638 629.243 153.459 629.243 160.115L629.243 166.259C629.243 167.966 630.096 168.819 631.803 168.819Z"/>
<path d="M681.979 190.579L669.691 190.579C667.984 190.579 666.832 190.281 666.235 189.683C665.637 189.086 665.339 188.019 665.339 186.483L665.339 173.171C665.339 170.27 666.789 168.819 669.691 168.819L681.979 168.819C683.685 168.819 684.539 167.966 684.539 166.259L684.539 143.219C684.539 140.318 686.075 138.867 689.147 138.867L705.275 138.867C708.176 138.867 709.627 140.318 709.627 143.219L709.627 166.259C709.627 167.966 710.565 168.819 712.443 168.819L736.251 168.819C739.323 168.819 740.859 170.27 740.859 173.171L740.859 186.483C740.859 189.214 739.323 190.579 736.251 190.579L712.443 190.579C710.565 190.579 709.627 191.433 709.627 193.139L709.627 258.931C709.627 271.39 716.027 277.619 728.827 277.619L738.811 277.619C741.883 277.619 743.419 279.07 743.419 281.971L743.419 295.283C743.419 298.014 741.883 299.379 738.811 299.379L724.987 299.379C712.357 299.379 702.459 295.966 695.291 289.139C688.123 282.313 684.539 272.67 684.539 260.211L684.539 193.139C684.539 191.433 683.685 190.579 681.979 190.579Z"/>
<path d="M856.571 134.771L872.699 134.771C875.771 134.771 877.307 136.137 877.307 138.867L877.307 259.699C877.307 272.158 873.765 281.886 866.683 288.883C859.6 295.881 849.829 299.379 837.371 299.379L808.955 299.379C796.496 299.379 786.768 295.881 779.771 288.883C772.773 281.886 769.275 272.158 769.275 259.699L769.275 139.123C769.275 136.222 770.725 134.771 773.627 134.771L789.755 134.771C792.656 134.771 794.107 136.222 794.107 139.123L794.107 258.675C794.107 271.305 800.251 277.619 812.539 277.619L833.531 277.619C845.989 277.619 852.219 271.305 852.219 258.675L852.219 139.123C852.219 136.222 853.669 134.771 856.571 134.771Z"/>
<path d="M939.259 139.123L939.259 295.027C939.259 297.929 937.808 299.379 934.907 299.379L918.779 299.379C915.877 299.379 914.427 297.929 914.427 295.027L914.427 139.123C914.427 136.222 915.877 134.771 918.779 134.771L934.907 134.771C937.808 134.771 939.259 136.222 939.259 139.123Z"/>
</g>
</g>
</svg>
