<?xml version="1.0" encoding="UTF-8" standalone="no"?>
<!DOCTYPE svg PUBLIC "-//W3C//DTD SVG 1.1//EN" "http://www.w3.org/Graphics/SVG/1.1/DTD/svg11.dtd">
<!-- Created with Vectornator (http://vectornator.io/) -->
<svg height="100%" stroke-miterlimit="10" style="fill-rule:nonzero;clip-rule:evenodd;stroke-linecap:round;stroke-linejoin:round;" version="1.1" viewBox="0 0 2048 512" width="100%" xml:space="preserve" xmlns="http://www.w3.org/2000/svg" xmlns:vectornator="http://vectornator.io" xmlns:xlink="http://www.w3.org/1999/xlink">
<defs/>
<clipPath id="ArtboardFrame">
<rect height="512" width="2048" x="0" y="0"/>
</clipPath>
<g clip-path="url(#ArtboardFrame)" id="Layer_1" vectornator:layerName="Layer_1">
<path d="M0-0.71875L-0.1875 247.062L69.8125 304.312L70 512L1967.25 512L2047.62 411.531L2048 411.812L2048-0.71875L0-0.71875ZM381.188 116.438C385.748 116.437 388.958 119.63 390.75 125.219L400.688 156.531L433.375 156.25C439.184 156.141 443.253 158.253 444.719 162.594C446.239 166.935 444.067 171.019 439.344 174.438L412.625 193.531L423.125 224.562C425.025 229.989 424.262 234.568 420.625 237.281C416.933 240.103 412.434 239.285 407.656 235.812L381.188 216.312L354.719 235.812C349.995 239.285 345.473 240.103 341.781 237.281C338.144 234.568 337.381 229.989 339.281 224.562L349.781 193.531L323.062 174.438C318.339 171.019 316.167 166.958 317.688 162.562C319.208 158.276 323.268 156.141 328.969 156.25L361.719 156.531L371.656 125.219C373.448 119.63 376.627 116.438 381.188 116.438ZM742.969 173.688L770.094 173.688C782.723 173.687 792.605 177.23 799.688 184.312C806.77 191.395 810.313 201.166 810.312 213.625L810.312 219.25C810.312 222.151 808.839 223.625 805.938 223.625L789.562 223.625C786.661 223.625 785.219 222.151 785.219 219.25L785.219 215.938C785.219 208.599 783.626 203.345 780.469 200.188C777.311 197.03 772.057 195.469 764.719 195.469L748.594 195.469C741.255 195.469 736.032 197.109 732.875 200.438C729.718 203.765 728.125 209.447 728.125 217.469L728.125 225.406C728.125 233.086 733.657 238.301 744.75 241.031C749.699 242.226 755.143 243.24 761.031 244.094C766.919 244.947 772.839 246.231 778.812 247.938C784.786 249.644 790.238 251.903 795.188 254.719C800.137 257.535 804.147 261.814 807.219 267.531C810.291 273.249 811.844 280.183 811.844 288.375L811.844 298.375C811.844 310.834 808.301 320.605 801.219 327.688C794.136 334.77 784.365 338.312 771.906 338.312L743.219 338.312C730.76 338.312 720.949 334.77 713.781 327.688C706.613 320.605 703.031 310.834 703.031 298.375L703.031 291.719C703.031 288.817 704.474 287.375 707.375 287.375L723.781 287.375C726.682 287.375 728.125 288.817 728.125 291.719L728.125 296.312C728.125 303.481 729.717 308.655 732.875 311.812C736.033 314.97 741.255 316.531 748.594 316.531L766.281 316.531C773.62 316.531 778.882 314.891 782.125 311.562C785.368 308.235 787 302.791 787 295.281L787 289.406C787 283.945 784.9 279.626 780.719 276.469C776.537 273.311 771.394 271.282 765.25 270.344C759.106 269.405 752.37 268.082 745.031 266.375C737.693 264.668 730.925 262.687 724.781 260.469C718.637 258.25 713.494 254.082 709.312 247.938C705.131 241.793 703.031 233.932 703.031 224.375L703.031 213.625C703.031 201.166 706.574 191.395 713.656 184.312C720.739 177.23 730.51 173.688 742.969 173.688ZM850.75 173.688L866.875 173.688C869.776 173.688 871.219 175.161 871.219 178.062L871.219 259.188L872 259.188C873.707 254.579 875.926 250.332 878.656 246.406L927.562 178.062C929.44 175.161 932.166 173.687 935.75 173.688L954.688 173.688C958.271 173.688 958.858 175.32 956.469 178.562L906.562 246.406L962.875 333.188C964.923 336.601 963.908 338.312 959.812 338.312L945.469 338.312C940.861 338.312 937.627 336.839 935.75 333.938L891.438 264.562L871.219 288.375L871.219 333.938C871.219 336.839 869.776 338.312 866.875 338.312L850.75 338.312C847.849 338.312 846.406 336.839 846.406 333.938L846.406 178.062C846.406 175.161 847.849 173.687 850.75 173.688ZM992.312 173.688L1008.44 173.688C1011.34 173.688 1012.78 175.161 1012.78 178.062L1012.78 333.938C1012.78 336.839 1011.34 338.312 1008.44 338.312L992.312 338.312C989.411 338.312 987.969 336.839 987.969 333.938L987.969 178.062C987.969 175.161 989.411 173.687 992.312 173.688ZM1055.81 173.688L1071.94 173.688C1074.84 173.688 1076.28 175.161 1076.28 178.062L1076.28 313.469C1076.28 315.175 1077.3 316.031 1079.34 316.031L1138.75 316.031C1141.65 316.031 1143.09 317.553 1143.09 320.625L1143.09 333.938C1143.09 336.839 1141.65 338.312 1138.75 338.312L1055.81 338.312C1052.91 338.312 1051.44 336.839 1051.44 333.938L1051.44 178.062C1051.44 175.161 1052.91 173.687 1055.81 173.688ZM1171 173.688L1187.12 173.688C1190.03 173.688 1191.47 175.161 1191.47 178.062L1191.47 313.469C1191.47 315.175 1192.51 316.031 1194.56 316.031L1253.94 316.031C1256.84 316.031 1258.31 317.553 1258.31 320.625L1258.31 333.938C1258.31 336.839 1256.84 338.312 1253.94 338.312L1171 338.312C1168.1 338.312 1166.66 336.839 1166.66 333.938L1166.66 178.062C1166.66 175.161 1168.1 173.687 1171 173.688ZM1318.72 173.688L1345.84 173.688C1358.47 173.688 1368.32 177.23 1375.41 184.312C1382.49 191.395 1386.03 201.166 1386.03 213.625L1386.03 219.25C1386.03 222.151 1384.59 223.625 1381.69 223.625L1365.31 223.625C1362.41 223.625 1360.97 222.151 1360.97 219.25L1360.97 215.938C1360.97 208.599 1359.38 203.345 1356.22 200.188C1353.06 197.03 1347.81 195.469 1340.47 195.469L1324.34 195.469C1317 195.469 1311.75 197.109 1308.59 200.438C1305.44 203.765 1303.87 209.447 1303.88 217.469L1303.88 225.406C1303.88 233.086 1309.41 238.301 1320.5 241.031C1325.45 242.226 1330.86 243.24 1336.75 244.094C1342.64 244.947 1348.59 246.231 1354.56 247.938C1360.54 249.644 1365.99 251.903 1370.94 254.719C1375.89 257.535 1379.9 261.814 1382.97 267.531C1386.04 273.249 1387.59 280.183 1387.59 288.375L1387.59 298.375C1387.59 310.834 1384.05 320.605 1376.97 327.688C1369.89 334.77 1360.11 338.312 1347.66 338.312L1318.97 338.312C1306.51 338.312 1296.7 334.77 1289.53 327.688C1282.36 320.605 1278.78 310.834 1278.78 298.375L1278.78 291.719C1278.78 288.817 1280.22 287.375 1283.12 287.375L1299.53 287.375C1302.43 287.375 1303.88 288.817 1303.88 291.719L1303.88 296.312C1303.88 303.481 1305.44 308.655 1308.59 311.812C1311.75 314.97 1317.01 316.531 1324.34 316.531L1342 316.531C1349.34 316.531 1354.63 314.891 1357.88 311.562C1361.12 308.235 1362.75 302.791 1362.75 295.281L1362.75 289.406C1362.75 283.945 1360.65 279.626 1356.47 276.469C1352.29 273.311 1347.14 271.282 1341 270.344C1334.86 269.405 1328.09 268.082 1320.75 266.375C1313.41 264.668 1306.68 262.687 1300.53 260.469C1294.39 258.25 1289.24 254.082 1285.06 247.938C1280.88 241.793 1278.78 233.932 1278.78 224.375L1278.78 213.625C1278.78 201.166 1282.32 191.395 1289.41 184.312C1296.49 177.23 1306.26 173.688 1318.72 173.688ZM288.656 273.031C293.217 273.031 296.427 276.223 298.219 281.812L308.156 313.125L340.844 312.844C346.653 312.735 350.722 314.878 352.188 319.219C353.708 323.56 351.536 327.613 346.812 331.031L320.094 350.125L330.562 381.156C332.463 386.582 331.7 391.162 328.062 393.875C324.371 396.697 319.871 395.879 315.094 392.406L288.656 372.938L262.156 392.406C257.433 395.879 252.942 396.697 249.25 393.875C245.613 391.162 244.85 386.583 246.75 381.156L257.219 350.125L230.531 331.031C225.808 327.613 223.636 323.552 225.156 319.156C226.676 314.869 230.737 312.735 236.438 312.844L269.156 313.125L279.094 281.812C280.885 276.223 284.096 273.031 288.656 273.031ZM473.75 273.031C478.31 273.031 481.521 276.223 483.312 281.812L493.219 313.125L525.906 312.844C531.715 312.735 535.784 314.878 537.25 319.219C538.77 323.56 536.598 327.613 531.875 331.031L505.188 350.125L515.656 381.156C517.556 386.582 516.794 391.162 513.156 393.875C509.465 396.697 504.965 395.879 500.188 392.406L473.75 372.938L447.25 392.406C442.527 395.879 438.004 396.697 434.312 393.875C430.675 391.162 429.944 386.583 431.844 381.156L442.312 350.125L415.594 331.031C410.87 327.613 408.699 323.552 410.219 319.156C411.739 314.869 415.799 312.735 421.5 312.844L454.25 313.125L464.188 281.812C465.979 276.223 469.19 273.031 473.75 273.031Z" fill="#ffffff" fill-rule="nonzero" opacity="1" stroke="none"/>
</g>
</svg>
