<?xml version="1.0" encoding="UTF-8" standalone="no"?>
<!DOCTYPE svg PUBLIC "-//W3C//DTD SVG 1.1//EN" "http://www.w3.org/Graphics/SVG/1.1/DTD/svg11.dtd">
<!-- Created with Vectornator (http://vectornator.io/) -->
<svg height="100%" stroke-miterlimit="10" style="fill-rule:nonzero;clip-rule:evenodd;stroke-linecap:round;stroke-linejoin:round;" version="1.1" viewBox="0 0 1621.17 424.628" width="100%" xml:space="preserve" xmlns="http://www.w3.org/2000/svg" xmlns:vectornator="http://vectornator.io" xmlns:xlink="http://www.w3.org/1999/xlink">
<defs/>
<clipPath id="ArtboardFrame">
<rect height="424.628" width="1621.17" x="0" y="0"/>
</clipPath>
<g clip-path="url(#ArtboardFrame)" id="Layer_2_copy_13" vectornator:layerName="Layer_2_copy_13">
<path d="M-0.000115865 423.88L-0.000115865 309.455L25.6699 309.455L25.6699 169.325L-0.000115865 169.325L0.0998841 5.79323e-05L72.0999 5.79323e-05L71.9999 423.88L-0.000115865 423.88Z" fill="#ffffff" fill-rule="nonzero" opacity="1" stroke="none" vectornator:layerName="polygon"/>
<path d="M91.1562 0.0577042L93.0312 423.933L1537.22 423.933L1617.38 323.776L1617.38 0.0577042L91.1562 0.0577042ZM107.219 16.0577C139.022 16.0577 1569.69 16.0577 1601.38 16.0577L1601.38 318.151L1529.53 407.933L108.969 407.933L107.219 16.0577Z" fill="#ffffff" fill-rule="nonzero" opacity="1" stroke="none"/>
<g fill="#ffffff" opacity="1" stroke="none">
<path d="M255.995 206.451L270.075 206.451C282.704 206.451 289.019 200.222 289.019 187.763L289.019 174.451C289.019 162.163 282.704 156.019 270.075 156.019L254.971 156.019C248.656 156.019 244.005 157.47 241.019 160.371C238.032 163.273 236.539 167.966 236.539 174.451L236.539 181.875C236.539 184.777 235.088 186.227 232.187 186.227L215.803 186.227C212.901 186.227 211.451 184.777 211.451 181.875L211.451 173.939C211.451 161.481 214.949 151.838 221.947 145.011C228.944 138.185 238.757 134.771 251.387 134.771L273.659 134.771C286.288 134.771 296.101 138.185 303.099 145.011C310.096 151.838 313.595 161.481 313.595 173.939L313.595 188.019C313.595 203.038 306.768 212.595 293.115 216.691C306.768 219.934 313.595 229.491 313.595 245.363L313.595 260.211C313.595 272.67 310.096 282.313 303.099 289.139C296.101 295.966 286.288 299.379 273.659 299.379L251.387 299.379C238.757 299.379 228.944 295.966 221.947 289.139C214.949 282.313 211.451 272.67 211.451 260.211L211.451 251.251C211.451 248.179 212.901 246.643 215.803 246.643L232.187 246.643C235.088 246.643 236.539 248.179 236.539 251.251L236.539 259.699C236.539 266.014 238.032 270.665 241.019 273.651C244.005 276.638 248.656 278.131 254.971 278.131L270.075 278.131C282.704 278.131 289.019 271.987 289.019 259.699L289.019 245.619C289.019 233.161 282.704 226.931 270.075 226.931L255.995 226.931C253.093 226.931 251.643 225.481 251.643 222.579L251.643 211.059C251.643 207.987 253.093 206.451 255.995 206.451Z"/>
<path d="M374.779 277.619L410.875 277.619C423.163 277.619 429.307 271.305 429.307 258.675L429.307 175.475C429.307 162.846 423.163 156.531 410.875 156.531L374.779 156.531C372.901 156.531 371.963 157.385 371.963 159.091L371.963 274.803C371.963 276.681 372.901 277.619 374.779 277.619ZM347.131 295.027L347.131 139.123C347.131 136.222 348.581 134.771 351.483 134.771L414.459 134.771C426.917 134.771 436.688 138.227 443.771 145.139C450.853 152.051 454.395 161.822 454.395 174.451L454.395 259.699C454.395 272.158 450.853 281.886 443.771 288.883C436.688 295.881 426.917 299.379 414.459 299.379L351.483 299.379C348.581 299.379 347.131 297.929 347.131 295.027Z"/>
<path d="M568.059 299.379L551.931 299.379C549.029 299.379 547.579 297.929 547.579 295.027L547.579 173.171C547.579 170.27 549.029 168.819 551.931 168.819L568.059 168.819C570.96 168.819 572.411 170.27 572.411 173.171L572.411 182.387L573.435 182.387C578.384 173.342 587.429 168.819 600.571 168.819L609.019 168.819C623.867 168.819 634.448 174.451 640.763 185.715C643.493 180.254 647.675 176.073 653.307 173.171C658.939 170.27 664.997 168.819 671.483 168.819L679.675 168.819C692.133 168.819 701.648 172.275 708.219 179.187C714.789 186.099 718.075 195.87 718.075 208.499L718.075 295.027C718.075 297.929 716.624 299.379 713.723 299.379L697.339 299.379C694.437 299.379 692.987 297.929 692.987 295.027L692.987 209.523C692.987 196.894 686.843 190.579 674.555 190.579L667.131 190.579C652.965 190.579 645.883 198.003 645.883 212.851L645.883 295.027C645.883 297.929 644.347 299.379 641.275 299.379L625.147 299.379C622.245 299.379 620.795 297.929 620.795 295.027L620.795 209.523C620.795 196.894 614.651 190.579 602.363 190.579L593.403 190.579C579.408 190.579 572.411 197.833 572.411 212.339L572.411 295.027C572.411 297.929 570.96 299.379 568.059 299.379Z"/>
<path d="M808.699 299.379L786.171 299.379C773.541 299.379 763.771 295.881 756.859 288.883C749.947 281.886 746.491 272.158 746.491 259.699L746.491 208.499C746.491 195.87 749.947 186.099 756.859 179.187C763.771 172.275 773.541 168.819 786.171 168.819L808.699 168.819C821.157 168.819 830.928 172.275 838.011 179.187C845.093 186.099 848.635 195.87 848.635 208.499L848.635 259.699C848.635 272.158 845.093 281.886 838.011 288.883C830.928 295.881 821.157 299.379 808.699 299.379ZM789.755 277.619L805.371 277.619C817.659 277.619 823.803 271.39 823.803 258.931L823.803 209.267C823.803 196.809 817.659 190.579 805.371 190.579L789.755 190.579C783.269 190.579 778.576 192.073 775.675 195.059C772.773 198.046 771.323 202.782 771.323 209.267L771.323 258.931C771.323 265.417 772.773 270.153 775.675 273.139C778.576 276.126 783.269 277.619 789.755 277.619Z"/>
<path d="M926.715 299.379L913.659 299.379C901.371 299.379 891.941 295.923 885.371 289.011C878.8 282.099 875.515 272.329 875.515 259.699L875.515 208.499C875.515 195.699 878.8 185.886 885.371 179.059C891.941 172.233 901.371 168.819 913.659 168.819L926.715 168.819C939.856 168.819 948.389 173.342 952.315 182.387L953.339 182.387L953.339 123.763C953.339 120.862 954.789 119.411 957.691 119.411L974.075 119.411C976.976 119.411 978.427 120.862 978.427 123.763L978.427 295.027C978.427 297.929 976.976 299.379 974.075 299.379L957.691 299.379C954.789 299.379 953.339 297.929 953.339 295.027L953.339 285.811L952.315 285.811C948.389 294.857 939.856 299.379 926.715 299.379ZM953.339 255.859L953.339 212.339C953.339 197.833 946.341 190.579 932.347 190.579L918.779 190.579C906.491 190.579 900.347 196.894 900.347 209.523L900.347 258.675C900.347 271.305 906.491 277.619 918.779 277.619L932.347 277.619C946.341 277.619 953.339 270.366 953.339 255.859Z"/>
<path d="M1103.1 299.379L1047.8 299.379C1035.17 299.379 1025.4 295.881 1018.49 288.883C1011.58 281.886 1008.12 272.158 1008.12 259.699L1008.12 208.499C1008.12 195.87 1011.58 186.099 1018.49 179.187C1025.4 172.275 1035.17 168.819 1047.8 168.819L1068.79 168.819C1081.42 168.819 1091.24 172.275 1098.23 179.187C1105.23 186.099 1108.73 195.87 1108.73 208.499L1108.73 241.011C1108.73 244.083 1107.19 245.619 1104.12 245.619L1035.51 245.619C1033.64 245.619 1032.7 246.473 1032.7 248.179L1032.7 259.187C1032.7 271.646 1038.93 277.875 1051.39 277.875L1103.1 277.875C1106.17 277.875 1107.71 279.411 1107.71 282.483L1107.71 295.283C1107.71 298.014 1106.17 299.379 1103.1 299.379ZM1035.51 228.211L1081.34 228.211C1083.05 228.211 1083.9 227.358 1083.9 225.651L1083.9 209.267C1083.9 202.782 1082.45 198.046 1079.55 195.059C1076.65 192.073 1071.95 190.579 1065.47 190.579L1051.39 190.579C1044.9 190.579 1040.21 192.073 1037.31 195.059C1034.41 198.046 1032.95 202.782 1032.95 209.267L1032.95 225.651C1032.95 227.358 1033.81 228.211 1035.51 228.211Z"/>
<path d="M1158.65 299.379L1142.52 299.379C1139.62 299.379 1138.17 297.929 1138.17 295.027L1138.17 123.763C1138.17 120.862 1139.62 119.411 1142.52 119.411L1158.65 119.411C1161.55 119.411 1163 120.862 1163 123.763L1163 295.027C1163 297.929 1161.55 299.379 1158.65 299.379Z"/>
<path d="M1197.82 147.059L1197.82 123.763C1197.82 121.033 1199.18 119.667 1201.91 119.667L1218.55 119.667C1221.29 119.667 1222.65 121.033 1222.65 123.763L1222.65 147.059C1222.65 149.961 1221.29 151.411 1218.55 151.411L1201.91 151.411C1199.18 151.411 1197.82 149.961 1197.82 147.059ZM1197.82 295.027L1197.82 173.171C1197.82 170.27 1199.18 168.819 1201.91 168.819L1218.3 168.819C1221.2 168.819 1222.65 170.27 1222.65 173.171L1222.65 295.027C1222.65 296.734 1222.35 297.886 1221.75 298.483C1221.16 299.081 1220.09 299.379 1218.55 299.379L1202.17 299.379C1199.27 299.379 1197.82 297.929 1197.82 295.027Z"/>
<path d="M1276.67 299.379L1260.54 299.379C1257.64 299.379 1256.19 297.929 1256.19 295.027L1256.19 173.171C1256.19 170.27 1257.64 168.819 1260.54 168.819L1276.67 168.819C1279.57 168.819 1281.02 170.27 1281.02 173.171L1281.02 182.387L1282.04 182.387C1286.14 173.342 1294.76 168.819 1307.9 168.819L1319.16 168.819C1331.62 168.819 1341.18 172.233 1347.83 179.059C1354.49 185.886 1357.82 195.699 1357.82 208.499L1357.82 295.027C1357.82 297.929 1356.28 299.379 1353.21 299.379L1337.08 299.379C1334.18 299.379 1332.73 297.929 1332.73 295.027L1332.73 209.523C1332.73 196.894 1326.5 190.579 1314.04 190.579L1302.01 190.579C1288.02 190.579 1281.02 197.833 1281.02 212.339L1281.02 295.027C1281.02 297.929 1279.57 299.379 1276.67 299.379Z"/>
<path d="M1436.15 292.979L1424.63 292.979C1412.35 292.979 1402.92 289.523 1396.35 282.611C1389.78 275.699 1386.49 265.929 1386.49 253.299L1386.49 208.499C1386.49 195.87 1389.99 186.099 1396.99 179.187C1403.98 172.275 1413.71 168.819 1426.17 168.819L1483.51 168.819C1486.59 168.819 1488.12 170.27 1488.12 173.171L1488.12 299.891C1488.12 312.35 1484.58 322.035 1477.5 328.947C1470.42 335.859 1460.65 339.315 1448.19 339.315L1400.06 339.315C1397.16 339.315 1395.71 337.95 1395.71 335.219L1395.71 321.907C1395.71 319.006 1397.16 317.555 1400.06 317.555L1444.35 317.555C1456.81 317.555 1463.03 311.241 1463.03 298.611L1463.03 279.155L1462.01 279.155C1457.74 288.371 1449.13 292.979 1436.15 292.979ZM1463.03 249.459L1463.03 193.139C1463.03 191.433 1462.1 190.579 1460.22 190.579L1429.75 190.579C1417.64 190.579 1411.58 196.894 1411.58 209.523L1411.58 252.019C1411.58 264.649 1417.64 270.963 1429.75 270.963L1442.04 270.963C1456.04 270.963 1463.03 263.795 1463.03 249.459Z"/>
</g>
</g>
</svg>
