<?xml version="1.0" encoding="utf-8"?>
<!-- Generator: Adobe Adobe Illustrator 24.2.0, SVG Export Plug-In . SVG Version: 6.00 Build 0)  -->
<svg version="1.1" xmlns="http://www.w3.org/2000/svg" xmlns:xlink="http://www.w3.org/1999/xlink" x="0px" y="0px"
	 viewBox="0 0 2400 730" style="enable-background:new 0 0 2400 730;" xml:space="preserve">
<style type="text/css">
	.st0{fill:#FFFFFF;}
	.st1{fill:#8CC63F;}
	.st2{fill:#29ABE2;}
</style>
<g id="Layer_3">
</g>
<g id="Layer_2">
</g>
<g id="Layer_2_copy">
</g>
<g id="Layer_2_copy_2">
</g>
<g id="Layer_2_copy_3">
</g>
<g id="Layer_2_copy_4">
</g>
<g id="Layer_2_copy_5">
</g>
<g id="Layer_2_copy_6">
</g>
<g id="Layer_2_copy_7">
	<g>
		<g>
			<path class="st0" d="M2388.1,72v442.05L2214.23,658H102.1V72H2388.1 M2400.1,60H90.1V670h2128.45l181.55-150.31V60L2400.1,60z"/>
		</g>
	</g>
	<polygon class="st0" points="-0.1,670 -0.1,558.55 25.57,558.55 25.57,418.42 -0.1,418.42 -0.1,60 71.9,60 71.9,670 	"/>
	<g>
		<g>
			<path class="st2" d="M125.26,94.58v540.84H666.1V94.58H125.26z M513.3,546l-117.62-85.46L278.06,546l44.93-138.27l-117.62-85.46
				h145.39L395.68,184l44.93,138.27H586l-117.62,85.46L513.3,546z"/>
		</g>
	</g>
	<g>
		<path class="st0" d="M846.1,373.53h-20.99c-2.4,0-3.89-1.2-4.45-3.6l-35.19-128.68c-0.85-2.68,0.21-4.03,3.18-4.03h15.05
			c2.26,0,3.6,1.2,4.03,3.6l27.35,110.66h0.85l27.14-110.66c0.56-2.4,1.98-3.6,4.24-3.6h14.84c2.97,0,4.1,1.35,3.39,4.03
			l-35.4,128.68C849.56,372.33,848.22,373.53,846.1,373.53z"/>
		<path class="st0" d="M926.87,240.82v129.11c0,2.4-1.2,3.6-3.6,3.6h-13.36c-2.4,0-3.6-1.2-3.6-3.6V240.82c0-2.4,1.2-3.6,3.6-3.6
			h13.36C925.67,237.21,926.87,238.42,926.87,240.82z"/>
		<path class="st0" d="M1052.16,237.21h23.74c2.4,0,3.6,1.2,3.6,3.6v129.11c0,2.4-1.2,3.6-3.6,3.6h-13.14c-2.41,0-3.6-1.2-3.6-3.6
			V262.86h-0.85l-27.56,77.59c-0.85,2.26-2.4,3.39-4.66,3.39h-13.57c-2.12,0-3.6-1.13-4.45-3.39l-28.2-77.8h-0.85v107.27
			c0,1.41-0.25,2.37-0.74,2.86c-0.5,0.5-1.45,0.74-2.86,0.74h-12.93c-2.41,0-3.6-1.2-3.6-3.6V240.82c0-2.4,1.2-3.6,3.6-3.6h23.74
			c1.55,0,2.68,0.78,3.39,2.33l29.04,81.83h1.06l29.26-81.83C1049.26,237.99,1050.32,237.21,1052.16,237.21z"/>
	</g>
	<g>
		<path class="st2" d="M796.89,495.48h-3.71c-0.85,0-1.28-0.51-1.28-1.54v-79.23c0-1.02,0.43-1.54,1.28-1.54h29.44
			c5.55,0,9.94,1.62,13.18,4.86c3.24,3.24,4.86,7.68,4.86,13.31v14.98c0,5.63-1.62,10.07-4.86,13.31
			c-3.24,3.24-7.64,4.86-13.18,4.86h-23.04c-0.85,0-1.28,0.34-1.28,1.02v28.42C798.3,494.97,797.83,495.48,796.89,495.48z
			 M799.58,458.62h22.53c3.92,0,6.91-1.09,8.96-3.26s3.07-5.27,3.07-9.28v-14.46c0-4.1-1.02-7.23-3.07-9.41
			c-2.05-2.18-5.04-3.26-8.96-3.26h-22.53c-0.85,0-1.28,0.38-1.28,1.15v37.5C798.3,458.28,798.72,458.62,799.58,458.62z"/>
		<path class="st2" d="M863.96,495.48h-3.71c-0.85,0-1.28-0.51-1.28-1.54v-79.23c0-1.02,0.43-1.54,1.28-1.54h29.18
			c5.55,0,9.94,1.62,13.18,4.86c3.24,3.24,4.86,7.68,4.86,13.31v12.16c0,4.78-1.22,8.7-3.65,11.78c-2.43,3.07-5.74,5.04-9.92,5.89
			v0.51l15.23,32.26c0.51,1.02,0.21,1.54-0.9,1.54h-3.97c-1.11,0-1.88-0.51-2.3-1.54l-15.1-32.26h-20.22
			c-0.85,0-1.28,0.38-1.28,1.15v31.1C865.37,494.97,864.9,495.48,863.96,495.48z M866.65,456.19h22.14c3.92,0,6.95-1.09,9.09-3.26
			c2.13-2.18,3.2-5.27,3.2-9.28v-12.03c0-4.01-1.07-7.12-3.2-9.34c-2.13-2.22-5.16-3.33-9.09-3.33h-22.14
			c-0.85,0-1.28,0.38-1.28,1.15v34.94C865.37,455.81,865.79,456.19,866.65,456.19z"/>
		<path class="st2" d="M959.7,495.48h-15.74c-5.55,0-9.92-1.62-13.12-4.86c-3.2-3.24-4.8-7.68-4.8-13.31v-45.95
			c0-5.63,1.6-10.07,4.8-13.31c3.2-3.24,7.57-4.86,13.12-4.86h15.74c5.55,0,9.92,1.62,13.12,4.86c3.2,3.24,4.8,7.68,4.8,13.31v45.95
			c0,5.63-1.6,10.07-4.8,13.31C969.62,493.86,965.25,495.48,959.7,495.48z M944.47,489.73h14.59c3.92,0,6.93-1.09,9.02-3.26
			c2.09-2.18,3.14-5.31,3.14-9.41v-45.44c0-4.1-1.05-7.23-3.14-9.41c-2.09-2.18-5.1-3.26-9.02-3.26h-14.59
			c-3.93,0-6.91,1.11-8.96,3.33c-2.05,2.22-3.07,5.33-3.07,9.34v45.44c0,4.01,1.02,7.13,3.07,9.34
			C937.56,488.62,940.55,489.73,944.47,489.73z"/>
		<path class="st2" d="M998.1,493.95v-79.23c0-1.02,0.43-1.54,1.28-1.54H1031c5.55,0,9.92,1.62,13.12,4.86
			c3.2,3.24,4.8,7.68,4.8,13.31v45.95c0,5.63-1.6,10.07-4.8,13.31c-3.2,3.24-7.57,4.86-13.12,4.86h-31.62
			C998.53,495.48,998.1,494.97,998.1,493.95z M1005.78,489.73h24.58c3.92,0,6.93-1.09,9.02-3.26c2.09-2.18,3.14-5.31,3.14-9.41
			v-45.44c0-4.1-1.05-7.23-3.14-9.41c-2.09-2.18-5.1-3.26-9.02-3.26h-24.58c-0.85,0-1.28,0.38-1.28,1.15v68.48
			C1004.5,489.34,1004.93,489.73,1005.78,489.73z"/>
		<path class="st2" d="M1113.94,413.18h3.58c0.94,0,1.41,0.47,1.41,1.41v62.72c0,5.63-1.6,10.07-4.8,13.31
			c-3.2,3.24-7.57,4.86-13.12,4.86h-14.34c-5.55,0-9.92-1.62-13.12-4.86c-3.2-3.24-4.8-7.68-4.8-13.31v-62.59
			c0-1.02,0.43-1.54,1.28-1.54h3.71c0.94,0,1.41,0.51,1.41,1.54v62.34c0,4.01,1.02,7.13,3.07,9.34c2.05,2.22,5.03,3.33,8.96,3.33
			h13.18c3.92,0,6.93-1.09,9.02-3.26c2.09-2.18,3.14-5.31,3.14-9.41v-62.34C1112.53,413.69,1113,413.18,1113.94,413.18z"/>
		<path class="st2" d="M1172.82,495.48h-16.13c-5.55,0-9.92-1.62-13.12-4.86c-3.2-3.24-4.8-7.68-4.8-13.31v-45.95
			c0-5.63,1.6-10.07,4.8-13.31c3.2-3.24,7.57-4.86,13.12-4.86h16.13c5.55,0,9.92,1.62,13.12,4.86c3.2,3.24,4.8,7.68,4.8,13.31v6.27
			c0,1.02-0.47,1.54-1.41,1.54h-3.58c-0.94,0-1.41-0.51-1.41-1.54v-6.02c0-4.1-1.05-7.23-3.14-9.41c-2.09-2.18-5.1-3.26-9.02-3.26
			h-14.98c-3.93,0-6.91,1.11-8.96,3.33c-2.05,2.22-3.07,5.33-3.07,9.34v45.44c0,4.01,1.02,7.13,3.07,9.34
			c2.05,2.22,5.03,3.33,8.96,3.33h14.98c3.92,0,6.93-1.09,9.02-3.26c2.09-2.18,3.14-5.31,3.14-9.41v-6.02
			c0-1.02,0.47-1.54,1.41-1.54h3.58c0.94,0,1.41,0.51,1.41,1.54v6.27c0,5.63-1.6,10.07-4.8,13.31
			C1182.74,493.86,1178.37,495.48,1172.82,495.48z"/>
		<path class="st2" d="M1227.35,495.48h-3.71c-0.94,0-1.41-0.51-1.41-1.54v-73.86c0-0.77-0.43-1.15-1.28-1.15h-18.56
			c-1.02,0-1.54-0.47-1.54-1.41v-2.94c0-0.94,0.51-1.41,1.54-1.41h46.08c1.02,0,1.54,0.47,1.54,1.41v2.94
			c0,0.94-0.51,1.41-1.54,1.41h-18.56c-0.85,0-1.28,0.38-1.28,1.15v73.86C1228.63,494.97,1228.2,495.48,1227.35,495.48z"/>
		<path class="st2" d="M1270.23,414.72v79.23c0,1.02-0.47,1.54-1.41,1.54h-3.71c-0.85,0-1.28-0.51-1.28-1.54v-79.23
			c0-1.02,0.43-1.54,1.28-1.54h3.71C1269.76,413.18,1270.23,413.69,1270.23,414.72z"/>
		<path class="st2" d="M1316.69,495.48h-5.89c-0.85,0-1.41-0.51-1.66-1.54l-23.81-79.23c-0.34-1.02,0.04-1.54,1.15-1.54h3.97
			c0.85,0,1.41,0.51,1.66,1.54l21.38,72.83h0.51l21.38-72.83c0.26-1.02,0.81-1.54,1.66-1.54h3.97c1.02,0,1.41,0.51,1.15,1.54
			l-23.81,79.23C1318.1,494.97,1317.54,495.48,1316.69,495.48z"/>
		<path class="st2" d="M1363.67,414.72v79.23c0,1.02-0.47,1.54-1.41,1.54h-3.71c-0.85,0-1.28-0.51-1.28-1.54v-79.23
			c0-1.02,0.43-1.54,1.28-1.54h3.71C1363.2,413.18,1363.67,413.69,1363.67,414.72z"/>
		<path class="st2" d="M1403.99,495.48h-3.71c-0.94,0-1.41-0.51-1.41-1.54v-73.86c0-0.77-0.43-1.15-1.28-1.15h-18.56
			c-1.02,0-1.54-0.47-1.54-1.41v-2.94c0-0.94,0.51-1.41,1.54-1.41h46.08c1.02,0,1.54,0.47,1.54,1.41v2.94
			c0,0.94-0.51,1.41-1.54,1.41h-18.56c-0.85,0-1.28,0.38-1.28,1.15v73.86C1405.27,494.97,1404.84,495.48,1403.99,495.48z"/>
		<path class="st2" d="M1462.35,495.48h-3.71c-0.94,0-1.41-0.51-1.41-1.54v-29.57l-24.83-49.66c-0.51-1.02-0.21-1.54,0.9-1.54h4.61
			c0.77,0,1.36,0.51,1.79,1.54l20.48,41.86h0.64l20.35-41.86c0.43-1.02,1.02-1.54,1.79-1.54h4.74c0.94,0,1.24,0.51,0.9,1.54
			l-24.96,49.66v29.57C1463.63,494.97,1463.2,495.48,1462.35,495.48z"/>
		<path class="st2" d="M1536.59,477.31v-4.61c0-0.94,0.47-1.41,1.41-1.41h3.71c0.94,0,1.41,0.47,1.41,1.41v4.22
			c0,8.53,4.14,12.8,12.42,12.8h13.31c8.28,0,12.42-4.31,12.42-12.93v-5.38c0-3.75-1.54-6.7-4.61-8.83
			c-3.07-2.13-6.78-3.67-11.14-4.61c-4.35-0.94-8.73-1.92-13.12-2.94c-4.4-1.02-8.13-2.9-11.2-5.63c-3.07-2.73-4.61-6.4-4.61-11.01
			v-7.04c0-5.63,1.62-10.07,4.86-13.31c3.24-3.24,7.64-4.86,13.18-4.86h14.85c5.55,0,9.94,1.62,13.18,4.86
			c3.24,3.24,4.86,7.68,4.86,13.31v3.58c0,0.94-0.47,1.41-1.41,1.41h-3.71c-0.94,0-1.41-0.47-1.41-1.41v-3.2
			c0-8.53-4.14-12.8-12.42-12.8h-13.18c-8.19,0-12.29,4.35-12.29,13.06v6.4c0,5.89,5.25,9.86,15.74,11.9
			c4.35,0.85,8.72,1.84,13.12,2.94c4.39,1.11,8.13,3.12,11.2,6.02c3.07,2.9,4.61,6.83,4.61,11.78v6.27c0,5.63-1.62,10.07-4.86,13.31
			c-3.24,3.24-7.64,4.86-13.18,4.86h-15.1c-5.55,0-9.94-1.62-13.18-4.86C1538.21,487.38,1536.59,482.94,1536.59,477.31z"/>
		<path class="st2" d="M1641.42,495.48h-15.74c-5.55,0-9.92-1.62-13.12-4.86c-3.2-3.24-4.8-7.68-4.8-13.31v-45.95
			c0-5.63,1.6-10.07,4.8-13.31c3.2-3.24,7.57-4.86,13.12-4.86h15.74c5.55,0,9.92,1.62,13.12,4.86c3.2,3.24,4.8,7.68,4.8,13.31v45.95
			c0,5.63-1.6,10.07-4.8,13.31C1651.34,493.86,1646.97,495.48,1641.42,495.48z M1626.19,489.73h14.59c3.92,0,6.93-1.09,9.02-3.26
			c2.09-2.18,3.14-5.31,3.14-9.41v-45.44c0-4.1-1.05-7.23-3.14-9.41c-2.09-2.18-5.1-3.26-9.02-3.26h-14.59
			c-3.93,0-6.91,1.11-8.96,3.33c-2.05,2.22-3.07,5.33-3.07,9.34v45.44c0,4.01,1.02,7.13,3.07,9.34
			C1619.28,488.62,1622.27,489.73,1626.19,489.73z"/>
		<path class="st2" d="M1684.82,495.48h-3.71c-0.85,0-1.28-0.51-1.28-1.54v-79.23c0-1.02,0.43-1.54,1.28-1.54h39.42
			c1.02,0,1.54,0.47,1.54,1.41v2.94c0,0.94-0.51,1.41-1.54,1.41h-33.02c-0.85,0-1.28,0.38-1.28,1.15v31.1
			c0,0.68,0.43,1.02,1.28,1.02h29.57c0.94,0,1.41,0.47,1.41,1.41v3.07c0,0.94-0.47,1.41-1.41,1.41h-29.57
			c-0.85,0-1.28,0.34-1.28,1.02v34.82C1686.22,494.97,1685.75,495.48,1684.82,495.48z"/>
		<path class="st2" d="M1756.49,495.48h-3.71c-0.94,0-1.41-0.51-1.41-1.54v-73.86c0-0.77-0.43-1.15-1.28-1.15h-18.56
			c-1.02,0-1.54-0.47-1.54-1.41v-2.94c0-0.94,0.51-1.41,1.54-1.41h46.08c1.02,0,1.54,0.47,1.54,1.41v2.94
			c0,0.94-0.51,1.41-1.54,1.41h-18.56c-0.85,0-1.28,0.38-1.28,1.15v73.86C1757.78,494.97,1757.35,495.48,1756.49,495.48z"/>
		<path class="st2" d="M1811.28,495.48h-6.4c-0.94,0-1.54-0.51-1.79-1.54l-17.54-79.23c-0.26-1.02,0.17-1.54,1.28-1.54h4.22
			c0.94,0,1.49,0.51,1.66,1.54l15.23,73.47h0.64l19.46-73.6c0.17-0.94,0.72-1.41,1.66-1.41h4.86c1.02,0,1.62,0.47,1.79,1.41
			l19.58,73.6h0.64l15.1-73.47c0.17-1.02,0.77-1.54,1.79-1.54h4.35c1.02,0,1.41,0.51,1.15,1.54l-17.54,79.23
			c-0.17,1.02-0.73,1.54-1.66,1.54h-6.53c-0.94,0-1.54-0.51-1.79-1.54l-18.94-72.19h-0.51l-19.07,72.19
			C1812.69,494.97,1812.13,495.48,1811.28,495.48z"/>
		<path class="st2" d="M1891.79,495.48h-3.97c-0.94,0-1.24-0.51-0.9-1.54l25.47-79.23c0.26-1.02,0.85-1.54,1.79-1.54h6.02
			c0.85,0,1.45,0.51,1.79,1.54l25.47,79.23c0.26,1.02-0.04,1.54-0.9,1.54h-4.1c-0.85,0-1.41-0.51-1.66-1.54l-6.91-20.48h-33.54
			l-6.91,20.48C1893.11,494.97,1892.56,495.48,1891.79,495.48z M1916.88,420.22l-14.72,47.49h30.08l-14.85-47.49H1916.88z"/>
		<path class="st2" d="M1967.18,495.48h-3.71c-0.85,0-1.28-0.51-1.28-1.54v-79.23c0-1.02,0.43-1.54,1.28-1.54h29.18
			c5.55,0,9.94,1.62,13.18,4.86c3.24,3.24,4.86,7.68,4.86,13.31v12.16c0,4.78-1.22,8.7-3.65,11.78c-2.43,3.07-5.74,5.04-9.92,5.89
			v0.51l15.23,32.26c0.51,1.02,0.21,1.54-0.9,1.54h-3.97c-1.11,0-1.88-0.51-2.3-1.54l-15.1-32.26h-20.22
			c-0.85,0-1.28,0.38-1.28,1.15v31.1C1968.59,494.97,1968.12,495.48,1967.18,495.48z M1969.87,456.19h22.14
			c3.92,0,6.95-1.09,9.09-3.26c2.13-2.18,3.2-5.27,3.2-9.28v-12.03c0-4.01-1.07-7.12-3.2-9.34c-2.13-2.22-5.16-3.33-9.09-3.33
			h-22.14c-0.85,0-1.28,0.38-1.28,1.15v34.94C1968.59,455.81,1969.01,456.19,1969.87,456.19z"/>
		<path class="st2" d="M2071.37,495.48h-39.55c-0.85,0-1.28-0.51-1.28-1.54v-79.23c0-1.02,0.43-1.54,1.28-1.54h39.55
			c1.02,0,1.54,0.47,1.54,1.41v2.94c0,0.94-0.51,1.41-1.54,1.41h-33.15c-0.85,0-1.28,0.38-1.28,1.15v29.44
			c0,0.77,0.43,1.15,1.28,1.15h29.57c0.94,0,1.41,0.47,1.41,1.41v2.94c0,0.94-0.47,1.41-1.41,1.41h-29.57
			c-0.85,0-1.28,0.38-1.28,1.15v30.98c0,0.77,0.43,1.15,1.28,1.15h33.15c1.02,0,1.54,0.47,1.54,1.41v2.94
			C2072.91,495.02,2072.4,495.48,2071.37,495.48z"/>
	</g>
</g>
<g id="Layer_2_copy_8">
</g>
<g id="Layer_2_copy_9">
</g>
<g id="Layer_2_copy_10">
</g>
<g id="Layer_2_copy_11">
</g>
<g id="Layer_2_copy_12">
</g>
</svg>
