<?xml version="1.0" encoding="UTF-8" standalone="no"?>
<!DOCTYPE svg PUBLIC "-//W3C//DTD SVG 1.1//EN" "http://www.w3.org/Graphics/SVG/1.1/DTD/svg11.dtd">
<!-- Created with Vectornator (http://vectornator.io/) -->
<svg height="100%" stroke-miterlimit="10" style="fill-rule:nonzero;clip-rule:evenodd;stroke-linecap:round;stroke-linejoin:round;" version="1.1" viewBox="0 0 1621.17 424.628" width="100%" xml:space="preserve" xmlns="http://www.w3.org/2000/svg" xmlns:vectornator="http://vectornator.io" xmlns:xlink="http://www.w3.org/1999/xlink">
<defs/>
<clipPath id="ArtboardFrame">
<rect height="424.628" width="1621.17" x="0" y="0"/>
</clipPath>
<g clip-path="url(#ArtboardFrame)" id="Layer_2_copy_13" vectornator:layerName="Layer_2_copy_13">
<path d="M-0.000115865 423.88L-0.000115865 309.455L25.6699 309.455L25.6699 169.325L-0.000115865 169.325L0.0998841 5.79323e-05L72.0999 5.79323e-05L71.9999 423.88L-0.000115865 423.88Z" fill="#ffffff" fill-rule="nonzero" opacity="1" stroke="none" vectornator:layerName="polygon"/>
<path d="M91.1562 0L93.0312 423.875L1537.22 423.875L1617.38 323.719L1617.38 0L91.1562 0ZM107.219 16C139.022 16 1569.69 16 1601.38 16L1601.38 318.094L1529.53 407.875L108.969 407.875L107.219 16Z" fill="#ffffff" fill-rule="nonzero" opacity="1" stroke="none"/>
<g fill="#ffffff" opacity="1" stroke="none">
<path d="M284.923 299.379L255.227 299.379C242.597 299.379 232.827 295.881 225.915 288.883C219.003 281.886 215.547 272.158 215.547 259.699L215.547 174.451C215.547 161.822 219.003 152.051 225.915 145.139C232.827 138.227 242.597 134.771 255.227 134.771L284.923 134.771C297.381 134.771 307.109 138.227 314.107 145.139C321.104 152.051 324.603 161.822 324.603 174.451L324.603 186.739C324.603 189.811 323.067 191.347 319.995 191.347L303.867 191.347C300.965 191.347 299.515 189.811 299.515 186.739L299.515 175.475C299.515 162.846 293.371 156.531 281.083 156.531L258.811 156.531C246.523 156.531 240.379 162.846 240.379 175.475L240.379 258.675C240.379 271.305 246.523 277.619 258.811 277.619L281.083 277.619C293.371 277.619 299.515 271.305 299.515 258.675L299.515 247.411C299.515 244.339 300.965 242.803 303.867 242.803L319.995 242.803C323.067 242.803 324.603 244.339 324.603 247.411L324.603 259.699C324.603 272.158 321.104 281.886 314.107 288.883C307.109 295.881 297.381 299.379 284.923 299.379Z"/>
<path d="M427.771 299.379L413.179 299.379C409.595 299.379 408.4 297.843 409.595 294.771C413.349 285.214 422.907 259.443 438.267 217.459C453.627 175.475 463.269 149.449 467.195 139.379C468.56 136.307 470.523 134.771 473.083 134.771L487.931 134.771C491.173 134.771 492.283 136.393 491.259 139.635L433.659 294.771C432.635 297.843 430.672 299.379 427.771 299.379Z"/>
<path d="M648.443 299.379L618.747 299.379C606.117 299.379 596.347 295.881 589.435 288.883C582.523 281.886 579.067 272.158 579.067 259.699L579.067 174.451C579.067 161.822 582.523 152.051 589.435 145.139C596.347 138.227 606.117 134.771 618.747 134.771L648.443 134.771C660.901 134.771 670.629 138.227 677.627 145.139C684.624 152.051 688.123 161.822 688.123 174.451L688.123 186.739C688.123 189.811 686.587 191.347 683.515 191.347L667.387 191.347C664.485 191.347 663.035 189.811 663.035 186.739L663.035 175.475C663.035 162.846 656.891 156.531 644.603 156.531L622.331 156.531C610.043 156.531 603.899 162.846 603.899 175.475L603.899 258.675C603.899 271.305 610.043 277.619 622.331 277.619L644.603 277.619C656.891 277.619 663.035 271.305 663.035 258.675L663.035 247.411C663.035 244.339 664.485 242.803 667.387 242.803L683.515 242.803C686.587 242.803 688.123 244.339 688.123 247.411L688.123 259.699C688.123 272.158 684.624 281.886 677.627 288.883C670.629 295.881 660.901 299.379 648.443 299.379Z"/>
<path d="M782.331 206.707L818.939 206.707C822.181 206.707 823.803 208.414 823.803 211.827L823.803 222.579C823.803 225.822 822.181 227.443 818.939 227.443L782.331 227.443L782.331 264.563C782.331 267.977 780.624 269.683 777.211 269.683L765.691 269.683C762.448 269.683 760.827 267.977 760.827 264.563L760.827 227.443L723.963 227.443C720.72 227.443 719.099 225.822 719.099 222.579L719.099 211.827C719.099 208.414 720.72 206.707 723.963 206.707L760.827 206.707L760.827 169.843C760.827 166.43 762.448 164.723 765.691 164.723L777.211 164.723C780.624 164.723 782.331 166.43 782.331 169.843L782.331 206.707Z"/>
<path d="M922.875 206.707L959.483 206.707C962.725 206.707 964.347 208.414 964.347 211.827L964.347 222.579C964.347 225.822 962.725 227.443 959.483 227.443L922.875 227.443L922.875 264.563C922.875 267.977 921.168 269.683 917.755 269.683L906.235 269.683C902.992 269.683 901.371 267.977 901.371 264.563L901.371 227.443L864.507 227.443C861.264 227.443 859.643 225.822 859.643 222.579L859.643 211.827C859.643 208.414 861.264 206.707 864.507 206.707L901.371 206.707L901.371 169.843C901.371 166.43 902.992 164.723 906.235 164.723L917.755 164.723C921.168 164.723 922.875 166.43 922.875 169.843L922.875 206.707Z"/>
</g>
</g>
</svg>
