<?xml version="1.0" encoding="UTF-8" standalone="no"?>
<!DOCTYPE svg PUBLIC "-//W3C//DTD SVG 1.1//EN" "http://www.w3.org/Graphics/SVG/1.1/DTD/svg11.dtd">
<!-- Created with Vectornator (http://vectornator.io/) -->
<svg height="100%" stroke-miterlimit="10" style="fill-rule:nonzero;clip-rule:evenodd;stroke-linecap:round;stroke-linejoin:round;" version="1.1" viewBox="0 0 1621.17 424.628" width="100%" xml:space="preserve" xmlns="http://www.w3.org/2000/svg" xmlns:vectornator="http://vectornator.io" xmlns:xlink="http://www.w3.org/1999/xlink">
<defs/>
<clipPath id="ArtboardFrame">
<rect height="424.628" width="1621.17" x="0" y="0"/>
</clipPath>
<g clip-path="url(#ArtboardFrame)" id="Layer_2_copy_13" vectornator:layerName="Layer_2_copy_13">
<path d="M-0.000115865 423.88L-0.000115865 309.455L25.6699 309.455L25.6699 169.325L-0.000115865 169.325L0.0998841 5.79323e-05L72.0999 5.79323e-05L71.9999 423.88L-0.000115865 423.88Z" fill="#ffffff" fill-rule="nonzero" opacity="1" stroke="none" vectornator:layerName="polygon"/>
<path d="M91.1562 0L93.0312 423.875L1537.22 423.875L1617.38 323.719L1617.38 0L91.1562 0ZM107.219 16C139.022 16 1569.69 16 1601.38 16L1601.38 318.094L1529.53 407.875L108.969 407.875L107.219 16Z" fill="#ffffff" fill-rule="nonzero" opacity="1" stroke="none"/>
<g fill="#ffffff" opacity="1" stroke="none">
<path d="M215.035 259.443L215.035 252.787C215.035 249.886 216.485 248.435 219.387 248.435L235.771 248.435C238.672 248.435 240.123 249.886 240.123 252.787L240.123 257.395C240.123 264.563 241.701 269.726 244.859 272.883C248.016 276.041 253.264 277.619 260.603 277.619L278.267 277.619C285.605 277.619 290.896 275.955 294.139 272.627C297.381 269.299 299.003 263.881 299.003 256.371L299.003 250.483C299.003 245.022 296.912 240.713 292.731 237.555C288.549 234.398 283.387 232.35 277.243 231.411C271.099 230.473 264.357 229.15 257.019 227.443C249.68 225.737 242.939 223.774 236.795 221.555C230.651 219.337 225.488 215.155 221.307 209.011C217.125 202.867 215.035 195.017 215.035 185.459L215.035 174.707C215.035 162.249 218.576 152.478 225.659 145.395C232.741 138.313 242.512 134.771 254.971 134.771L282.107 134.771C294.736 134.771 304.592 138.313 311.675 145.395C318.757 152.478 322.299 162.249 322.299 174.707L322.299 180.339C322.299 183.241 320.848 184.691 317.947 184.691L301.563 184.691C298.661 184.691 297.211 183.241 297.211 180.339L297.211 177.011C297.211 169.673 295.632 164.425 292.475 161.267C289.317 158.11 284.069 156.531 276.731 156.531L260.603 156.531C253.264 156.531 248.016 158.195 244.859 161.523C241.701 164.851 240.123 170.526 240.123 178.547L240.123 186.483C240.123 194.163 245.669 199.369 256.763 202.099C261.712 203.294 267.131 204.318 273.019 205.171C278.907 206.025 284.837 207.305 290.811 209.011C296.784 210.718 302.245 212.979 307.195 215.795C312.144 218.611 316.155 222.878 319.227 228.595C322.299 234.313 323.835 241.267 323.835 249.459L323.835 259.443C323.835 271.902 320.293 281.673 313.211 288.755C306.128 295.838 296.357 299.379 283.899 299.379L255.227 299.379C242.768 299.379 232.955 295.838 225.787 288.755C218.619 281.673 215.035 271.902 215.035 259.443Z"/>
<path d="M408.059 299.379L380.923 299.379C377.851 299.379 376.059 297.929 375.547 295.027L345.083 139.123C344.741 136.222 346.192 134.771 349.435 134.771L369.147 134.771C372.389 134.771 374.096 136.222 374.267 139.123L395.003 273.267L396.539 273.267L426.747 138.611C427.088 136.051 428.624 134.771 431.355 134.771L452.859 134.771C455.589 134.771 457.211 136.051 457.723 138.611L488.187 273.267L489.723 273.267L510.459 139.379C510.629 136.307 512.336 134.771 515.579 134.771L535.291 134.771C538.704 134.771 540.155 136.307 539.643 139.379L509.179 295.027C508.667 297.929 506.96 299.379 504.059 299.379L476.923 299.379C474.021 299.379 472.315 297.929 471.803 295.027L442.875 165.491L441.851 165.491L412.923 295.027C412.411 297.929 410.789 299.379 408.059 299.379Z"/>
<path d="M589.819 139.123L589.819 295.027C589.819 297.929 588.368 299.379 585.467 299.379L569.339 299.379C566.437 299.379 564.987 297.929 564.987 295.027L564.987 139.123C564.987 136.222 566.437 134.771 569.339 134.771L585.467 134.771C588.368 134.771 589.819 136.222 589.819 139.123Z"/>
<path d="M648.955 299.379L632.827 299.379C629.925 299.379 628.475 297.929 628.475 295.027L628.475 139.123C628.475 136.222 629.925 134.771 632.827 134.771L713.211 134.771C716.112 134.771 717.563 136.222 717.563 139.123L717.563 152.179C717.563 155.081 716.112 156.531 713.211 156.531L656.379 156.531C654.331 156.531 653.307 157.385 653.307 159.091L653.307 207.475C653.307 209.353 654.331 210.291 656.379 210.291L705.787 210.291C708.859 210.291 710.395 211.742 710.395 214.643L710.395 227.443C710.395 230.515 708.859 232.051 705.787 232.051L656.379 232.051C654.331 232.051 653.307 232.905 653.307 234.611L653.307 295.027C653.307 297.929 651.856 299.379 648.955 299.379Z"/>
<path d="M789.755 299.379L773.627 299.379C770.555 299.379 769.019 297.929 769.019 295.027L769.019 159.091C769.019 157.385 768.165 156.531 766.459 156.531L734.203 156.531C731.131 156.531 729.595 155.081 729.595 152.179L729.595 139.123C729.595 136.222 731.131 134.771 734.203 134.771L829.179 134.771C832.251 134.771 833.787 136.222 833.787 139.123L833.787 152.179C833.787 155.081 832.251 156.531 829.179 156.531L796.923 156.531C795.045 156.531 794.107 157.385 794.107 159.091L794.107 295.027C794.107 297.929 792.656 299.379 789.755 299.379Z"/>
</g>
</g>
</svg>
