<?xml version="1.0" encoding="UTF-8" standalone="no"?>
<!DOCTYPE svg PUBLIC "-//W3C//DTD SVG 1.1//EN" "http://www.w3.org/Graphics/SVG/1.1/DTD/svg11.dtd">
<!-- Created with Vectornator (http://vectornator.io/) -->
<svg height="100%" stroke-miterlimit="10" style="fill-rule:nonzero;clip-rule:evenodd;stroke-linecap:round;stroke-linejoin:round;" version="1.1" viewBox="0 0 1621.17 424.628" width="100%" xml:space="preserve" xmlns="http://www.w3.org/2000/svg" xmlns:vectornator="http://vectornator.io" xmlns:xlink="http://www.w3.org/1999/xlink">
<defs/>
<clipPath id="ArtboardFrame">
<rect height="424.628" width="1621.17" x="0" y="0"/>
</clipPath>
<g clip-path="url(#ArtboardFrame)" id="Layer_2_copy_13" vectornator:layerName="Layer_2_copy_13">
<path d="M-0.000115865 423.88L-0.000115865 309.455L25.6699 309.455L25.6699 169.325L-0.000115865 169.325L0.0998841 5.79323e-05L72.0999 5.79323e-05L71.9999 423.88L-0.000115865 423.88Z" fill="#ffffff" fill-rule="nonzero" opacity="1" stroke="none" vectornator:layerName="polygon"/>
<path d="M91.1562 0L93.0312 423.875L1537.22 423.875L1617.38 323.719L1617.38 0L91.1562 0ZM107.219 16C139.022 16 1569.69 16 1601.38 16L1601.38 318.094L1529.53 407.875L108.969 407.875L107.219 16Z" fill="#ffffff" fill-rule="nonzero" opacity="1" stroke="none"/>
<g fill="#ffffff" opacity="1" stroke="none">
<path d="M292.859 134.771L308.987 134.771C311.888 134.771 313.339 136.137 313.339 138.867L313.339 259.699C313.339 272.158 309.84 281.886 302.843 288.883C295.845 295.881 286.117 299.379 273.659 299.379L248.059 299.379C235.429 299.379 225.616 295.881 218.619 288.883C211.621 281.886 208.123 272.158 208.123 259.699L208.123 236.659C208.123 233.758 209.659 232.307 212.731 232.307L228.859 232.307C231.76 232.307 233.211 233.758 233.211 236.659L233.211 258.675C233.211 271.305 239.355 277.619 251.643 277.619L269.819 277.619C282.107 277.619 288.251 271.305 288.251 258.675L288.251 139.123C288.251 136.222 289.787 134.771 292.859 134.771Z"/>
<path d="M358.395 299.379L339.963 299.379C337.573 299.379 336.72 297.929 337.403 295.027L381.947 139.123C382.8 136.222 384.848 134.771 388.091 134.771L413.691 134.771C417.104 134.771 419.152 136.222 419.835 139.123L464.379 295.027C465.061 297.929 464.123 299.379 461.563 299.379L443.387 299.379C441.851 299.379 440.784 299.081 440.187 298.483C439.589 297.886 439.12 296.734 438.779 295.027L429.051 261.747L372.731 261.747L363.003 295.027C362.32 297.929 360.784 299.379 358.395 299.379ZM400.379 159.347L377.851 241.267L424.187 241.267L401.403 159.347L400.379 159.347Z"/>
<path d="M549.627 299.379L524.283 299.379C521.381 299.379 519.589 297.929 518.907 295.027L476.411 139.635C475.387 136.393 476.667 134.771 480.251 134.771L498.427 134.771C501.157 134.771 502.779 136.222 503.291 139.123L536.315 272.755L537.339 272.755L570.107 139.123C570.789 136.222 572.496 134.771 575.227 134.771L593.147 134.771C596.731 134.771 598.096 136.393 597.243 139.635L554.491 295.027C553.808 297.929 552.187 299.379 549.627 299.379Z"/>
<path d="M630.011 299.379L611.579 299.379C609.189 299.379 608.336 297.929 609.019 295.027L653.563 139.123C654.416 136.222 656.464 134.771 659.707 134.771L685.307 134.771C688.72 134.771 690.768 136.222 691.451 139.123L735.995 295.027C736.677 297.929 735.739 299.379 733.179 299.379L715.003 299.379C713.467 299.379 712.4 299.081 711.803 298.483C711.205 297.886 710.736 296.734 710.395 295.027L700.667 261.747L644.347 261.747L634.619 295.027C633.936 297.929 632.4 299.379 630.011 299.379ZM671.995 159.347L649.467 241.267L695.803 241.267L673.019 159.347L671.995 159.347Z"/>
</g>
</g>
</svg>
