<?xml version="1.0" encoding="UTF-8" standalone="no"?>
<!DOCTYPE svg PUBLIC "-//W3C//DTD SVG 1.1//EN" "http://www.w3.org/Graphics/SVG/1.1/DTD/svg11.dtd">
<!-- Created with Vectornator (http://vectornator.io/) -->
<svg height="100%" stroke-miterlimit="10" style="fill-rule:nonzero;clip-rule:evenodd;stroke-linecap:round;stroke-linejoin:round;" version="1.1" viewBox="0 0 1621.17 424.628" width="100%" xml:space="preserve" xmlns="http://www.w3.org/2000/svg" xmlns:vectornator="http://vectornator.io" xmlns:xlink="http://www.w3.org/1999/xlink">
<defs/>
<clipPath id="ArtboardFrame">
<rect height="424.628" width="1621.17" x="0" y="0"/>
</clipPath>
<g clip-path="url(#ArtboardFrame)" id="Layer_2_copy_13" vectornator:layerName="Layer_2_copy_13">
<path d="M-0.000115865 423.88L-0.000115865 309.455L25.6699 309.455L25.6699 169.325L-0.000115865 169.325L0.0998841 5.79323e-05L72.0999 5.79323e-05L71.9999 423.88L-0.000115865 423.88Z" fill="#ffffff" fill-rule="nonzero" opacity="1" stroke="none" vectornator:layerName="polygon"/>
<path d="M91.1562 0L93.0312 423.875L1537.22 423.875L1617.38 323.719L1617.38 0L91.1562 0ZM107.219 16C139.022 16 1569.69 16 1601.38 16L1601.38 318.094L1529.53 407.875L108.969 407.875L107.219 16Z" fill="#ffffff" fill-rule="nonzero" opacity="1" stroke="none"/>
<g fill="#ffffff" opacity="1" stroke="none">
<path d="M238.587 299.379L222.459 299.379C219.557 299.379 218.107 297.929 218.107 295.027L218.107 139.123C218.107 136.222 219.557 134.771 222.459 134.771L283.387 134.771C295.845 134.771 305.573 138.227 312.571 145.139C319.568 152.051 323.067 161.822 323.067 174.451L323.067 201.075C323.067 213.534 319.568 223.262 312.571 230.259C305.573 237.257 295.845 240.755 283.387 240.755L246.011 240.755C243.963 240.755 242.939 241.609 242.939 243.315L242.939 295.027C242.939 297.929 241.488 299.379 238.587 299.379ZM245.755 218.739L279.803 218.739C291.92 218.739 297.979 212.425 297.979 199.795L297.979 175.475C297.979 162.846 291.92 156.531 279.803 156.531L245.755 156.531C243.877 156.531 242.939 157.385 242.939 159.091L242.939 216.179C242.939 217.886 243.877 218.739 245.755 218.739Z"/>
<path d="M407.803 299.379L391.419 299.379C388.517 299.379 387.067 297.929 387.067 295.027L387.067 238.451L339.195 139.379C338.512 138.014 338.512 136.905 339.195 136.051C339.877 135.198 340.816 134.771 342.011 134.771L362.491 134.771C364.709 134.771 366.416 136.222 367.611 139.123L399.099 209.523L400.635 209.523L431.611 139.123C432.635 136.222 434.341 134.771 436.731 134.771L457.211 134.771C458.576 134.771 459.557 135.198 460.155 136.051C460.752 136.905 460.709 138.014 460.027 139.379L412.155 238.451L412.155 295.027C412.155 297.929 410.704 299.379 407.803 299.379Z"/>
<path d="M528.379 299.379L512.251 299.379C509.179 299.379 507.643 297.929 507.643 295.027L507.643 159.091C507.643 157.385 506.789 156.531 505.083 156.531L472.827 156.531C469.755 156.531 468.219 155.081 468.219 152.179L468.219 139.123C468.219 136.222 469.755 134.771 472.827 134.771L567.803 134.771C570.875 134.771 572.411 136.222 572.411 139.123L572.411 152.179C572.411 155.081 570.875 156.531 567.803 156.531L535.547 156.531C533.669 156.531 532.731 157.385 532.731 159.091L532.731 295.027C532.731 297.929 531.28 299.379 528.379 299.379Z"/>
<path d="M614.907 299.379L598.779 299.379C595.877 299.379 594.427 297.929 594.427 295.027L594.427 139.123C594.427 136.222 595.877 134.771 598.779 134.771L614.907 134.771C617.808 134.771 619.259 136.222 619.259 139.123L619.259 203.123C619.259 204.83 620.283 205.683 622.331 205.683L676.347 205.683C678.053 205.683 678.907 204.83 678.907 203.123L678.907 139.123C678.907 136.222 680.357 134.771 683.259 134.771L699.643 134.771C702.544 134.771 703.995 136.222 703.995 139.123L703.995 295.027C703.995 297.929 702.544 299.379 699.643 299.379L683.259 299.379C680.357 299.379 678.907 297.929 678.907 295.027L678.907 230.259C678.907 228.553 678.053 227.699 676.347 227.699L622.331 227.699C620.283 227.699 619.259 228.553 619.259 230.259L619.259 295.027C619.259 297.929 617.808 299.379 614.907 299.379Z"/>
<path d="M782.075 277.619L804.347 277.619C816.805 277.619 823.035 271.305 823.035 258.675L823.035 175.475C823.035 162.846 816.805 156.531 804.347 156.531L782.075 156.531C769.787 156.531 763.643 162.846 763.643 175.475L763.643 258.675C763.643 271.305 769.787 277.619 782.075 277.619ZM808.187 299.379L778.491 299.379C765.861 299.379 756.091 295.881 749.179 288.883C742.267 281.886 738.811 272.158 738.811 259.699L738.811 174.451C738.811 161.822 742.267 152.051 749.179 145.139C756.091 138.227 765.861 134.771 778.491 134.771L808.187 134.771C820.816 134.771 830.629 138.227 837.627 145.139C844.624 152.051 848.123 161.822 848.123 174.451L848.123 259.699C848.123 272.158 844.624 281.886 837.627 288.883C830.629 295.881 820.816 299.379 808.187 299.379Z"/>
<path d="M902.907 299.379L887.035 299.379C884.133 299.379 882.683 297.929 882.683 295.027L882.683 139.123C882.683 136.222 884.133 134.771 887.035 134.771L901.371 134.771C904.101 134.771 905.979 135.71 907.003 137.587L968.955 248.947L969.979 248.947L969.979 139.123C969.979 136.222 971.429 134.771 974.331 134.771L990.203 134.771C993.104 134.771 994.555 136.222 994.555 139.123L994.555 295.027C994.555 297.929 993.104 299.379 990.203 299.379L976.379 299.379C973.648 299.379 971.429 298.014 969.723 295.283L908.283 185.203L907.259 185.203L907.259 295.027C907.259 297.929 905.808 299.379 902.907 299.379Z"/>
</g>
</g>
</svg>
