<?xml version="1.0" encoding="utf-8"?>
<!-- Generator: Adobe Adobe Illustrator 24.2.0, SVG Export Plug-In . SVG Version: 6.00 Build 0)  -->
<svg version="1.1" xmlns="http://www.w3.org/2000/svg" xmlns:xlink="http://www.w3.org/1999/xlink" x="0px" y="0px"
	 viewBox="0 0 2400 730" style="enable-background:new 0 0 2400 730;" xml:space="preserve">
<style type="text/css">
	.st0{fill:#FFFFFF;}
	.st1{fill:#8CC63F;}
	.st2{fill:#29ABE2;}
</style>
<g id="Layer_3">
</g>
<g id="Layer_2">
</g>
<g id="Layer_2_copy">
</g>
<g id="Layer_2_copy_2">
</g>
<g id="Layer_2_copy_3">
</g>
<g id="Layer_2_copy_4">
</g>
<g id="Layer_2_copy_5">
</g>
<g id="Layer_2_copy_6">
</g>
<g id="Layer_2_copy_7">
</g>
<g id="Layer_2_copy_8">
</g>
<g id="Layer_2_copy_9">
</g>
<g id="Layer_2_copy_10">
</g>
<g id="Layer_2_copy_11">
</g>
<g id="Layer_2_copy_12">
	<g>
		<g>
			<path class="st0" d="M2375.3,72v442.05L2201.43,658H89.3V72H2375.3 M2387.3,60H77.3V670h2128.45l181.55-150.31V60L2387.3,60z"/>
		</g>
	</g>
	<polygon class="st0" points="-12.89,670 -12.89,558.55 12.78,558.55 12.78,418.42 -12.89,418.42 -12.89,60 59.11,60 59.11,670 	"/>
	<g>
		<g>
			<path class="st2" d="M112.47,94.58v540.84h540.84V94.58H112.47z M500.51,546l-117.62-85.46L265.26,546l44.93-138.27
				l-117.62-85.46h145.39L382.89,184l44.93,138.27H573.2l-117.62,85.46L500.51,546z"/>
		</g>
	</g>
	<g>
		<path class="st0" d="M805.32,240.82v129.11c0,2.4-1.2,3.6-3.6,3.6h-13.36c-2.4,0-3.6-1.2-3.6-3.6V240.82c0-2.4,1.2-3.6,3.6-3.6
			h13.36C804.12,237.21,805.32,238.42,805.32,240.82z"/>
		<path class="st0" d="M909.62,373.53h-68.69c-2.41,0-3.6-1.2-3.6-3.6V240.82c0-2.4,1.2-3.6,3.6-3.6h13.36c2.4,0,3.6,1.2,3.6,3.6
			v112.15c0,1.42,0.85,2.12,2.54,2.12h49.18c2.4,0,3.6,1.27,3.6,3.82v11.02C913.23,372.33,912.03,373.53,909.62,373.53z"/>
		<path class="st0" d="M1005.02,373.53h-68.69c-2.41,0-3.6-1.2-3.6-3.6V240.82c0-2.4,1.2-3.6,3.6-3.6h13.36c2.4,0,3.6,1.2,3.6,3.6
			v112.15c0,1.42,0.85,2.12,2.54,2.12h49.18c2.4,0,3.6,1.27,3.6,3.82v11.02C1008.63,372.33,1007.43,373.53,1005.02,373.53z"/>
		<path class="st0" d="M1099.36,237.21h13.36c2.54,0,3.82,1.13,3.82,3.39v100.06c0,10.32-2.93,18.38-8.8,24.17
			c-5.87,5.8-13.96,8.69-24.27,8.69h-23.53c-10.32,0-18.38-2.9-24.17-8.69c-5.8-5.79-8.69-13.85-8.69-24.17v-99.85
			c0-2.4,1.2-3.6,3.6-3.6h13.36c2.4,0,3.6,1.2,3.6,3.6v99c0,10.46,5.09,15.69,15.26,15.69h17.38c10.32,0,15.48-5.23,15.48-15.69v-99
			C1095.76,238.42,1096.96,237.21,1099.36,237.21z"/>
		<path class="st0" d="M1143.67,340.46v-5.51c0-2.4,1.2-3.6,3.6-3.6h13.57c2.4,0,3.6,1.2,3.6,3.6v3.82c0,5.94,1.3,10.21,3.92,12.83
			c2.61,2.62,6.96,3.92,13.04,3.92h14.63c6.08,0,10.46-1.38,13.14-4.13c2.68-2.76,4.03-7.24,4.03-13.46v-4.88
			c0-4.52-1.73-8.09-5.19-10.71c-3.46-2.61-7.74-4.31-12.83-5.09c-5.09-0.78-10.67-1.87-16.75-3.29
			c-6.08-1.41-11.66-3.04-16.75-4.88c-5.09-1.83-9.36-5.3-12.83-10.39c-3.46-5.09-5.19-11.59-5.19-19.5v-8.9
			c0-10.32,2.93-18.41,8.8-24.27c5.86-5.86,13.96-8.8,24.27-8.8h22.47c10.46,0,18.62,2.94,24.49,8.8c5.86,5.87,8.8,13.96,8.8,24.27
			v4.66c0,2.41-1.2,3.6-3.6,3.6h-13.57c-2.4,0-3.6-1.2-3.6-3.6v-2.76c0-6.08-1.31-10.42-3.92-13.04c-2.62-2.61-6.96-3.92-13.04-3.92
			h-13.36c-6.08,0-10.42,1.38-13.04,4.13c-2.62,2.76-3.92,7.46-3.92,14.1v6.57c0,6.36,4.59,10.67,13.78,12.93
			c4.1,0.99,8.59,1.84,13.46,2.54c4.88,0.71,9.79,1.77,14.73,3.18c4.95,1.41,9.47,3.29,13.57,5.62c4.1,2.33,7.42,5.87,9.96,10.6
			c2.54,4.74,3.82,10.49,3.82,17.28v8.27c0,10.32-2.94,18.41-8.8,24.27c-5.87,5.87-13.96,8.8-24.27,8.8h-23.74
			c-10.32,0-18.44-2.93-24.38-8.8C1146.64,358.87,1143.67,350.78,1143.67,340.46z"/>
		<path class="st0" d="M1299.7,373.53h-13.36c-2.54,0-3.82-1.2-3.82-3.6V257.35c0-1.41-0.71-2.12-2.12-2.12h-26.71
			c-2.54,0-3.82-1.2-3.82-3.6v-10.81c0-2.4,1.27-3.6,3.82-3.6h78.65c2.54,0,3.82,1.2,3.82,3.6v10.81c0,2.41-1.27,3.6-3.82,3.6
			h-26.71c-1.56,0-2.33,0.71-2.33,2.12v112.57C1303.3,372.33,1302.1,373.53,1299.7,373.53z"/>
		<path class="st0" d="M1371.35,373.53H1358c-2.41,0-3.6-1.2-3.6-3.6V240.82c0-2.4,1.2-3.6,3.6-3.6h49.61
			c10.31,0,18.41,2.94,24.27,8.8c5.86,5.87,8.8,13.96,8.8,24.27v17.81c0,16.25-6.71,26.5-20.14,30.74v0.85l23.53,49.61
			c1.55,2.83,0.64,4.24-2.76,4.24h-13.14c-3.39,0-5.58-1.2-6.57-3.6l-22.68-48.76h-21.41c-1.7,0-2.54,0.71-2.54,2.12v46.64
			C1374.96,372.33,1373.75,373.53,1371.35,373.53z M1377.29,304.21h26.92c10.46,0,15.69-5.16,15.69-15.48v-17.81
			c0-10.46-5.23-15.69-15.69-15.69h-26.92c-1.56,0-2.33,0.71-2.33,2.12v44.73C1374.96,303.5,1375.73,304.21,1377.29,304.21z"/>
		<path class="st0" d="M1476.72,373.53h-15.26c-1.98,0-2.69-1.2-2.12-3.6l36.89-129.11c0.71-2.4,2.4-3.6,5.09-3.6h21.2
			c2.83,0,4.52,1.2,5.09,3.6l36.89,129.11c0.56,2.4-0.21,3.6-2.33,3.6h-15.05c-1.27,0-2.16-0.25-2.65-0.74
			c-0.5-0.49-0.88-1.45-1.17-2.86l-8.06-27.56h-46.64l-8.06,27.56C1479.96,372.33,1478.69,373.53,1476.72,373.53z M1511.48,257.57
			l-18.66,67.84h38.37l-18.87-67.84H1511.48z"/>
		<path class="st0" d="M1622.78,373.53h-13.36c-2.54,0-3.82-1.2-3.82-3.6V257.35c0-1.41-0.71-2.12-2.12-2.12h-26.71
			c-2.54,0-3.82-1.2-3.82-3.6v-10.81c0-2.4,1.27-3.6,3.82-3.6h78.65c2.54,0,3.82,1.2,3.82,3.6v10.81c0,2.41-1.27,3.6-3.82,3.6
			h-26.71c-1.56,0-2.33,0.71-2.33,2.12v112.57C1626.38,372.33,1625.18,373.53,1622.78,373.53z"/>
		<path class="st0" d="M1732.81,373.53h-24.59c-10.46,0-18.55-2.9-24.27-8.69c-5.72-5.79-8.59-13.85-8.59-24.17v-70.6
			c0-10.46,2.86-18.55,8.59-24.27c5.72-5.72,13.81-8.59,24.27-8.59h24.59c10.46,0,18.58,2.86,24.38,8.59
			c5.79,5.72,8.69,13.82,8.69,24.27v70.6c0,10.32-2.9,18.38-8.69,24.17C1751.39,370.63,1743.26,373.53,1732.81,373.53z
			 M1711.18,355.51h18.44c10.32,0,15.48-5.23,15.48-15.69v-68.9c0-10.46-5.16-15.69-15.48-15.69h-18.44
			c-10.18,0-15.26,5.23-15.26,15.69v68.9C1695.92,350.28,1701.01,355.51,1711.18,355.51z"/>
		<path class="st0" d="M1811.46,373.53h-13.36c-2.41,0-3.6-1.2-3.6-3.6V240.82c0-2.4,1.2-3.6,3.6-3.6h49.61
			c10.31,0,18.41,2.94,24.27,8.8c5.86,5.87,8.8,13.96,8.8,24.27v17.81c0,16.25-6.71,26.5-20.14,30.74v0.85l23.53,49.61
			c1.55,2.83,0.64,4.24-2.76,4.24h-13.14c-3.39,0-5.58-1.2-6.57-3.6l-22.68-48.76h-21.41c-1.7,0-2.54,0.71-2.54,2.12v46.64
			C1815.06,372.33,1813.86,373.53,1811.46,373.53z M1817.39,304.21h26.92c10.46,0,15.69-5.16,15.69-15.48v-17.81
			c0-10.46-5.23-15.69-15.69-15.69h-26.92c-1.56,0-2.33,0.71-2.33,2.12v44.73C1815.06,303.5,1815.84,304.21,1817.39,304.21z"/>
	</g>
	<g>
		<path class="st2" d="M784.09,495.49h-3.71c-0.85,0-1.28-0.51-1.28-1.54v-79.23c0-1.02,0.43-1.54,1.28-1.54h29.44
			c5.55,0,9.94,1.62,13.18,4.86c3.24,3.24,4.86,7.68,4.86,13.31v14.98c0,5.63-1.62,10.07-4.86,13.31
			c-3.24,3.24-7.64,4.86-13.18,4.86h-23.04c-0.85,0-1.28,0.34-1.28,1.02v28.42C785.5,494.97,785.03,495.49,784.09,495.49z
			 M786.78,458.62h22.53c3.92,0,6.91-1.09,8.96-3.26s3.07-5.27,3.07-9.28v-14.46c0-4.1-1.02-7.23-3.07-9.41
			c-2.05-2.18-5.04-3.26-8.96-3.26h-22.53c-0.85,0-1.28,0.38-1.28,1.15v37.5C785.5,458.28,785.93,458.62,786.78,458.62z"/>
		<path class="st2" d="M851.16,495.49h-3.71c-0.85,0-1.28-0.51-1.28-1.54v-79.23c0-1.02,0.43-1.54,1.28-1.54h29.18
			c5.55,0,9.94,1.62,13.18,4.86c3.24,3.24,4.86,7.68,4.86,13.31v12.16c0,4.78-1.22,8.7-3.65,11.78c-2.43,3.07-5.74,5.04-9.92,5.89
			v0.51l15.23,32.26c0.51,1.02,0.21,1.54-0.9,1.54h-3.97c-1.11,0-1.88-0.51-2.3-1.54l-15.1-32.26h-20.22
			c-0.85,0-1.28,0.38-1.28,1.15v31.1C852.57,494.97,852.1,495.49,851.16,495.49z M853.85,456.19H876c3.92,0,6.95-1.09,9.09-3.26
			c2.13-2.18,3.2-5.27,3.2-9.28v-12.03c0-4.01-1.07-7.12-3.2-9.34c-2.13-2.22-5.16-3.33-9.09-3.33h-22.14
			c-0.85,0-1.28,0.38-1.28,1.15v34.94C852.57,455.81,853,456.19,853.85,456.19z"/>
		<path class="st2" d="M946.91,495.49h-15.74c-5.55,0-9.92-1.62-13.12-4.86c-3.2-3.24-4.8-7.68-4.8-13.31v-45.95
			c0-5.63,1.6-10.07,4.8-13.31c3.2-3.24,7.57-4.86,13.12-4.86h15.74c5.55,0,9.92,1.62,13.12,4.86c3.2,3.24,4.8,7.68,4.8,13.31v45.95
			c0,5.63-1.6,10.07-4.8,13.31C956.83,493.87,952.45,495.49,946.91,495.49z M931.68,489.73h14.59c3.92,0,6.93-1.09,9.02-3.26
			c2.09-2.18,3.14-5.31,3.14-9.41v-45.44c0-4.1-1.05-7.23-3.14-9.41c-2.09-2.18-5.1-3.26-9.02-3.26h-14.59
			c-3.93,0-6.91,1.11-8.96,3.33c-2.05,2.22-3.07,5.33-3.07,9.34v45.44c0,4.01,1.02,7.13,3.07,9.34
			C924.76,488.62,927.75,489.73,931.68,489.73z"/>
		<path class="st2" d="M985.31,493.95v-79.23c0-1.02,0.43-1.54,1.28-1.54h31.62c5.55,0,9.92,1.62,13.12,4.86
			c3.2,3.24,4.8,7.68,4.8,13.31v45.95c0,5.63-1.6,10.07-4.8,13.31c-3.2,3.24-7.57,4.86-13.12,4.86h-31.62
			C985.73,495.49,985.31,494.97,985.31,493.95z M992.99,489.73h24.58c3.92,0,6.93-1.09,9.02-3.26c2.09-2.18,3.14-5.31,3.14-9.41
			v-45.44c0-4.1-1.05-7.23-3.14-9.41c-2.09-2.18-5.1-3.26-9.02-3.26h-24.58c-0.85,0-1.28,0.38-1.28,1.15v68.48
			C991.71,489.34,992.13,489.73,992.99,489.73z"/>
		<path class="st2" d="M1101.15,413.18h3.58c0.94,0,1.41,0.47,1.41,1.41v62.72c0,5.63-1.6,10.07-4.8,13.31
			c-3.2,3.24-7.57,4.86-13.12,4.86h-14.34c-5.55,0-9.92-1.62-13.12-4.86c-3.2-3.24-4.8-7.68-4.8-13.31v-62.59
			c0-1.02,0.43-1.54,1.28-1.54h3.71c0.94,0,1.41,0.51,1.41,1.54v62.34c0,4.01,1.02,7.13,3.07,9.34c2.05,2.22,5.03,3.33,8.96,3.33
			h13.18c3.92,0,6.93-1.09,9.02-3.26c2.09-2.18,3.14-5.31,3.14-9.41v-62.34C1099.74,413.69,1100.21,413.18,1101.15,413.18z"/>
		<path class="st2" d="M1160.02,495.49h-16.13c-5.55,0-9.92-1.62-13.12-4.86c-3.2-3.24-4.8-7.68-4.8-13.31v-45.95
			c0-5.63,1.6-10.07,4.8-13.31c3.2-3.24,7.57-4.86,13.12-4.86h16.13c5.55,0,9.92,1.62,13.12,4.86c3.2,3.24,4.8,7.68,4.8,13.31v6.27
			c0,1.02-0.47,1.54-1.41,1.54h-3.58c-0.94,0-1.41-0.51-1.41-1.54v-6.02c0-4.1-1.05-7.23-3.14-9.41c-2.09-2.18-5.1-3.26-9.02-3.26
			h-14.98c-3.93,0-6.91,1.11-8.96,3.33c-2.05,2.22-3.07,5.33-3.07,9.34v45.44c0,4.01,1.02,7.13,3.07,9.34
			c2.05,2.22,5.03,3.33,8.96,3.33h14.98c3.92,0,6.93-1.09,9.02-3.26c2.09-2.18,3.14-5.31,3.14-9.41v-6.02
			c0-1.02,0.47-1.54,1.41-1.54h3.58c0.94,0,1.41,0.51,1.41,1.54v6.27c0,5.63-1.6,10.07-4.8,13.31
			C1169.94,493.87,1165.57,495.49,1160.02,495.49z"/>
		<path class="st2" d="M1214.55,495.49h-3.71c-0.94,0-1.41-0.51-1.41-1.54v-73.86c0-0.77-0.43-1.15-1.28-1.15h-18.56
			c-1.02,0-1.54-0.47-1.54-1.41v-2.94c0-0.94,0.51-1.41,1.54-1.41h46.08c1.02,0,1.54,0.47,1.54,1.41v2.94
			c0,0.94-0.51,1.41-1.54,1.41h-18.56c-0.85,0-1.28,0.38-1.28,1.15v73.86C1215.83,494.97,1215.4,495.49,1214.55,495.49z"/>
		<path class="st2" d="M1257.43,414.72v79.23c0,1.02-0.47,1.54-1.41,1.54h-3.71c-0.85,0-1.28-0.51-1.28-1.54v-79.23
			c0-1.02,0.43-1.54,1.28-1.54h3.71C1256.96,413.18,1257.43,413.69,1257.43,414.72z"/>
		<path class="st2" d="M1303.89,495.49h-5.89c-0.85,0-1.41-0.51-1.66-1.54l-23.81-79.23c-0.34-1.02,0.04-1.54,1.15-1.54h3.97
			c0.85,0,1.41,0.51,1.66,1.54l21.38,72.83h0.51l21.38-72.83c0.26-1.02,0.81-1.54,1.66-1.54h3.97c1.02,0,1.41,0.51,1.15,1.54
			l-23.81,79.23C1305.3,494.97,1304.75,495.49,1303.89,495.49z"/>
		<path class="st2" d="M1350.87,414.72v79.23c0,1.02-0.47,1.54-1.41,1.54h-3.71c-0.85,0-1.28-0.51-1.28-1.54v-79.23
			c0-1.02,0.43-1.54,1.28-1.54h3.71C1350.4,413.18,1350.87,413.69,1350.87,414.72z"/>
		<path class="st2" d="M1391.19,495.49h-3.71c-0.94,0-1.41-0.51-1.41-1.54v-73.86c0-0.77-0.43-1.15-1.28-1.15h-18.56
			c-1.02,0-1.54-0.47-1.54-1.41v-2.94c0-0.94,0.51-1.41,1.54-1.41h46.08c1.02,0,1.54,0.47,1.54,1.41v2.94
			c0,0.94-0.51,1.41-1.54,1.41h-18.56c-0.85,0-1.28,0.38-1.28,1.15v73.86C1392.47,494.97,1392.04,495.49,1391.19,495.49z"/>
		<path class="st2" d="M1449.56,495.49h-3.71c-0.94,0-1.41-0.51-1.41-1.54v-29.57l-24.83-49.66c-0.51-1.02-0.21-1.54,0.9-1.54h4.61
			c0.77,0,1.36,0.51,1.79,1.54l20.48,41.86h0.64l20.35-41.86c0.43-1.02,1.02-1.54,1.79-1.54h4.74c0.94,0,1.24,0.51,0.9,1.54
			l-24.96,49.66v29.57C1450.84,494.97,1450.41,495.49,1449.56,495.49z"/>
		<path class="st2" d="M1523.8,477.31v-4.61c0-0.94,0.47-1.41,1.41-1.41h3.71c0.94,0,1.41,0.47,1.41,1.41v4.22
			c0,8.53,4.14,12.8,12.42,12.8h13.31c8.28,0,12.42-4.31,12.42-12.93v-5.38c0-3.75-1.54-6.7-4.61-8.83
			c-3.07-2.13-6.78-3.67-11.14-4.61c-4.35-0.94-8.73-1.92-13.12-2.94c-4.4-1.02-8.13-2.9-11.2-5.63c-3.07-2.73-4.61-6.4-4.61-11.01
			v-7.04c0-5.63,1.62-10.07,4.86-13.31c3.24-3.24,7.64-4.86,13.18-4.86h14.85c5.55,0,9.94,1.62,13.18,4.86
			c3.24,3.24,4.86,7.68,4.86,13.31v3.58c0,0.94-0.47,1.41-1.41,1.41h-3.71c-0.94,0-1.41-0.47-1.41-1.41v-3.2
			c0-8.53-4.14-12.8-12.42-12.8h-13.18c-8.19,0-12.29,4.35-12.29,13.06v6.4c0,5.89,5.25,9.86,15.74,11.9
			c4.35,0.85,8.72,1.84,13.12,2.94c4.39,1.11,8.13,3.12,11.2,6.02c3.07,2.9,4.61,6.83,4.61,11.78v6.27c0,5.63-1.62,10.07-4.86,13.31
			c-3.24,3.24-7.64,4.86-13.18,4.86h-15.1c-5.55,0-9.94-1.62-13.18-4.86C1525.42,487.38,1523.8,482.94,1523.8,477.31z"/>
		<path class="st2" d="M1628.63,495.49h-15.74c-5.55,0-9.92-1.62-13.12-4.86c-3.2-3.24-4.8-7.68-4.8-13.31v-45.95
			c0-5.63,1.6-10.07,4.8-13.31c3.2-3.24,7.57-4.86,13.12-4.86h15.74c5.55,0,9.92,1.62,13.12,4.86c3.2,3.24,4.8,7.68,4.8,13.31v45.95
			c0,5.63-1.6,10.07-4.8,13.31C1638.55,493.87,1634.17,495.49,1628.63,495.49z M1613.4,489.73h14.59c3.92,0,6.93-1.09,9.02-3.26
			c2.09-2.18,3.14-5.31,3.14-9.41v-45.44c0-4.1-1.05-7.23-3.14-9.41c-2.09-2.18-5.1-3.26-9.02-3.26h-14.59
			c-3.93,0-6.91,1.11-8.96,3.33c-2.05,2.22-3.07,5.33-3.07,9.34v45.44c0,4.01,1.02,7.13,3.07,9.34
			C1606.48,488.62,1609.47,489.73,1613.4,489.73z"/>
		<path class="st2" d="M1672.02,495.49h-3.71c-0.85,0-1.28-0.51-1.28-1.54v-79.23c0-1.02,0.43-1.54,1.28-1.54h39.42
			c1.02,0,1.54,0.47,1.54,1.41v2.94c0,0.94-0.51,1.41-1.54,1.41h-33.02c-0.85,0-1.28,0.38-1.28,1.15v31.1
			c0,0.68,0.43,1.02,1.28,1.02h29.57c0.94,0,1.41,0.47,1.41,1.41v3.07c0,0.94-0.47,1.41-1.41,1.41h-29.57
			c-0.85,0-1.28,0.34-1.28,1.02v34.82C1673.43,494.97,1672.96,495.49,1672.02,495.49z"/>
		<path class="st2" d="M1743.7,495.49h-3.71c-0.94,0-1.41-0.51-1.41-1.54v-73.86c0-0.77-0.43-1.15-1.28-1.15h-18.56
			c-1.02,0-1.54-0.47-1.54-1.41v-2.94c0-0.94,0.51-1.41,1.54-1.41h46.08c1.02,0,1.54,0.47,1.54,1.41v2.94
			c0,0.94-0.51,1.41-1.54,1.41h-18.56c-0.85,0-1.28,0.38-1.28,1.15v73.86C1744.98,494.97,1744.55,495.49,1743.7,495.49z"/>
		<path class="st2" d="M1798.48,495.49h-6.4c-0.94,0-1.54-0.51-1.79-1.54l-17.54-79.23c-0.26-1.02,0.17-1.54,1.28-1.54h4.22
			c0.94,0,1.49,0.51,1.66,1.54l15.23,73.47h0.64l19.46-73.6c0.17-0.94,0.72-1.41,1.66-1.41h4.86c1.02,0,1.62,0.47,1.79,1.41
			l19.58,73.6h0.64l15.1-73.47c0.17-1.02,0.77-1.54,1.79-1.54h4.35c1.02,0,1.41,0.51,1.15,1.54l-17.54,79.23
			c-0.17,1.02-0.73,1.54-1.66,1.54h-6.53c-0.94,0-1.54-0.51-1.79-1.54l-18.94-72.19h-0.51l-19.07,72.19
			C1799.89,494.97,1799.34,495.49,1798.48,495.49z"/>
		<path class="st2" d="M1878.99,495.49h-3.97c-0.94,0-1.24-0.51-0.9-1.54l25.47-79.23c0.26-1.02,0.85-1.54,1.79-1.54h6.02
			c0.85,0,1.45,0.51,1.79,1.54l25.47,79.23c0.26,1.02-0.04,1.54-0.9,1.54h-4.1c-0.85,0-1.41-0.51-1.66-1.54l-6.91-20.48h-33.54
			l-6.91,20.48C1880.32,494.97,1879.76,495.49,1878.99,495.49z M1904.08,420.22l-14.72,47.49h30.08l-14.85-47.49H1904.08z"/>
		<path class="st2" d="M1954.39,495.49h-3.71c-0.85,0-1.28-0.51-1.28-1.54v-79.23c0-1.02,0.43-1.54,1.28-1.54h29.18
			c5.55,0,9.94,1.62,13.18,4.86c3.24,3.24,4.86,7.68,4.86,13.31v12.16c0,4.78-1.22,8.7-3.65,11.78c-2.43,3.07-5.74,5.04-9.92,5.89
			v0.51l15.23,32.26c0.51,1.02,0.21,1.54-0.9,1.54h-3.97c-1.11,0-1.88-0.51-2.3-1.54l-15.1-32.26h-20.22
			c-0.85,0-1.28,0.38-1.28,1.15v31.1C1955.79,494.97,1955.32,495.49,1954.39,495.49z M1957.07,456.19h22.14
			c3.92,0,6.95-1.09,9.09-3.26c2.13-2.18,3.2-5.27,3.2-9.28v-12.03c0-4.01-1.07-7.12-3.2-9.34c-2.13-2.22-5.16-3.33-9.09-3.33
			h-22.14c-0.85,0-1.28,0.38-1.28,1.15v34.94C1955.79,455.81,1956.22,456.19,1957.07,456.19z"/>
		<path class="st2" d="M2058.58,495.49h-39.55c-0.85,0-1.28-0.51-1.28-1.54v-79.23c0-1.02,0.43-1.54,1.28-1.54h39.55
			c1.02,0,1.54,0.47,1.54,1.41v2.94c0,0.94-0.51,1.41-1.54,1.41h-33.15c-0.85,0-1.28,0.38-1.28,1.15v29.44
			c0,0.77,0.43,1.15,1.28,1.15h29.57c0.94,0,1.41,0.47,1.41,1.41v2.94c0,0.94-0.47,1.41-1.41,1.41h-29.57
			c-0.85,0-1.28,0.38-1.28,1.15v30.98c0,0.77,0.43,1.15,1.28,1.15h33.15c1.02,0,1.54,0.47,1.54,1.41v2.94
			C2060.11,495.02,2059.6,495.49,2058.58,495.49z"/>
	</g>
</g>
</svg>
