<?xml version="1.0" encoding="UTF-8" standalone="no"?>
<!DOCTYPE svg PUBLIC "-//W3C//DTD SVG 1.1//EN" "http://www.w3.org/Graphics/SVG/1.1/DTD/svg11.dtd">
<!-- Created with Vectornator (http://vectornator.io/) -->
<svg height="100%" stroke-miterlimit="10" style="fill-rule:nonzero;clip-rule:evenodd;stroke-linecap:round;stroke-linejoin:round;" version="1.1" viewBox="0 0 1621.17 424.628" width="100%" xml:space="preserve" xmlns="http://www.w3.org/2000/svg" xmlns:vectornator="http://vectornator.io" xmlns:xlink="http://www.w3.org/1999/xlink">
<defs/>
<clipPath id="ArtboardFrame">
<rect height="424.628" width="1621.17" x="0" y="0"/>
</clipPath>
<g clip-path="url(#ArtboardFrame)" id="Layer_2_copy_13" vectornator:layerName="Layer_2_copy_13">
<path d="M-0.000115865 423.88L-0.000115865 309.455L25.6699 309.455L25.6699 169.325L-0.000115865 169.325L0.0998841 5.79323e-05L72.0999 5.79323e-05L71.9999 423.88L-0.000115865 423.88Z" fill="#ffffff" fill-rule="nonzero" opacity="1" stroke="none" vectornator:layerName="polygon"/>
<path d="M91.1562 0L93.0312 423.875L1537.22 423.875L1617.38 323.719L1617.38 0L91.1562 0ZM107.219 16C139.022 16 1569.69 16 1601.38 16L1601.38 318.094L1529.53 407.875L108.969 407.875L107.219 16Z" fill="#ffffff" fill-rule="nonzero" opacity="1" stroke="none"/>
<g fill="#ffffff" opacity="1" stroke="none">
<path d="M304.123 134.771L320.251 134.771C323.323 134.771 324.859 136.137 324.859 138.867L324.859 259.699C324.859 272.158 321.317 281.886 314.235 288.883C307.152 295.881 297.381 299.379 284.923 299.379L256.507 299.379C244.048 299.379 234.32 295.881 227.323 288.883C220.325 281.886 216.827 272.158 216.827 259.699L216.827 139.123C216.827 136.222 218.277 134.771 221.179 134.771L237.307 134.771C240.208 134.771 241.659 136.222 241.659 139.123L241.659 258.675C241.659 271.305 247.803 277.619 260.091 277.619L281.083 277.619C293.541 277.619 299.771 271.305 299.771 258.675L299.771 139.123C299.771 136.222 301.221 134.771 304.123 134.771Z"/>
<path d="M386.811 139.123L386.811 295.027C386.811 297.929 385.36 299.379 382.459 299.379L366.331 299.379C363.429 299.379 361.979 297.929 361.979 295.027L361.979 139.123C361.979 136.222 363.429 134.771 366.331 134.771L382.459 134.771C385.36 134.771 386.811 136.222 386.811 139.123Z"/>
<path d="M445.947 299.379L429.819 299.379C426.917 299.379 425.467 297.929 425.467 295.027L425.467 139.123C425.467 136.222 426.917 134.771 429.819 134.771L445.947 134.771C448.848 134.771 450.299 136.222 450.299 139.123L450.299 220.275L451.067 220.275C452.773 215.667 454.992 211.401 457.723 207.475L506.619 139.123C508.496 136.222 511.227 134.771 514.811 134.771L533.755 134.771C537.339 134.771 537.936 136.393 535.547 139.635L485.627 207.475L541.947 294.259C543.995 297.673 542.971 299.379 538.875 299.379L524.539 299.379C519.931 299.379 516.688 297.929 514.811 295.027L470.523 225.651L450.299 249.459L450.299 295.027C450.299 297.929 448.848 299.379 445.947 299.379Z"/>
<path d="M564.475 147.059L564.475 123.763C564.475 121.033 565.84 119.667 568.571 119.667L585.211 119.667C587.941 119.667 589.307 121.033 589.307 123.763L589.307 147.059C589.307 149.961 587.941 151.411 585.211 151.411L568.571 151.411C565.84 151.411 564.475 149.961 564.475 147.059ZM564.475 295.027L564.475 173.171C564.475 170.27 565.84 168.819 568.571 168.819L584.955 168.819C587.856 168.819 589.307 170.27 589.307 173.171L589.307 295.027C589.307 296.734 589.008 297.886 588.411 298.483C587.813 299.081 586.747 299.379 585.211 299.379L568.827 299.379C565.925 299.379 564.475 297.929 564.475 295.027Z"/>
<path d="M626.683 190.579L614.395 190.579C612.688 190.579 611.536 190.281 610.939 189.683C610.341 189.086 610.043 188.019 610.043 186.483L610.043 173.171C610.043 170.27 611.493 168.819 614.395 168.819L626.683 168.819C628.389 168.819 629.243 167.966 629.243 166.259L629.243 143.219C629.243 140.318 630.779 138.867 633.851 138.867L649.979 138.867C652.88 138.867 654.331 140.318 654.331 143.219L654.331 166.259C654.331 167.966 655.269 168.819 657.147 168.819L680.955 168.819C684.027 168.819 685.563 170.27 685.563 173.171L685.563 186.483C685.563 189.214 684.027 190.579 680.955 190.579L657.147 190.579C655.269 190.579 654.331 191.433 654.331 193.139L654.331 258.931C654.331 271.39 660.731 277.619 673.531 277.619L683.515 277.619C686.587 277.619 688.123 279.07 688.123 281.971L688.123 295.283C688.123 298.014 686.587 299.379 683.515 299.379L669.691 299.379C657.061 299.379 647.163 295.966 639.995 289.139C632.827 282.313 629.243 272.67 629.243 260.211L629.243 193.139C629.243 191.433 628.389 190.579 626.683 190.579Z"/>
</g>
</g>
</svg>
