<?xml version="1.0" encoding="utf-8"?>
<!-- Generator: Adobe Adobe Illustrator 24.2.0, SVG Export Plug-In . SVG Version: 6.00 Build 0)  -->
<svg version="1.1" xmlns="http://www.w3.org/2000/svg" xmlns:xlink="http://www.w3.org/1999/xlink" x="0px" y="0px"
	 viewBox="0 0 126 127" style="enable-background:new 0 0 126 127;" xml:space="preserve">
<style type="text/css">
	.st0{fill:#171111;}
	.st1{fill:#171111;stroke:#1C1616;stroke-width:2;stroke-miterlimit:10;}
	.st2{fill:#FFFFFF;}
	.st3{stroke:#000000;stroke-width:2;stroke-miterlimit:10;}
	.st4{fill:none;stroke:#FFFFFF;stroke-width:0.75;stroke-miterlimit:10;}
</style>
<g id="S">
	<path class="st0" d="M14.65,93.8l4.79,0.99c0,0-0.77,5.3-0.89,5.54c-1.88,3.76-3.85,10.69-3.85,10.69s-2.01-9.01-1.63-11.52
		C13.11,99.33,14.65,93.8,14.65,93.8z"/>
	<path class="st1" d="M19.79,38.39c-2.92,4.83-3.89,6.52-3.89,6.52l5.29-0.9c0,0,4.36-1.23,8.85-0.64c3.66,0.48,8.43-0.9,8.43-0.9
		l10.49-2.56L44,44.26c0,0-3.6,2.19-2.88,5.17c1.34,5.58-1.53,9.03-1.53,9.03S38.7,65.67,28.9,73c-9.8,7.33-13.58,18.64-14.82,26.69
		c0,0,1.57-5.62,8.15-12.25c6.91-6.97,14.03-17.31,17.87-23.49c3.84-6.18,6.47-10.3,6.47-10.3l7.63-14.37c0,0,0.54-1.88,4.51-4.09
		c0,0-3.81-0.16-10.19,1.73c-2.6,0.77-5.52,1.57-8.49,2.15c-4.32,0.85-8.74,1.25-12.39,0.45c0,0,2.43-2.77,7.76-4.88
		c5.33-2.11,9.68-7.04,9.68-7.04l5.37-5.11L31.7,30.24C31.7,30.24,22.71,33.56,19.79,38.39z"/>
	<path class="st1" d="M23.29,38.8c-2.92,4.83-3.89,6.52-3.89,6.52l5.29-0.9c0,0,4.36-1.23,8.85-0.64c3.66,0.48,8.43-0.9,8.43-0.9
		l10.49-2.56l-4.97,4.34c0,0-3.6,2.19-2.88,5.17c1.34,5.58-1.53,9.03-1.53,9.03s-0.89,7.2-10.69,14.53
		c-9.8,7.33-13.58,18.64-14.82,26.69c0,0,1.57-5.62,8.15-12.25c6.91-6.97,14.03-17.31,17.87-23.49c3.84-6.18,6.47-10.3,6.47-10.3
		l7.63-14.37c0,0,0.54-1.88,4.51-4.09c0,0-3.81-0.16-10.19,1.73c-2.6,0.77-5.52,1.57-8.49,2.15c-4.32,0.85-8.74,1.25-12.39,0.45
		c0,0,2.43-2.77,7.76-4.88c5.33-2.11,9.68-7.04,9.68-7.04l5.37-5.11L35.2,30.66C35.2,30.66,26.22,33.97,23.29,38.8z"/>
	<path class="st2" d="M14.44,99.79l-0.73-0.16c1.02-6.64,4.33-18.98,14.97-26.93c9.56-7.15,10.54-14.21,10.55-14.28l0.01-0.11
		l0.07-0.09c0.03-0.03,2.74-3.39,1.46-8.71c-0.77-3.22,2.89-5.49,3.05-5.58l3.76-3.29l-9,2.2c-0.18,0.05-4.87,1.39-8.57,0.9
		c-4.36-0.57-8.66,0.61-8.7,0.62l-6.11,1.04l0.39-0.69c0.01-0.02,1-1.75,3.89-6.53c2.96-4.89,11.73-8.17,12.1-8.3l20.62-8.51
		l-6.83,6.49c-0.16,0.18-4.45,4.99-9.81,7.12c-3.86,1.53-6.19,3.43-7.14,4.3c3.05,0.53,6.84,0.34,11.55-0.59
		c2.49-0.49,5.17-1.17,8.45-2.14c6.36-1.89,10.15-1.75,10.31-1.75l1.33,0.06l-1.17,0.65c-3.74,2.08-4.33,3.85-4.34,3.87L46.9,53.82
		c-0.04,0.07-2.69,4.21-6.49,10.32C36.02,71.22,29,81.13,22.5,87.7C16.07,94.18,14.46,99.73,14.44,99.79z M39.95,58.62
		c-0.15,0.97-1.54,7.73-10.83,14.68c-8.81,6.59-12.49,16.26-14.03,23.04c1.19-2.29,3.29-5.57,6.87-9.18
		c6.46-6.52,13.44-16.38,17.82-23.43c3.8-6.12,6.45-10.26,6.48-10.3l7.62-14.34c-0.01-0.01,0.47-1.56,3.42-3.49
		c-1.64,0.11-4.64,0.48-8.66,1.67c-3.31,0.98-6.01,1.67-8.52,2.16c-5.17,1.02-9.27,1.17-12.54,0.45l-0.62-0.14l0.42-0.48
		c0.1-0.12,2.55-2.86,7.91-4.98c5.19-2.06,9.5-6.89,9.54-6.94l3.94-3.75l-16.92,6.98c-0.1,0.04-8.91,3.33-11.73,7.99l0,0
		c-1.88,3.11-2.96,4.93-3.48,5.82l4.5-0.76c0.14-0.04,4.45-1.23,8.96-0.64c3.54,0.47,8.23-0.87,8.27-0.88l12-2.93l-6.13,5.36
		c-0.09,0.06-3.4,2.12-2.76,4.8C42.76,54.63,40.4,58.03,39.95,58.62z"/>
	<polygon class="st0" points="55.04,19.51 58.56,19.95 51.44,22.91 	"/>
	<polygon class="st0" points="14,46.25 17.51,46.64 18.29,45.39 	"/>
</g>
<g id="H">
	<path class="st3" d="M70.37,44.59c-1.88,2.93-1.96,6.18-4.13,8.91c-2.71,3.41-6.16,10.2-7.05,12.18
		c-1.84,4.11-5.16,6.19-10.78,15.55c-1.97,3.28-7.15,7.28-10.67,8.8c5.58,0.45,10.93-2.67,14.78-6.73s6.56-9.05,9.7-13.68
		c3.14-4.64,6.95-9.11,12.07-11.38c5.29,0.37,10.63-0.07,16.05-1.05c-5.62,8.19-10.69,18.46-18.08,27.14
		c9.09-4.54,15.39-12.87,19.31-19.8c3.37-5.94,5.18-12.6,7.47-19.04s5.2-12.88,9.94-17.81c0,0.05,0,0.11,0.2,0.28
		c0.8,2.61,1.6,5.21,2.4,7.82c-0.05-5.45-0.1-10.9-0.15-16.35c-5.87,3.55-11.74,7.1-17.61,10.65c3.47-1.15,6.94-2.3,10.48-3.19
		c-4.56,8.18-8.73,16.58-12.53,25.28c-4.7,1.28-12.62,0.27-17.67,0.46c1.89-2.36,2.12-5.05,2.35-8.06c0.29-3.8,3.46-9.55,7.77-14.52
		C77.88,34.29,74.65,37.9,70.37,44.59z"/>
	<path class="st3" d="M70.67,41.13c-1.88,2.93-1.96,6.18-4.13,8.91c-2.71,3.41-6.16,10.2-7.05,12.18
		c-1.84,4.11-5.16,6.19-10.78,15.55c-1.97,3.28-7.15,7.28-10.67,8.8c5.58,0.45,10.93-2.67,14.78-6.73s6.56-9.05,9.7-13.68
		c3.14-4.64,6.95-9.11,12.07-11.38c5.29,0.37,10.63-0.07,16.05-1.05c-5.62,8.19-10.69,18.46-18.08,27.14
		c9.09-4.54,15.39-12.87,19.31-19.8c3.37-5.94,5.18-12.6,7.47-19.04s5.2-12.88,9.94-17.81c0,0.05,0,0.11,0.2,0.28
		c0.8,2.61,1.6,5.21,2.4,7.82c-0.05-5.45-0.1-10.9-0.15-16.35c-5.87,3.55-11.74,7.1-17.61,10.65c3.47-1.15,6.94-2.3,10.48-3.19
		C100.04,31.6,95.86,40,92.06,48.7c-4.7,1.28-12.62,0.27-17.67,0.46c1.89-2.36,2.12-5.05,2.35-8.06c0.29-3.8,3.46-9.55,7.77-14.52
		C78.18,30.82,74.95,34.44,70.67,41.13z"/>
	<path class="st4" d="M70.67,41.13c-1.88,2.93-1.96,6.18-4.13,8.91c-2.71,3.41-6.16,10.2-7.05,12.18
		c-1.84,4.11-5.16,6.19-10.78,15.55c-1.97,3.28-7.15,7.28-10.67,8.8c5.58,0.45,10.93-2.67,14.78-6.73s6.56-9.05,9.7-13.68
		c3.14-4.64,6.95-9.11,12.07-11.38c5.29,0.37,10.63-0.07,16.05-1.05c-5.62,8.19-10.69,18.46-18.08,27.14
		c9.09-4.54,15.39-12.87,19.31-19.8c3.37-5.94,5.18-12.6,7.47-19.04s5.2-12.88,9.94-17.81c0,0.05,0,0.11,0.2,0.28
		c0.8,2.61,1.6,5.21,2.4,7.82c-0.05-5.45-0.1-10.9-0.15-16.35c-5.87,3.55-11.74,7.1-17.61,10.65c3.47-1.15,6.94-2.3,10.48-3.19
		C100.04,31.6,95.86,40,92.06,48.7c-4.7,1.28-12.62,0.27-17.67,0.46c1.89-2.36,2.12-5.05,2.35-8.06c0.29-3.8,3.46-9.55,7.77-14.52
		C78.18,30.82,74.95,34.44,70.67,41.13z"/>
	<polygon points="33.72,90.76 34.01,87.19 40.38,87.46 38.14,89.52 	"/>
	<polyline points="68.64,83.88 68.32,87.43 73.51,81.46 	"/>
	<polygon points="112.97,39.17 112.64,42.6 112.56,37.9 	"/>
	<polygon points="86.08,30.31 85.62,33.93 98.6,26.11 	"/>
	<polyline points="83.41,29.35 89.82,25.07 90.11,21.59 	"/>
</g>
</svg>
