<?xml version="1.0" encoding="utf-8"?>
<?xml-stylesheet type="text/css" href="style.css"?>
<!-- Generator: Adobe Adobe Illustrator 24.2.0, SVG Export Plug-In . SVG Version: 6.00 Build 0)  -->
<svg version="1.1" xmlns="http://www.w3.org/2000/svg" xmlns:xlink="http://www.w3.org/1999/xlink" x="0px" y="0px"
	 viewBox="0 0 1024 1024" style="enable-background:new 0 0 1024 1024;" xml:space="preserve">
<style type="text/css">
	.st0{display:none;}
	.st1{display:inline;}
	.st2{fill:#FFFFFF;}
</style>
<g id="Layer_2" class="st0">
	<rect id="text-box" class="st1" width="1024" height="1024"/>
</g>
<g id="Layer_1">
	<g>
		<g>
			<path class="st2" d="M1012,12v1000H110.22L12,904.63V12H1012 M1024,0H0v909.29L104.94,1024H1024V0L1024,0z"/>
		</g>
	</g>
	<g>
		<rect class="st2" width="1016" height="64"/>
	</g>
	<g>
		<path d="M894.24,51.9h-1.53c-0.32,0-0.48-0.16-0.48-0.48V30.52c0-0.32,0.16-0.48,0.48-0.48h7.82c1.56,0,2.8,0.45,3.71,1.34
			c0.91,0.9,1.36,2.12,1.36,3.69v3.09c0,1.27-0.31,2.32-0.92,3.15c-0.61,0.83-1.46,1.38-2.55,1.65v0.14l3.94,8.26
			c0.2,0.36,0.09,0.54-0.34,0.54h-1.53c-0.39,0-0.67-0.16-0.85-0.48l-3.81-8.23h-4.49c-0.23,0-0.34,0.1-0.34,0.31v7.92
			C894.72,51.74,894.56,51.9,894.24,51.9z M895.06,41.12h5.13c1.95,0,2.92-0.97,2.92-2.92v-3.03c0-1.97-0.98-2.96-2.92-2.96h-5.13
			c-0.23,0-0.34,0.1-0.34,0.31v8.3C894.72,41.02,894.83,41.12,895.06,41.12z"/>
		<path d="M924.03,51.9h-10.68c-0.32,0-0.48-0.16-0.48-0.48V30.52c0-0.32,0.16-0.48,0.48-0.48h10.68c0.32,0,0.48,0.16,0.48,0.48
			v1.22c0,0.32-0.16,0.48-0.48,0.48h-8.33c-0.23,0-0.34,0.1-0.34,0.31v6.87c0,0.2,0.11,0.31,0.34,0.31h7.28
			c0.32,0,0.48,0.16,0.48,0.48v1.22c0,0.32-0.16,0.48-0.48,0.48h-7.28c-0.23,0-0.34,0.1-0.34,0.31v7.24c0,0.2,0.11,0.31,0.34,0.31
			h8.33c0.32,0,0.48,0.16,0.48,0.48v1.22C924.5,51.74,924.34,51.9,924.03,51.9z"/>
		<path d="M931.85,51.9h-1.7c-0.29,0-0.4-0.16-0.31-0.48l6.36-20.91c0.09-0.32,0.31-0.48,0.65-0.48h2.45c0.34,0,0.55,0.16,0.65,0.48
			l6.36,20.91c0.09,0.32-0.01,0.48-0.31,0.48h-1.73c-0.25,0-0.41-0.16-0.48-0.48l-1.6-4.96h-8.23l-1.6,4.96
			C932.26,51.74,932.09,51.9,931.85,51.9z M938,32.59l-3.5,11.76h7.14l-3.5-11.76H938z"/>
		<path d="M952.31,51.43V30.52c0-0.32,0.16-0.48,0.48-0.48h8.36c1.56,0,2.79,0.45,3.69,1.34c0.9,0.9,1.34,2.12,1.34,3.69v11.8
			c0,1.56-0.45,2.79-1.34,3.69s-2.12,1.34-3.69,1.34h-8.36C952.47,51.9,952.31,51.74,952.31,51.43z M955.13,49.73h5.71
			c1.9,0,2.86-0.99,2.86-2.96V35.17c0-1.97-0.95-2.96-2.86-2.96h-5.71c-0.23,0-0.34,0.1-0.34,0.31v16.9
			C954.79,49.62,954.91,49.73,955.13,49.73z"/>
		<path d="M988.96,30.04h2.75c0.32,0,0.48,0.16,0.48,0.48v20.91c0,0.32-0.16,0.48-0.48,0.48h-1.5c-0.32,0-0.48-0.16-0.48-0.48V33.37
			h-0.14l-5.27,13.33c-0.14,0.29-0.34,0.44-0.61,0.44h-1.63c-0.29,0-0.49-0.15-0.58-0.44l-5.37-13.36h-0.14v18.09
			c0,0.32-0.15,0.48-0.44,0.48h-1.5c-0.32,0-0.48-0.16-0.48-0.48V30.52c0-0.32,0.16-0.48,0.48-0.48h2.75c0.2,0,0.34,0.09,0.41,0.27
			l5.58,14.08h0.17l5.58-14.08C988.6,30.13,988.74,30.04,988.96,30.04z"/>
		<path d="M1011.1,51.9h-10.68c-0.32,0-0.48-0.16-0.48-0.48V30.52c0-0.32,0.16-0.48,0.48-0.48h10.68c0.32,0,0.48,0.16,0.48,0.48
			v1.22c0,0.32-0.16,0.48-0.48,0.48h-8.33c-0.23,0-0.34,0.1-0.34,0.31v6.87c0,0.2,0.11,0.31,0.34,0.31h7.28
			c0.32,0,0.48,0.16,0.48,0.48v1.22c0,0.32-0.16,0.48-0.48,0.48h-7.28c-0.23,0-0.34,0.1-0.34,0.31v7.24c0,0.2,0.11,0.31,0.34,0.31
			h8.33c0.32,0,0.48,0.16,0.48,0.48v1.22C1011.58,51.74,1011.42,51.9,1011.1,51.9z"/>
	</g>
</g>
</svg>
